<svg xmlns="http://www.w3.org/2000/svg" width="320" height="327" fill="none"><path fill="#3F3D56" d="M151.257 59.64h-1.379V21.864a21.873 21.873 0 0 0-13.497-20.2A21.866 21.866 0 0 0 128.014 0H47.98a21.864 21.864 0 0 0-21.864 21.864v207.244a21.866 21.866 0 0 0 21.864 21.864h80.034a21.866 21.866 0 0 0 21.864-21.864V86.53h1.379V59.64Z"/><path fill="#fff" d="M128.896 5.688h-10.447a7.76 7.76 0 0 1-3.535 9.776 7.757 7.757 0 0 1-3.647.911H65.416a7.757 7.757 0 0 1-7.182-10.687h-9.758a16.328 16.328 0 0 0-16.328 16.328v206.94a16.328 16.328 0 0 0 16.328 16.327h80.42a16.318 16.318 0 0 0 11.545-4.782 16.337 16.337 0 0 0 4.783-11.545V22.016a16.338 16.338 0 0 0-4.783-11.545 16.325 16.325 0 0 0-11.545-4.783Z"/><path fill="#CBCBCB" d="M176.909 251.007H.463a.464.464 0 0 1 0-.926H176.91a.464.464 0 0 1 0 .926Z"/><path fill="#0BD25B" d="M89.124 225.486c21.599 0 39.108-17.509 39.108-39.108 0-21.599-17.509-39.108-39.108-39.108-21.599 0-39.108 17.509-39.108 39.108 0 21.599 17.51 39.108 39.108 39.108Z"/><path fill="#fff" d="M85.25 197.129a4.064 4.064 0 0 1-2.44-.811l-.045-.033-9.19-7.031a4.073 4.073 0 0 1-1.565-2.706 4.086 4.086 0 0 1 5.105-4.481 4.096 4.096 0 0 1 1.43.704l5.953 4.565 14.067-18.352a4.072 4.072 0 0 1 2.706-1.564 4.076 4.076 0 0 1 3.018.808l.002.001-.088.121.09-.121a4.09 4.09 0 0 1 .755 5.725l-16.547 21.577a4.086 4.086 0 0 1-3.249 1.593l-.003.005Z"/><path fill="#F1F1F1" d="M263.346 293.303a12.134 12.134 0 0 1 1.67-2.128c.261-.271.537-.526.821-.775a13.029 13.029 0 0 1 12.915-2.585 13.037 13.037 0 0 1 8.575 9.998c1.91-7.063-3.062-14.021-8.061-19.365-5.002-5.343-10.718-11.203-10.69-18.524.014-4.073 2.007-7.707 5.016-10.402.092-.081.185-.163.28-.241a19.02 19.02 0 0 1 13.1-4.566c8.892.476 16.655 6.452 22.047 13.54 8.678 11.406 12.481 27.415 6.405 40.398-5.343 11.419-16.741 18.2-28.372 23.651a241.74 241.74 0 0 1-4.863 2.215c-.011.003-.023.011-.033.014a7.093 7.093 0 0 0-.229.103l-.999.44.153.101.479.309-.496-.298c-.049-.03-.102-.059-.151-.09-5.713-3.427-11.505-7.054-15.452-12.405-4.093-5.557-5.739-13.516-2.115-19.39Z"/><path fill="#fff" d="M301.462 280.399a32.348 32.348 0 0 1 2.489 9.045 28.06 28.06 0 0 1-.338 8.342 35.982 35.982 0 0 1-7.215 15.432 51.774 51.774 0 0 1-9.346 9.086 241.74 241.74 0 0 1-4.863 2.215c-.01.003-.022.01-.033.013-.078.035-.156.069-.229.104l-.999.44.154.1.478.31-.496-.298c-.049-.031-.101-.059-.15-.09a28.619 28.619 0 0 0-5.19-25.77 28.858 28.858 0 0 0-10.708-8.153c.261-.271.537-.527.822-.775a29.885 29.885 0 0 1 4.586 2.619 29.325 29.325 0 0 1 11.096 14.699 29.987 29.987 0 0 1 .65 16.759c.287-.187.575-.38.855-.571 5.322-3.589 10.227-7.899 13.921-13.185a33.459 33.459 0 0 0 5.938-15.091c.708-5.943-.779-11.788-3.432-17.091a70.053 70.053 0 0 0-10.975-15.593 79.585 79.585 0 0 0-14.715-12.653.57.57 0 0 1-.17-.771.486.486 0 0 1 .28-.241.416.416 0 0 1 .361.073 87.64 87.64 0 0 1 1.982 1.356 80.513 80.513 0 0 1 14.711 13.438c4.182 4.888 7.988 10.319 10.536 16.251Z"/><path fill="#F1F1F1" d="M184.986 56.611a8.305 8.305 0 0 0 8.305-8.305 8.306 8.306 0 1 0-8.305 8.305ZM295.064 166.127a5.063 5.063 0 1 0 0-10.127 5.063 5.063 0 0 0 0 10.127ZM161.064 145.652a5.064 5.064 0 1 0-.002-10.128 5.064 5.064 0 0 0 .002 10.128Z"/><path fill="#CBCBCB" d="M142.923 326.045h176.446a.463.463 0 1 0 0-.926H142.923a.462.462 0 1 0 0 .926Z"/><path fill="#FFB7B7" d="M299.897 83.205a6.785 6.785 0 0 0-13.03-3.44l-14.319 16.416 4.202 11.733 14.399-19.18a6.751 6.751 0 0 0 8.748-5.529Z"/><path fill="#4E4E4E" d="m240.546 147.075 47.529-50.724-6.411-10.193-59.613 50.417 18.495 10.5Z"/><path fill="#2F2E41" d="M229.938 116.255c9.208 0 16.672-7.464 16.672-16.672s-7.464-16.672-16.672-16.672-16.672 7.464-16.672 16.672 7.464 16.672 16.672 16.672Z"/><path fill="#2F2E41" d="M231.278 90.165a34.96 34.96 0 0 1 12.719-8.225c3.074-1.139 6.421-1.842 9.635-1.195 3.214.646 6.254 2.87 7.151 6.024.733 2.578-.024 5.355-1.162 7.782-1.138 2.428-2.657 4.68-3.578 7.197a16.425 16.425 0 0 0 16.528 22.027c-3.158.423-6.069 1.907-9.156 2.697-3.087.79-6.73.737-9.024-1.475-2.427-2.339-2.476-6.144-2.358-9.513l.523-15.026c.089-2.554.165-5.19-.756-7.574-.921-2.384-3.111-4.472-5.666-4.45-1.937.016-3.652 1.19-5.205 2.347-1.554 1.157-3.198 2.392-5.127 2.564-1.929.172-4.132-1.256-3.988-3.188l-.536.008Z"/><path fill="#FFB7B7" d="M166.616 211.528a6.782 6.782 0 0 1-8.219-8.783 6.785 6.785 0 0 1 3.107-3.686l14.403-16.34 12.182 2.631-17.134 16.783a6.733 6.733 0 0 1 .024 5.71 6.74 6.74 0 0 1-4.363 3.685Z"/><path fill="#4E4E4E" d="m214.003 153.029-35.898 45.061-10.943-5.024 42.194-65.691 4.647 25.654Z"/><path fill="#FFB7B7" d="m185.359 289.094-8.555-.134 1.029 29.16h7.525l.001-29.026Z"/><path fill="#1B1B1B" d="M187.277 315.663h-14.821a9.444 9.444 0 0 0-9.444 9.444v.307l24.265.001v-9.752Z"/><path fill="#FFB7B7" d="m242.006 281.36-9.346 6 18.695 22.491 6.332-4.065-15.681-24.426Z"/><path fill="#1B1B1B" d="m257.975 302.681-12.471 8.007h-.001a9.447 9.447 0 0 0-2.844 13.05l.165.258 20.419-13.109-5.268-8.206Z"/><path fill="#4E4E4E" d="M245.335 192.317s-20.766-68.97-27.439-69.902c-6.674-.932-17.426 17.697-17.426 17.697-13.941 17.787-28.317 75.404-28.317 75.404s23.965 1.5 41.483 10.82c17.518 9.32 38.192-.472 38.192-.472l-6.493-33.547Z"/><path fill="#000" d="M245.335 192.317s-20.766-68.97-27.439-69.902c-6.674-.932-14.695 17.886-14.695 17.886-6.947 28.713-31.048 75.215-31.048 75.215s23.965 1.5 41.483 10.82c17.518 9.32 38.192-.472 38.192-.472l-6.493-33.547Z" opacity=".1"/><path fill="#1B1B1B" d="M228.299 171.682v34.657l4.078 50.203 20.377 37.975-9.725 6.947-27.787-36.123-10.99-35.868-17.26 79.401-12.967-.926 9.006-110.088 17.089-30.986 28.179 4.808Z"/><path fill="#640CA8" d="M207.361 138.16c-6.483 6.484-.463 13.431-.463 13.431l-7.41 16.672 29.176 7.873 10.196-45.561-6.946-7.409c-13.894-.464-13.901-.751-13.901-.751-2.434 2.382-10.652 15.745-10.652 15.745Z"/><path fill="#4E4E4E" d="M240.036 125.855a12.449 12.449 0 0 0-9.32-2.283 12.442 12.442 0 0 0-8.175 5.022c-7.335 10.212-14.117 26.703-4.773 47.27 15.005 33.025 28.062 49.931 33.37 49.929.232.002.462-.034.682-.107 3.268-1.109 7.992-6.638 8.847-11.51.306-1.744.233-4.173-1.852-5.841-5.991-4.791-16.745-19.71-20.1-39.348-1.854-10.85 1.741-20.734 5.084-27.115a12.446 12.446 0 0 0-3.602-15.898l-.161-.119Z"/><path fill="#FFB7B7" d="M230.796 114.617c5.947-3.251 8.133-10.708 4.882-16.655-3.251-5.947-10.708-8.133-16.655-4.882-5.948 3.251-8.134 10.708-4.882 16.655 3.251 5.948 10.707 8.133 16.655 4.882Z"/><path fill="#2F2E41" d="M207.649 102.921h17.722l.181-2.545.909 2.545h2.729l.36-5.043 1.801 5.043h5.28v-.25a13.259 13.259 0 0 0-13.242-13.242h-2.498a13.258 13.258 0 0 0-13.242 13.242v.25Z"/><path fill="#2F2E41" d="m233.953 112.066 7.563-2.454V91.247h-14.285l.354.353c4.92 4.914 10.393 22.349 6.368 20.466Z"/><path fill="#6C63FF" d="M105.59 50.942H72.246v8.336h33.344v-8.336Z"/><path fill="#E5E5E5" d="M107.442 85.676H70.393v8.336h37.049v-8.336ZM130.135 103.274H47.701v7.873h82.434v-7.873ZM130.135 120.409H47.701v8.336h82.434v-8.336Z"/></svg>