<svg xmlns="http://www.w3.org/2000/svg" width="303" height="277" fill="none"><path fill="#640CA8" fill-opacity=".2" d="M106.416 132.919c2.21 11.823 13.572 19.616 25.383 17.398a21.608 21.608 0 0 0 9.444-4.291l26.862 29.018a4.14 4.14 0 0 0 6.089-.015 4.15 4.15 0 0 0-.193-5.814L145.3 141.821a21.746 21.746 0 0 0 3.87-16.925c-2.211-11.824-13.573-19.616-25.383-17.398-11.81 2.219-19.586 13.593-17.371 25.421Zm4.637-.868c-1.729-9.26 4.359-18.171 13.606-19.904 9.246-1.732 18.144 4.366 19.873 13.626 1.73 9.261-4.359 18.172-13.605 19.904-9.247 1.732-18.144-4.366-19.874-13.626Z"/><path fill="#fff" d="M128.762 203.422a63.476 63.476 0 0 1-11.165 35.947c-7.276 10.599-17.601 18.777-29.63 23.471-.944.376-1.904.725-2.87 1.049a60.835 60.835 0 0 1-5.587 1.604 65.243 65.243 0 0 1-35.486-1.501 62.672 62.672 0 0 1-6.188-2.411c-.086-.035-.169-.074-.251-.112a53.852 53.852 0 0 1-1.34-.634h-.004a55.719 55.719 0 0 1-1.822-.915 65.069 65.069 0 0 1-4.057-2.316 51.512 51.512 0 0 1-2.03-1.316 63.916 63.916 0 0 1-23.485-28.587 63.339 63.339 0 0 1-3.62-36.702 63.655 63.655 0 0 1 17.452-32.561 64.487 64.487 0 0 1 36.138-18.149 52.955 52.955 0 0 1 2.195-.289 47.72 47.72 0 0 1 1.587-.159h.005c1.43-.13 2.874-.21 4.33-.242l.605-.013c.113 0 .226-.004.34 0h.004c.173-.004.347-.004.526-.004.73 0 1.46.013 2.187.039 1.6.052 3.183.161 4.748.328.904.095 1.796.211 2.687.34.1.018.204.031.304.048.296.047.596.095.892.147a45.69 45.69 0 0 1 1.87.34 63.165 63.165 0 0 1 8.062 2.148c14.059 4.769 26.029 14.204 33.889 26.714.222.349.439.703.652 1.061.165.268.322.535.478.807a4.2 4.2 0 0 1 .157.271c.035.052.061.104.091.156a63.165 63.165 0 0 1 8.336 31.441Z"/><path fill="#CBCBCB" d="M64.411 267.262a64.69 64.69 0 0 1-20.389-3.299 69.518 69.518 0 0 1-2.673-.957 62.772 62.772 0 0 1-3.516-1.476 56.075 56.075 0 0 1-1.532-.723l-.06-.028a55.345 55.345 0 0 1-1.825-.923 65.638 65.638 0 0 1-4.056-2.336 52.49 52.49 0 0 1-2.033-1.328 64.35 64.35 0 0 1-23.481-28.83 64.38 64.38 0 0 1 13.833-69.847 64.317 64.317 0 0 1 44.252-18.998l.717-.014c.082-.001.164-.002.246.001.154-.004.33-.004.51-.004.731 0 1.467.013 2.189.039 1.592.052 3.19.163 4.746.331.824.087 1.703.199 2.686.343l.415.066c.26.042.525.085.785.131.56.089 1.156.198 1.868.343.581.117 1.159.239 1.736.369a63.029 63.029 0 0 1 6.324 1.797 64.715 64.715 0 0 1 35.239 29.206l.024.043c.272.473.545.971.838 1.523a64.425 64.425 0 0 1-10.874 75.244 64.377 64.377 0 0 1-22.418 14.866c-.915.367-1.882.723-2.87 1.057a60.796 60.796 0 0 1-5.588 1.618 64.75 64.75 0 0 1-15.093 1.786Zm-27.885-7.304h.003l.095.044a49.191 49.191 0 0 0 1.55.734 61.442 61.442 0 0 0 6.12 2.407 63.806 63.806 0 0 0 37.296.9 58.956 58.956 0 0 0 3.223-1.003c.976-.33 1.927-.68 2.83-1.042a63.137 63.137 0 0 0 29.296-23.309 63.176 63.176 0 0 0 10.951-35.809v-.001a63.473 63.473 0 0 0-7.399-29.783 50.069 50.069 0 0 0-.822-1.495l-.032-.057c-.014-.024-.027-.049-.044-.074l-.023-.04a4.756 4.756 0 0 0-.14-.245 30.968 30.968 0 0 0-.476-.809 63.852 63.852 0 0 0-34.08-27.639 62.128 62.128 0 0 0-9.792-2.475 42.488 42.488 0 0 0-.78-.13l-.414-.066a63.219 63.219 0 0 0-7.325-.663 59.42 59.42 0 0 0-2.158-.039c-.176.001-.343 0-.512.004a6.303 6.303 0 0 0-.234-.001l-.71.014c-1.43.032-2.867.112-4.27.241l-.044.001a51.66 51.66 0 0 0-1.527.157c-.763.086-1.49.183-2.164.288a63.444 63.444 0 0 0-35.652 18.056 63.517 63.517 0 0 0-13.646 68.912 63.478 63.478 0 0 0 23.168 28.441 50.2 50.2 0 0 0 2.002 1.309c1.3.813 2.646 1.588 4.004 2.306.565.299 1.139.59 1.706.866Z"/><path fill="#9F616A" d="M119.528 189.182a7.829 7.829 0 0 1-12.035.524l-16.88 6.142-6.215-9.403 23.96-8.336a7.868 7.868 0 0 1 10.477.549 7.974 7.974 0 0 1 .693 10.524Z"/><path fill="#CCC" d="m66.004 190.024 35.187-11.489 5.93 12.785-32.806 9.938-8.311-11.234Z"/><path fill="#2F2E41" d="M78.988 265.471a61.443 61.443 0 0 1-34.625-1.521l.764-7.435.709-6.947 10.628-16.92 3.407-5.421 14.039 5.255 1.43 9.284 2.278 14.805 1.37 8.9Z"/><path fill="#0BD25B" d="M87.644 262.672c-.926.375-1.87.723-2.817 1.045a58.934 58.934 0 0 1-5.486 1.6 63.134 63.134 0 0 1-34.84-1.496 68.777 68.777 0 0 1-2.625-.946 49.896 49.896 0 0 1-.23 7.633 90.736 90.736 0 0 1-3.22-9.091 36.199 36.199 0 0 1-.183-.619 106.26 106.26 0 0 1-.803-2.968 84.173 84.173 0 0 1-.704-2.997c-.781-3.595-1.029-5.819-1.029-5.819l8.346-17.459 1.67.193.69.078 4.184.481 6.08.701 9.848 1.131 9.145 7.844 8.192 7.031s.683 2.34 1.755 6.214c.58 2.082 1.268 4.606 2.027 7.444Z"/><path fill="#9F616A" d="M61.135 146.074c8.067 0 14.607-6.782 14.607-15.148s-6.54-15.149-14.607-15.149c-8.068 0-14.608 6.783-14.608 15.149s6.54 15.148 14.608 15.148Z"/><path fill="#CCC" d="M71.93 162.524s-3.614-11.04-12.112-11.04c-2.124 0-5.552.174-8.34 1.972-11.22 7.237-18.046 19.539-18.569 32.772l-2.612 66.109s14.38 5.169 19.61 3.231c5.229-1.939 10.458-14.861 10.458-14.861s-1.307 17.445 3.922 16.799c5.23-.646 24.84-1.938 25.493-4.523.653-2.584-10.007-58.153-10.007-58.153l-7.844-32.306Z"/><path fill="#2F2E41" d="M53.575 135.28c1.333-.081 2.634.378 3.958.557 4.735.642 9.66-2.864 10.706-7.619a5.932 5.932 0 0 1 .547-1.82c.73-1.214 2.389-1.445 3.757-1.166 1.368.279 2.665.932 4.058 1.007 2.151.115 4.216-1.236 5.363-3.097 1.146-1.86 1.471-4.15 1.316-6.342l-1.031 1.104a5.436 5.436 0 0 1-.467-2.904 3.235 3.235 0 0 0-1.67-.008 3.285 3.285 0 0 0-1.46.825c-.909.099-.222-1.721-.898-2.35a1.541 1.541 0 0 0-1.1-.21c-1.934.019-3.499-1.49-5.023-2.705a21.144 21.144 0 0 0-9.017-4.196c-2.184-.435-4.507-.505-6.579.325-1.701.681-3.125 1.923-4.443 3.215-3.243 3.182-6.115 6.921-7.465 11.3a19.39 19.39 0 0 0-.089 11.03c.544 1.872 2.182 8.284 4.581 8.433 3.014.188 1.205-5.151 4.956-5.379Z"/><path fill="#000" d="m60.594 181.781-15.577 22.47-4.982 52.19 20.559-74.66Z" opacity=".1"/><path fill="#3F3D56" d="M125.024 168.421c.367-.514.508-1.041.315-1.179-.192-.137-.646.168-1.012.681-.366.514-.507 1.041-.315 1.179.193.137.646-.168 1.012-.681Z"/><path fill="#0BD25B" d="M104.712 192.602a2.012 2.012 0 0 1-.466-2.798l17.402-24.494a1.991 1.991 0 0 1 2.786-.468l-19.722 27.76Z"/><path fill="#2F2E41" d="m105.523 194.766-.985-.72a1.635 1.635 0 0 1-.641-1.052 1.634 1.634 0 0 1 .019-.631c.046-.208.132-.404.253-.577l19.381-27.826a1.311 1.311 0 0 1 1.862-.319l1.186.866-21.075 30.259Z"/><path fill="#D0CDE1" d="m123.165 167.095-1.327 1.859.465.332 1.327-1.86-.465-.331ZM121.34 169.651l-1.326 1.859.465.332 1.326-1.859-.465-.332Z"/><path fill="#9F616A" d="M42.946 273.717a7.888 7.888 0 0 0 1.286-3.089 7.987 7.987 0 0 0-.102-3.359 7.844 7.844 0 0 0-1.472-2.999 7.556 7.556 0 0 0-2.564-2.076l.93-17.696-10.295-3.205-.971 25.009a8.023 8.023 0 0 0-.097 5.539 7.734 7.734 0 0 0 3.496 4.207 7.363 7.363 0 0 0 5.325.752 7.56 7.56 0 0 0 4.464-3.083Z"/><path fill="#CCC" d="M43.595 258.605h-15.52l-4.27-47.907.014-.043 14.527-42.753a11.46 11.46 0 0 1 6.236-6.801 11.417 11.417 0 0 1 13.036 2.785 11.464 11.464 0 0 1 2.928 8.758 11.47 11.47 0 0 1-1.39 4.51l-17.092 30.847 1.531 50.604Z"/><path fill="#fff" d="M302.969 117.341a64.388 64.388 0 0 1-39.375 59.386 64.385 64.385 0 0 1-70.006-13.284 64.38 64.38 0 0 1 43.585-110.406l.604-.013c.287-.005.578-.005.87-.005.73 0 1.46.014 2.186.04a64.022 64.022 0 0 1 7.432.673c.1.018.204.03.304.048a63.548 63.548 0 0 1 10.817 2.655 64.357 64.357 0 0 1 43.583 60.906Z"/><mask id="a" fill="#fff"><path d="M238.587 181.781c-35.473.002-64.347-28.839-64.38-64.318a64.377 64.377 0 0 1 62.966-64.425l.601-.013a61.312 61.312 0 0 1 3.059.035 64.321 64.321 0 0 1 7.429.674l.314.049a64.254 64.254 0 0 1 54.393 63.559c.033 35.499-28.821 64.406-64.32 64.439h-.062Zm.053-127.897c-.285 0-.57 0-.851.005l-.597.013c-34.286.753-62.154 29.266-62.122 63.56.033 35.001 28.523 63.454 63.517 63.456h.061c35.023-.033 63.49-28.553 63.457-63.576a63.383 63.383 0 0 0-53.669-62.707l-.31-.049a63.254 63.254 0 0 0-7.322-.663 60.1 60.1 0 0 0-2.158-.038h-.006Z"/></mask><path fill="#CBCBCB" d="M238.587 181.781c-35.473.002-64.347-28.839-64.38-64.318a64.377 64.377 0 0 1 62.966-64.425l.601-.013a61.312 61.312 0 0 1 3.059.035 64.321 64.321 0 0 1 7.429.674l.314.049a64.254 64.254 0 0 1 54.393 63.559c.033 35.499-28.821 64.406-64.32 64.439h-.062Zm.053-127.897c-.285 0-.57 0-.851.005l-.597.013c-34.286.753-62.154 29.266-62.122 63.56.033 35.001 28.523 63.454 63.517 63.456h.061c35.023-.033 63.49-28.553 63.457-63.576a63.383 63.383 0 0 0-53.669-62.707l-.31-.049a63.254 63.254 0 0 0-7.322-.663 60.1 60.1 0 0 0-2.158-.038h-.006Z"/><path fill="#CBCBCB" d="M238.587 181.781v3-3Zm-64.38-64.318-3 .003 3-.003Zm62.966-64.425-.065-2.999h-.001l.066 3Zm.601-.013-.043-3h-.012l-.011.001.066 3Zm3.059.035-.108 2.998h.01l.098-2.998Zm4.745.33-.321 2.983.006.001.315-2.983Zm2.684.344.465-2.964-.015-.002-.015-.002-.435 2.968Zm.314.049-.464 2.964h.004l.46-2.964Zm54.393 63.559-3-.003v.006l3-.003Zm-64.32 64.439v3h.002l-.002-3Zm-.86-127.892-.045-3h-.02l.065 3Zm-.597.013-.065-3 .065 3Zm-62.122 63.56 3-.003-3 .003Zm63.517 63.456v3-3Zm.061 0v3h.003l-.003-3Zm63.457-63.576-3-.003v.006l3-.003Zm-53.669-62.707-.465 2.964h.005l.46-2.964Zm-.31-.049.465-2.964-.015-.002-.016-.002-.434 2.968Zm-2.64-.337-.32 2.983h.006l.314-2.983Zm-4.682-.326-.109 2.998h.011l.098-2.998Zm-2.217 124.858c-33.817.002-61.348-27.497-61.38-61.321l-6 .006c.035 37.135 30.251 67.317 67.38 67.315v-6Zm-61.38-61.321a61.376 61.376 0 0 1 17.484-42.96l-4.291-4.193a67.374 67.374 0 0 0-19.193 47.159l6-.006Zm17.484-42.96a61.38 61.38 0 0 1 42.548-18.462l-.132-5.999A67.381 67.381 0 0 0 190.4 70.307l4.291 4.194Zm42.548-18.462.6-.013-.131-5.999-.6.013.131 5.999Zm.577-.013a58.26 58.26 0 0 1 2.909.033l.216-5.996a64.258 64.258 0 0 0-3.21-.036l.085 6Zm2.919.034c1.518.05 3.04.155 4.522.315l.641-5.966a67.298 67.298 0 0 0-4.967-.346l-.196 5.997Zm4.528.315c.777.082 1.615.19 2.565.328l.869-5.936a70.142 70.142 0 0 0-2.804-.359l-.63 5.967Zm2.535.324.314.049.928-5.928-.313-.05-.929 5.929Zm.318.05a61.253 61.253 0 0 1 37.139 20.7l4.558-3.901a67.252 67.252 0 0 0-40.777-22.729l-.92 5.93Zm37.139 20.7a61.252 61.252 0 0 1 14.714 39.891l6 .006a67.249 67.249 0 0 0-16.156-43.798l-4.558 3.901Zm14.714 39.897c.032 33.841-27.48 61.404-61.323 61.436l.005 6c37.157-.035 67.353-30.286 67.318-67.442l-6 .006Zm-61.321 61.436h-.062l.001 6h.062l-.001-6Zm-.008-127.897c-.281 0-.589 0-.896.005l.09 6a54.5 54.5 0 0 1 .806-.005v-6Zm-.916.005-.597.014.131 5.998.597-.013-.131-5.999Zm-.597.014c-35.919.789-65.09 30.636-65.057 66.562l6-.006c-.03-32.661 26.534-59.84 59.188-60.558l-.131-5.998Zm-65.057 66.562c.035 36.657 29.867 66.451 66.517 66.453v-6c-33.339-.002-60.485-27.114-60.517-60.459l-6 .006Zm66.517 66.453h.061v-6h-.061v6Zm.064 0c36.68-.035 66.489-29.899 66.454-66.579l-6 .006c.032 33.366-27.093 60.541-60.46 60.573l.006 6Zm66.454-66.572a66.383 66.383 0 0 0-15.95-43.24l-4.558 3.901a60.386 60.386 0 0 1 14.508 39.332l6 .007Zm-15.95-43.24a66.39 66.39 0 0 0-40.259-22.436l-.92 5.93a60.39 60.39 0 0 1 36.621 20.407l4.558-3.901ZM248.901 51.67l-.31-.049-.93 5.928.31.049.93-5.928Zm-.341-.053a68.68 68.68 0 0 0-2.759-.352l-.629 5.967c.766.08 1.593.186 2.519.322l.869-5.937Zm-2.753-.352a66.247 66.247 0 0 0-4.906-.341l-.195 5.997c1.497.048 2.998.153 4.46.31l.641-5.966Zm-4.895-.341c-.749-.027-1.51-.04-2.266-.04v6c.685 0 1.374.012 2.049.036l.217-5.996Zm-2.266-.04h-.006v6h.006v-6Z" mask="url(#a)"/><path fill="#3F3D56" d="M189.612 120.794c.127-.2-.203-.636-.735-.973-.533-.338-1.068-.449-1.195-.249-.126.2.203.635.736.973.533.337 1.068.449 1.194.249Z"/><path fill="#0BD25B" d="M188.273 116.725c.137-.226.314-.422.522-.576a1.852 1.852 0 0 1 2.152-.056l24.558 16.35c.215.143.401.329.548.548a2.108 2.108 0 0 1 .325 1.521 2.112 2.112 0 0 1-.272.742l-27.833-18.529Z"/><path fill="#2F2E41" d="m185.027 117.661.802-1.252a1.385 1.385 0 0 1 1.895-.421l29.008 18.169a1.62 1.62 0 0 1 .717 1.007 1.6 1.6 0 0 1-.213 1.214l-.666 1.04-31.543-19.757Z"/><path fill="#D0CDE1" d="m189.64 118.615-.305.482 1.93 1.222.305-.482-1.93-1.222ZM192.294 120.295l-.305.483 1.929 1.222.306-.483-1.93-1.222Z"/><path fill="#FFB8B8" d="M238.588 59.512c9.86 0 17.853-7.994 17.853-17.854s-7.993-17.853-17.853-17.853c-9.86 0-17.854 7.993-17.854 17.853 0 9.86 7.994 17.854 17.854 17.854Z"/><path fill="#2F2E41" d="M256.23 179.395a64.312 64.312 0 0 1-44.152-3.462l1.389-37.235.104-2.896.039-.941.048-1.385.034-.884.165-.009c.295-.021.977-.069 1.953-.126 1.132-.065 2.656-.148 4.43-.222.421-.017.855-.035 1.302-.057 9.347-.348 23.944-.422 25.875 2.404l.243 1.664.391 2.687.798 5.491s9.078 18.117 7.381 34.971Z"/><path fill="#640CA8" d="m260.769 85.305-3.599 32.732-6.856 14.928-2.541 5.535-36.777-.439 3.789-25.231c-5.349-13.602 7.355-19.087 7.355-19.087l13.179-26.58s3.51-1.727 12.677-2.162c8.521-.404 1.803.867 1.803.867 11.145-1.097 10.97 19.437 10.97 19.437Z"/><path fill="#000" d="m249.949 120.396-6.911 14.858c-2.22-4.036-3.909-8.606-3.909-11.305 0-7.425 7.639-3.494 7.639-3.494s-6.179-32.866-6.179-42.693c0-6.527 5.599 22.44 9.36 42.634Z" opacity=".2"/><path fill="#2F2E41" d="M259.354 30.872a20.12 20.12 0 0 0-5.323-7.428 3.95 3.95 0 0 0 2.226-1.858c.696-1.367.327-3.08-.62-4.303a7.897 7.897 0 0 0-3.242-2.313c.925.417 1.937.61 2.952.563 1.231-.127 2.461-1.084 2.388-2.271-.069-1.132-1.192-1.897-2.2-2.487l-1.962-1.15c.194-.372.365-.755.511-1.148A7.91 7.91 0 0 0 252.345 0c2.141 2.16 1.594 5.504-.522 8.217-.068.088-.141.173-.212.26l-1.257-.737c-1.046-.613-2.133-1.24-3.347-1.384-1.214-.144-2.598.332-3.093 1.405-.531 1.15.072 2.616-.619 3.683-.605.933-1.926 1.132-3.071 1.088-1.145-.044-2.362-.223-3.381.278-1.416.698-1.881 2.585-1.251 3.992.28.6.698 1.125 1.219 1.537-3.031.419-6.016 1.31-8.949 2.218-3.459 1.07-6.982 2.206-9.873 4.37-2.891 2.166-5.081 5.583-4.805 9.164.275 3.58 3.864 9.22 7.441 8.648l.545-1.69a11.595 11.595 0 0 1 6.951-.928 11.537 11.537 0 0 1 6.203 3.246c.041-2.255 3.504-3.004 5.229-1.534s2.058 3.955 2.192 6.206c.134 2.25.26 4.701 1.756 6.4 1.436 1.63 3.882 2.136 6.01 1.65 2.128-.486 3.967-1.823 5.491-3.373 5.528-5.624 7.309-14.56 4.352-21.844Z"/><path fill="#FFB8B8" d="M202.409 136.001a8.021 8.021 0 0 0 3.119 1.286 8.15 8.15 0 0 0 3.392-.103 7.947 7.947 0 0 0 3.029-1.471 7.573 7.573 0 0 0 2.096-2.564l48.899.929 3.236-10.295-56.284-.971a8.171 8.171 0 0 0-5.593-.096c-1.814.626-3.325 1.87-4.248 3.496a7.3 7.3 0 0 0-.759 5.324c.434 1.804 1.542 3.393 3.113 4.465Z"/><path fill="#640CA8" d="M249.5 64.947s-11.453.88-11.453 10.772c0 9.893 10.351 45.067 10.351 45.067s-7.488-3.957-7.488 3.517c0 7.475 12.554 29.239 13.876 14.729 0 0 18.941 9.234 17.84-8.134-1.102-17.367-12.995-54.08-12.995-54.08s-1.321-12.53-10.131-11.871Z"/><path fill="#0BD25B" d="M109.662 132.919c2.21 11.823 13.573 19.616 25.383 17.398a21.608 21.608 0 0 0 9.444-4.291l26.862 29.018a4.14 4.14 0 0 0 6.089-.015 4.15 4.15 0 0 0-.193-5.814l-28.7-27.394a21.75 21.75 0 0 0 3.869-16.925c-2.211-11.824-13.573-19.616-25.383-17.398-11.81 2.219-19.586 13.593-17.371 25.421Zm4.637-.868c-1.729-9.26 4.36-18.171 13.606-19.904 9.246-1.732 18.144 4.366 19.873 13.626 1.73 9.261-4.359 18.172-13.605 19.904-9.247 1.732-18.144-4.366-19.874-13.626Z"/></svg>