<svg xmlns="http://www.w3.org/2000/svg" width="325" height="309" fill="none"><path fill="#1B1B1B" fill-opacity=".8" d="M241.628 73.281h-1.754V26.865c0-3.528-.719-7.022-2.116-10.281a26.816 26.816 0 0 0-6.027-8.716 27.893 27.893 0 0 0-9.02-5.823A28.65 28.65 0 0 0 212.071 0H110.295c-7.374 0-14.446 2.83-19.66 7.868S82.49 19.74 82.49 26.864V281.51c0 7.125 2.93 13.958 8.144 18.996 5.214 5.038 12.286 7.868 19.66 7.868h101.776c7.374 0 14.446-2.83 19.66-7.868s8.143-11.871 8.143-18.996V106.321h1.754v-33.04Z"/><path fill="#fff" d="M233.834 26.97v254.433c-.001 5.324-2.185 10.431-6.072 14.195-3.887 3.765-9.16 5.881-14.657 5.881h-102.09c-5.498 0-10.77-2.116-14.658-5.881-3.887-3.764-6.071-8.871-6.071-14.195V26.97c0-5.324 2.184-10.43 6.071-14.195 3.888-3.765 9.16-5.88 14.658-5.88h12.384a9.28 9.28 0 0 0 .949 8.92 9.751 9.751 0 0 0 3.542 3.097 10.107 10.107 0 0 0 4.628 1.122h58.207a10.111 10.111 0 0 0 4.629-1.122 9.74 9.74 0 0 0 3.541-3.097 9.347 9.347 0 0 0 1.624-4.346 9.258 9.258 0 0 0-.675-4.574h13.261c5.497 0 10.77 2.115 14.657 5.88 3.887 3.765 6.071 8.871 6.072 14.196Z"/><path fill="#0BD25B" d="M134.022 76.467h-16.023a5.147 5.147 0 0 1-3.519-1.374c-.934-.878-1.459-2.069-1.46-3.311V56.707c.001-1.242.526-2.433 1.46-3.31a5.147 5.147 0 0 1 3.519-1.374h16.023a5.149 5.149 0 0 1 3.519 1.373c.933.878 1.459 2.07 1.46 3.311v15.075c-.001 1.242-.527 2.433-1.46 3.311a5.149 5.149 0 0 1-3.519 1.374ZM169.871 76.467h-15.623a4.95 4.95 0 0 1-3.431-1.374 4.607 4.607 0 0 1-1.423-3.311V56.707a4.607 4.607 0 0 1 1.423-3.31 4.95 4.95 0 0 1 3.431-1.374h15.623a4.95 4.95 0 0 1 3.431 1.373 4.612 4.612 0 0 1 1.424 3.311v15.075a4.612 4.612 0 0 1-1.424 3.311 4.95 4.95 0 0 1-3.431 1.374Z"/><path fill="#E6E6E6" d="M206.245 76.467h-15.622a4.951 4.951 0 0 1-3.432-1.374 4.607 4.607 0 0 1-1.423-3.311V56.707a4.607 4.607 0 0 1 1.423-3.31 4.951 4.951 0 0 1 3.432-1.374h15.622a4.95 4.95 0 0 1 3.431 1.373 4.612 4.612 0 0 1 1.424 3.311v15.075a4.612 4.612 0 0 1-1.424 3.311 4.95 4.95 0 0 1-3.431 1.374ZM134.022 115.327h-16.023a5.151 5.151 0 0 1-3.519-1.374c-.934-.878-1.459-2.069-1.46-3.311V95.567c.001-1.242.526-2.433 1.46-3.311a5.147 5.147 0 0 1 3.519-1.374h16.023a5.149 5.149 0 0 1 3.519 1.374c.933.878 1.459 2.069 1.46 3.311v15.075c-.001 1.242-.527 2.433-1.46 3.311a5.153 5.153 0 0 1-3.519 1.374ZM169.871 115.327h-15.623a4.955 4.955 0 0 1-3.431-1.374 4.606 4.606 0 0 1-1.423-3.311V95.567a4.607 4.607 0 0 1 1.423-3.311 4.95 4.95 0 0 1 3.431-1.374h15.623a4.95 4.95 0 0 1 3.431 1.374 4.612 4.612 0 0 1 1.424 3.311v15.075a4.611 4.611 0 0 1-1.424 3.311 4.955 4.955 0 0 1-3.431 1.374ZM206.245 115.327h-15.622a4.955 4.955 0 0 1-3.432-1.374 4.606 4.606 0 0 1-1.423-3.311V95.567a4.607 4.607 0 0 1 1.423-3.311 4.951 4.951 0 0 1 3.432-1.374h15.622a4.95 4.95 0 0 1 3.431 1.374 4.612 4.612 0 0 1 1.424 3.311v15.075a4.611 4.611 0 0 1-1.424 3.311 4.955 4.955 0 0 1-3.431 1.374ZM134.022 154.187h-16.023a5.151 5.151 0 0 1-3.519-1.374c-.934-.878-1.459-2.069-1.46-3.311v-15.075c.001-1.242.526-2.433 1.46-3.311a5.151 5.151 0 0 1 3.519-1.374h16.023a5.153 5.153 0 0 1 3.519 1.374c.933.878 1.459 2.069 1.46 3.311v15.075c-.001 1.242-.527 2.433-1.46 3.311a5.153 5.153 0 0 1-3.519 1.374ZM169.871 154.187h-15.623a4.955 4.955 0 0 1-3.431-1.374 4.606 4.606 0 0 1-1.423-3.311v-15.075a4.606 4.606 0 0 1 1.423-3.311 4.955 4.955 0 0 1 3.431-1.374h15.623a4.955 4.955 0 0 1 3.431 1.374 4.611 4.611 0 0 1 1.424 3.311v15.075a4.611 4.611 0 0 1-1.424 3.311 4.955 4.955 0 0 1-3.431 1.374ZM206.245 154.187h-15.622a4.955 4.955 0 0 1-3.432-1.374 4.606 4.606 0 0 1-1.423-3.311v-15.075a4.606 4.606 0 0 1 1.423-3.311 4.955 4.955 0 0 1 3.432-1.374h15.622a4.955 4.955 0 0 1 3.431 1.374 4.611 4.611 0 0 1 1.424 3.311v15.075a4.611 4.611 0 0 1-1.424 3.311 4.955 4.955 0 0 1-3.431 1.374ZM134.022 193.047h-16.023a5.151 5.151 0 0 1-3.519-1.374c-.934-.878-1.459-2.069-1.46-3.311v-15.075c.001-1.242.526-2.433 1.46-3.311a5.146 5.146 0 0 1 3.519-1.373h16.023a5.147 5.147 0 0 1 3.519 1.373c.933.878 1.459 2.069 1.46 3.311v15.075c-.001 1.242-.527 2.433-1.46 3.311a5.153 5.153 0 0 1-3.519 1.374ZM169.871 193.047h-15.623a4.955 4.955 0 0 1-3.431-1.374 4.606 4.606 0 0 1-1.423-3.311v-15.075a4.606 4.606 0 0 1 1.423-3.311 4.95 4.95 0 0 1 3.431-1.373h15.623a4.95 4.95 0 0 1 3.431 1.373 4.611 4.611 0 0 1 1.424 3.311v15.075a4.611 4.611 0 0 1-1.424 3.311 4.955 4.955 0 0 1-3.431 1.374ZM206.245 193.047h-15.622a4.955 4.955 0 0 1-3.432-1.374 4.606 4.606 0 0 1-1.423-3.311v-15.075a4.606 4.606 0 0 1 1.423-3.311 4.95 4.95 0 0 1 3.432-1.373h15.622a4.95 4.95 0 0 1 3.431 1.373 4.611 4.611 0 0 1 1.424 3.311v15.075a4.611 4.611 0 0 1-1.424 3.311 4.955 4.955 0 0 1-3.431 1.374Z"/><path fill="#0BD25B" d="M180.003 188.659h-15.751a5.214 5.214 0 0 1-3.615-1.447 4.855 4.855 0 0 1-1.5-3.489v-15.199a4.855 4.855 0 0 1 1.5-3.489 5.22 5.22 0 0 1 3.615-1.447h15.751a5.22 5.22 0 0 1 3.615 1.447 4.855 4.855 0 0 1 1.5 3.489v15.199a4.855 4.855 0 0 1-1.5 3.489 5.215 5.215 0 0 1-3.615 1.447Z"/><path fill="#885C5C" d="M105.382 227.674a4.531 4.531 0 0 0 1.536-1.188 4.283 4.283 0 0 0 .866-1.699c.156-.62.167-1.265.034-1.89a4.281 4.281 0 0 0-.806-1.726l3.409-31.885h-7.367l-2.709 31.134a4.338 4.338 0 0 0-1.57 2.73 4.236 4.236 0 0 0 .72 3.038 4.58 4.58 0 0 0 2.648 1.813 4.77 4.77 0 0 0 3.239-.327ZM112.37 171.736c5.74 0 10.393-4.49 10.393-10.028 0-5.539-4.653-10.029-10.393-10.029-5.74 0-10.393 4.49-10.393 10.029 0 5.538 4.653 10.028 10.393 10.028Z"/><path fill="#CCC" d="M114.2 208.089a1.96 1.96 0 0 1-1.162-.379 1.849 1.849 0 0 1-.686-.982c-.841-2.95-3.027-7.939-6.498-14.827a11.91 11.91 0 0 1-.323-10.042 12.268 12.268 0 0 1 3.005-4.237 12.8 12.8 0 0 1 4.535-2.678 13.103 13.103 0 0 1 9.871.577 12.652 12.652 0 0 1 3.985 2.99 12.158 12.158 0 0 1 2.466 4.253c2.691 8.152 2.561 16.884 2.38 20.26a1.822 1.822 0 0 1-.455 1.105 1.937 1.937 0 0 1-1.054.614l-15.652 3.303a1.96 1.96 0 0 1-.412.043Z"/><path fill="#885C5C" d="M129.259 302.732h5.281l2.512-18.803h-7.794l.001 18.803Z"/><path fill="#2F2E41" d="M144.522 307.642h-16.293v-6.074h9.997a6.475 6.475 0 0 1 2.409.462 6.315 6.315 0 0 1 2.043 1.316 6.077 6.077 0 0 1 1.364 1.971 5.88 5.88 0 0 1 .48 2.325Z"/><path fill="#885C5C" d="m77.295 296.548 4.515 2.424 11.723-15.853-6.664-3.577-9.574 17.006Z"/><path fill="#2F2E41" d="m88.486 307.642-14.277-7.574 3.033-5.323 8.76 4.648a6.12 6.12 0 0 1 3.013 3.628 5.885 5.885 0 0 1-.529 4.621ZM129.248 292.077c-.461 0-.907-.163-1.253-.458a1.82 1.82 0 0 1-.63-1.143l-6.474-48.249a1.01 1.01 0 0 0-.279-.569 1.085 1.085 0 0 0-1.217-.223 1.03 1.03 0 0 0-.475.431l-26.983 47.343a1.894 1.894 0 0 1-1.01.835c-.43.152-.902.151-1.33-.005l-5.882-2.167a1.908 1.908 0 0 1-.636-.388 1.843 1.843 0 0 1-.43-.596 1.792 1.792 0 0 1-.017-1.426l18.691-44.405c.047-.113.079-.231.096-.352 2.531-18.95 8.973-28.586 10.886-31.088a1.386 1.386 0 0 0 .21-1.296l-.263-.763a1.783 1.783 0 0 1 .365-1.788c6.897-7.596 18.917-3.451 19.037-3.408l.06.021.038.05c13.478 17.875 8.495 75.935 7.359 87.392a1.81 1.81 0 0 1-.56 1.135c-.32.303-.74.486-1.186.519l-7.969.593c-.05.004-.099.005-.148.005Z"/><path fill="#885C5C" d="M152.92 173.151a4.2 4.2 0 0 0-.102.667L134.54 183.9l-4.443-2.445-4.736 5.928 7.425 5.059c.6.409 1.322.621 2.058.604a3.502 3.502 0 0 0 2.026-.699l18.848-14.216c.85.301 1.777.347 2.656.133a4.505 4.505 0 0 0 2.263-1.334 4.178 4.178 0 0 0 1.07-2.328 4.115 4.115 0 0 0-.504-2.497 4.384 4.384 0 0 0-1.899-1.78 4.641 4.641 0 0 0-2.62-.432c-.9.113-1.741.486-2.414 1.068a4.237 4.237 0 0 0-1.35 2.19Z"/><path fill="#CCC" d="m134.05 184.385-5.991 7.322c-.171.208-.387.38-.634.502a2.063 2.063 0 0 1-1.615.084 1.968 1.968 0 0 1-.687-.434l-6.783-6.642c-1.125-.829-1.855-2.044-2.032-3.38a4.879 4.879 0 0 1 1.092-3.746c.875-1.064 2.162-1.756 3.578-1.927a5.635 5.635 0 0 1 3.976 1.018l8.507 4.486c.243.128.454.305.619.517.165.213.279.456.335.714.056.258.052.524-.011.78a1.797 1.797 0 0 1-.354.706ZM111.047 197.404l-9.454-1.702a1.9 1.9 0 0 1-1.554-1.669 1.886 1.886 0 0 1 .09-.803l3.064-9.045a5.268 5.268 0 0 1 2.2-3.374 5.294 5.294 0 0 1 7.338 1.343 5.256 5.256 0 0 1 .854 3.933l-.299 9.511a1.894 1.894 0 0 1-1.429 1.777 1.925 1.925 0 0 1-.81.029Z"/><path fill="#2F2E41" d="M113.893 159.006c2.66 1.76 6.153 3.568 8.869 1.694a4.773 4.773 0 0 0 1.76-2.492 4.62 4.62 0 0 0-.137-3.015c-1.301-3.595-4.875-5.178-8.293-6.391-4.443-1.577-9.282-2.832-13.869-1.702-4.587 1.129-8.64 5.421-7.813 9.925.666 3.621-5.896 5.424-6.398 9.071-.505 3.669-.126 5.611-3.897 6.267-3.77.656-2.541 2.068-5.251 4.685-3.457 3.338-2.594 9.306.659 12.831 3.253 3.525 8.161 5.123 12.917 6.209 6.302 1.439 13.118 2.195 19.103-.193 5.985-2.389 10.643-8.818 8.909-14.847-.733-2.547-2.458-4.699-4.125-6.794-1.667-2.095-3.356-4.286-3.992-6.857-.53-2.142-.137-4.63 1.333-6.237a1.78 1.78 0 0 0 .48-1.016 1.751 1.751 0 0 0-.23-1.095l-.025-.043Z"/><path fill="#FFB8B8" d="M219.543 303.359h-5.281l-2.513-19.43h7.795l-.001 19.43Z"/><path fill="#2F2E41" d="M210.48 302.105h10.363v6.268h-16.888c0-.823.169-1.638.496-2.399a6.262 6.262 0 0 1 1.415-2.033 6.548 6.548 0 0 1 2.117-1.359 6.755 6.755 0 0 1 2.497-.477Z"/><path fill="#FFB8B8" d="M239.678 303.359h-5.281l-2.512-19.43h7.794l-.001 19.43Z"/><path fill="#2F2E41" d="M230.615 302.105h10.363v6.268H224.09c0-.823.169-1.638.497-2.399a6.262 6.262 0 0 1 1.415-2.033 6.544 6.544 0 0 1 2.116-1.359 6.759 6.759 0 0 1 2.497-.477Z"/><path fill="#FFB8B8" d="M239.144 243.704a4.742 4.742 0 0 1-1.507-1.39 4.275 4.275 0 0 1-.722-1.843 4.148 4.148 0 0 1 .198-1.95 4.466 4.466 0 0 1 1.082-1.689l-3.712-48.173 10.693.949.294 47.175c.834.809 1.315 1.869 1.352 2.981.037 1.111-.374 2.196-1.154 3.049-.779.853-1.874 1.415-3.077 1.58a5.342 5.342 0 0 1-3.447-.689Z"/><path fill="#2F2E41" d="m219.273 293.328-5.891-.27a1.999 1.999 0 0 1-1.324-.579 1.852 1.852 0 0 1-.547-1.296l-.411-57.372a1.83 1.83 0 0 1 .173-.79c.117-.249.287-.47.501-.649.213-.179.464-.311.735-.388a2.04 2.04 0 0 1 .837-.058l23.569 3.293c.465.063.892.285 1.201.626.309.342.48.779.481 1.231l3.031 53.162a1.84 1.84 0 0 1-.145.727 1.901 1.901 0 0 1-.425.619c-.183.177-.4.317-.639.413-.24.096-.496.145-.755.145h-6.352a2 2 0 0 1-1.278-.451 1.867 1.867 0 0 1-.662-1.145l-3.918-23.976a1.46 1.46 0 0 0-.528-.898 1.556 1.556 0 0 0-1.01-.344 1.555 1.555 0 0 0-.996.379 1.454 1.454 0 0 0-.493.916l-3.11 25.041a1.873 1.873 0 0 1-.649 1.188 2.017 2.017 0 0 1-1.395.476Z"/><path fill="#640CA8" d="M223.459 236.78c-5.211-2.799-9.282-3.535-11.245-3.724a1.974 1.974 0 0 1-1.338-.708 1.873 1.873 0 0 1-.356-.68 1.824 1.824 0 0 1-.051-.76l5.665-40.665a13.816 13.816 0 0 1 2.761-6.561 14.472 14.472 0 0 1 5.719-4.428 14.586 14.586 0 0 1 7.014-1.208c2.407.182 4.725.957 6.734 2.25a14.1 14.1 0 0 1 5.631 6.891 13.606 13.606 0 0 1 .474 8.129c-3.474 13.74-4.667 36.266-4.871 40.642a1.848 1.848 0 0 1-.374 1.035 1.952 1.952 0 0 1-.904.66 20.341 20.341 0 0 1-6.668 1.148 17.148 17.148 0 0 1-8.191-2.021Z"/><path fill="#640CA8" d="M236.732 204.6a1.908 1.908 0 0 1-.588-.619 1.768 1.768 0 0 1-.242-.795l-.761-12.846a4.927 4.927 0 0 1 1.216-3.518c.857-.993 2.079-1.655 3.43-1.858a5.868 5.868 0 0 1 3.883.758c1.149.692 1.983 1.755 2.341 2.985l3.342 11.484c.139.479.068.99-.197 1.421-.265.43-.703.745-1.216.876l-9.506 2.401a2.14 2.14 0 0 1-.887.036 2.074 2.074 0 0 1-.815-.325Z"/><path fill="#FFB8B8" d="M228.312 173.617c5.919 0 10.718-4.631 10.718-10.342 0-5.712-4.799-10.342-10.718-10.342s-10.717 4.63-10.717 10.342c0 5.711 4.798 10.342 10.717 10.342ZM189.051 183.952c.054.229.089.462.105.697l18.932 10.53 4.601-2.554 4.906 6.192-9.844 6.765-21.598-16.428a4.792 4.792 0 0 1-2.75.138 4.654 4.654 0 0 1-2.345-1.393 4.383 4.383 0 0 1-1.107-2.431c-.105-.9.077-1.81.522-2.607a4.542 4.542 0 0 1 1.966-1.859 4.77 4.77 0 0 1 2.714-.452 4.697 4.697 0 0 1 2.499 1.115 4.438 4.438 0 0 1 1.399 2.287Z"/><path fill="#640CA8" d="M209.162 193.896a1.84 1.84 0 0 1 .549-1.521l9.286-9.099a5.319 5.319 0 0 1 3.448-1.504 5.34 5.34 0 0 1 3.59 1.142 5.139 5.139 0 0 1 1.888 3.201 5.08 5.08 0 0 1-.784 3.617l-6.613 9.984c-.277.416-.71.707-1.206.811a1.947 1.947 0 0 1-1.438-.26l-7.86-4.997a1.878 1.878 0 0 1-.589-.591 1.838 1.838 0 0 1-.271-.783Z"/><path fill="#2F2E41" d="M235.801 171.318c-2.022 2.026-5.777.939-6.041-1.829a3.17 3.17 0 0 1 .005-.646c.136-1.226.889-2.339.708-3.634a1.83 1.83 0 0 0-.37-.891c-1.612-2.03-5.394.907-6.915-.93-.932-1.127.164-2.9-.551-4.159-.945-1.662-3.742-.843-5.496-1.753-1.952-1.012-1.835-3.829-.551-5.542 1.567-2.09 4.314-3.205 7.027-3.365 2.713-.161 5.407.529 7.94 1.457 2.878 1.055 5.732 2.513 7.502 4.893 2.154 2.895 2.361 6.786 1.284 10.171-.655 2.059-2.891 4.574-4.542 6.228Z"/><path fill="#CCC" d="M323.68 309H.44a.54.54 0 0 1-.311-.092c-.083-.058-.129-.138-.129-.221 0-.083.046-.163.129-.222a.54.54 0 0 1 .31-.092H323.68c.117 0 .228.033.311.092.082.059.128.139.128.222a.275.275 0 0 1-.128.221.541.541 0 0 1-.311.092Z"/></svg>