<svg xmlns="http://www.w3.org/2000/svg" width="333" height="294" fill="none"><path fill="#3F3D56" d="m318.249 293.609-.444-.166c-.097-.036-9.795-3.746-14.338-12.158-4.543-8.412-2.318-18.54-2.295-18.641l.104-.462.444.166c.097.037 9.795 3.747 14.338 12.158 4.543 8.413 2.318 18.541 2.295 18.642l-.104.461Zm-14.054-12.715c3.841 7.112 11.504 10.757 13.446 11.59.369-2.078 1.527-10.481-2.311-17.586-3.837-7.104-11.503-10.756-13.446-11.59-.369 2.079-1.526 10.481 2.311 17.586Z"/><path fill="#0BD25B" d="M306.939 278.334c8.164 4.904 11.308 14.646 11.308 14.646s-10.092 1.789-18.256-3.115-11.308-14.645-11.308-14.645 10.092-1.79 18.256 3.114Z"/><path fill="#FFB7B7" d="M175.503 157.564a5.176 5.176 0 0 1 7.627-1.187c.178.147.345.306.5.476l20.332-2.955 1.131-15.265a4.43 4.43 0 0 1 4.749-4.089 4.423 4.423 0 0 1 4.096 4.741l-.007.082-1.982 21.419-.009.048a4.016 4.016 0 0 1-3.882 2.813l-23.914-.412a4.823 4.823 0 0 1-.3.409 5.164 5.164 0 0 1-3.786 1.882 5.177 5.177 0 0 1-4.219-1.893 5.173 5.173 0 0 1-.336-6.069ZM216.494 287.716h-5.799l-2.759-22.332h8.559l-.001 22.332Z"/><path fill="#1B1B1B" d="M217.973 293.328h-18.698v-.237c0-1.927.767-3.775 2.132-5.137a7.28 7.28 0 0 1 5.145-2.129h.001l11.42.001v7.502Z"/><path fill="#FFB7B7" d="m257.014 282.467-5.488 1.869-9.832-20.247 8.1-2.759 7.22 21.137Z"/><path fill="#1B1B1B" d="m260.228 287.302-17.696 6.026-.077-.223a7.253 7.253 0 0 1 .357-5.55 7.27 7.27 0 0 1 4.182-3.673l10.809-3.681 2.425 7.101ZM222.879 92.454s-5.772-1.903-9.482 5.71c-3.71 7.612-9.482 15.986-9.482 15.986l3.298.761s.825-5.329 2.886-6.09l-.825 6.851s24.736 7.994 35.867-.761l-.412-2.664s1.649.38 1.649 2.664l1.237-1.142s-1.237-2.284-4.947-5.329c-2.436-1.998-3.272-5.801-3.56-8.178a9.525 9.525 0 0 0-2.468-5.39c-2.466-2.638-6.959-5.442-13.761-2.418Z"/><path fill="#FFB7B7" d="M225.007 119.051c5.822 0 10.541-4.712 10.541-10.525 0-5.813-4.719-10.525-10.541-10.525s-10.542 4.712-10.542 10.525c0 5.813 4.72 10.525 10.542 10.525Z"/><path fill="#CBCBCB" d="m210.951 127.718-1.917-.638s-3.833 1.595-3.833 4.465c0 2.871-.639 14.353-.639 14.353l8.625.957-2.236-19.137Z"/><path fill="#FFB7B7" d="M245.256 190.454a4.971 4.971 0 0 1-.114-6.494l-5.381-44.991a4.012 4.012 0 0 1 3.805-4.204 4.02 4.02 0 0 1 2.894 1.024 4.01 4.01 0 0 1 1.324 2.767l.002.044 4.813 45.039c.175.175.336.363.482.562a5 5 0 0 1 .888 3.73 5 5 0 0 1-2.182 3.381 5.029 5.029 0 0 1-4.244.613 4.961 4.961 0 0 1-2.287-1.471Z"/><path fill="#CBCBCB" d="m240.328 145.898 8.625-.957s-.639-11.482-.639-14.352c0-2.871-3.833-4.466-3.833-4.466l-1.917.638-2.236 19.137Z"/><path fill="#1B1B1B" d="M212.229 161.829s-7.347 13.412-7.347 29.678-.639 90.9-.639 90.9 9.583 4.465 15.333-.957l5.111-82.607 20.125 81.012s9.583 1.914 14.056-1.275l-8.625-56.454s-3.514-52.945-13.098-56.772c-9.583-3.828-24.916-3.525-24.916-3.525ZM213.615 108.593c3.732-2.697 6.753-5.803 8.751-9.498 0 0 6.849 7.598 11.034 7.978 4.185.38.381-9.117.381-9.117l-7.61-1.9-7.229.76-5.707 3.799.38 7.978Z"/><path fill="#1B1B1B" fill-opacity=".2" d="M235.548 124.21s.305-.163-17.888.498l-7.614 2.094-1.012.278s.959 19.137 3.514 22.645c2.556 3.509 1.917 5.422 1.278 5.741-.639.319-2.236-.319-1.278 1.276.959 1.595 2.236.638.959 1.595-1.278.957-1.917 4.465-1.917 4.465l28.111 3.828s.958-12.439 3.514-18.818c2.555-6.379 3.194-8.931 3.194-8.931l-1.916-12.758-8.945-1.913Z"/><path fill="#1B1B1B" d="M182.103 69.806h-1.616V25.591a25.573 25.573 0 0 0-7.507-18.096A25.652 25.652 0 0 0 154.856 0H61.034A25.65 25.65 0 0 0 42.91 7.495a25.57 25.57 0 0 0-7.507 18.096V268.16a25.57 25.57 0 0 0 7.507 18.095 25.648 25.648 0 0 0 18.124 7.496h93.822a25.67 25.67 0 0 0 9.809-1.948 25.63 25.63 0 0 0 13.871-13.85 25.556 25.556 0 0 0 1.951-9.793V101.279h1.616V69.806Z"/><path fill="#fff" d="M175.032 25.77v242.213a19.076 19.076 0 0 1-5.589 13.507 19.14 19.14 0 0 1-13.518 5.605H61.618a19.146 19.146 0 0 1-13.53-5.585 19.082 19.082 0 0 1-5.612-13.5V25.77a19.075 19.075 0 0 1 5.593-13.508A19.13 19.13 0 0 1 61.591 6.66h11.463a9.066 9.066 0 0 0 .873 8.493 9.087 9.087 0 0 0 7.547 4.014h53.751a9.102 9.102 0 0 0 7.547-4.014 9.066 9.066 0 0 0 .873-8.493h12.246a19.136 19.136 0 0 1 13.527 5.58 19.08 19.08 0 0 1 5.614 13.497v.034Z"/><path fill="#E5E5E5" d="M175.032 61.605v-8.25h-12.506V7.839a19.108 19.108 0 0 0-6.635-1.18h-1.628v46.696h-43.381V19.166h-8.263v34.189H66.261V6.659h-4.643a18.986 18.986 0 0 0-3.62.342v46.354H42.477v8.25H58v19.083l-15.522 8.947v9.53l15.522-8.948v56.777H42.475v8.251H58v82.089H42.475v8.25H58v41.168c1.192.23 2.404.344 3.619.343h4.643v-41.511h36.358v41.511h8.263v-41.511h43.381v41.511h1.628a19.111 19.111 0 0 0 6.635-1.18v-40.331h12.506v-8.25h-12.506v-35.888h12.394v-8.251h-12.394v-37.95h12.506v-8.251h-12.506V96.668h12.506v-8.25h-12.506V61.605h12.506Zm-83.927 0L66.262 75.927V61.605h24.843ZM66.26 85.453l36.358-20.96v82.501H66.261V85.453Zm0 151.881v-82.089h36.358v82.089H66.261Zm88.002 0h-43.381v-35.888h43.381v35.888Zm0-44.139h-43.381v-37.95h43.381v37.95Zm0-46.201h-43.381V96.668h43.381v50.326Zm0-58.576h-43.381V61.605h43.381v26.813Z"/><path fill="#0BD25B" d="M181.944 88.57c0 26.2-47.512 84.565-47.512 84.565S86.919 114.77 86.919 88.571a47.402 47.402 0 0 1 13.916-33.544 47.553 47.553 0 0 1 33.597-13.895 47.549 47.549 0 0 1 33.596 13.895 47.402 47.402 0 0 1 13.916 33.544Z"/><path fill="#fff" d="M162.526 86.508a28.017 28.017 0 0 1-4.734 15.584 28.084 28.084 0 0 1-12.609 10.332 28.137 28.137 0 0 1-16.232 1.596 28.105 28.105 0 0 1-14.385-7.677 28.036 28.036 0 0 1-7.688-14.362 28.013 28.013 0 0 1 1.598-16.207 28.066 28.066 0 0 1 10.348-12.589 28.126 28.126 0 0 1 15.608-4.727 28.114 28.114 0 0 1 19.86 8.203 28.037 28.037 0 0 1 6.092 9.093 27.982 27.982 0 0 1 2.142 10.729v.025Z"/><path fill="#0BD25B" d="M134.334 97.581c5.781 0 10.467-4.678 10.467-10.45 0-5.771-4.686-10.45-10.467-10.45-5.78 0-10.466 4.679-10.466 10.45 0 5.772 4.686 10.45 10.466 10.45ZM149.524 110.999a28.156 28.156 0 0 1-30.188-.004 15.673 15.673 0 0 1 5.642-8.205 15.714 15.714 0 0 1 18.906.002 15.673 15.673 0 0 1 5.64 8.207ZM134.432 207.373c7.073 0 12.807-5.725 12.807-12.788 0-7.062-5.734-12.787-12.807-12.787-7.074 0-12.808 5.725-12.808 12.787 0 7.063 5.734 12.788 12.808 12.788Z"/><path fill="#CBCBCB" d="M332.587 294H.413a.411.411 0 0 1-.413-.412.411.411 0 0 1 .413-.413h332.174a.413.413 0 0 1 0 .825Z"/></svg>