<svg xmlns="http://www.w3.org/2000/svg" width="16" height="17" fill="none"><path fill="#640CA8" d="M2.857.535A2.857 2.857 0 0 0 0 3.392v.571h16v-.57A2.857 2.857 0 0 0 13.143.534H2.857ZM16 5.106H0v8.572a2.857 2.857 0 0 0 2.857 2.857h10.286A2.857 2.857 0 0 0 16 13.678V5.106ZM5.714 8.535a1.143 1.143 0 1 1-2.285 0 1.143 1.143 0 0 1 2.285 0Zm-1.143 4.571a1.143 1.143 0 1 1 0-2.286 1.143 1.143 0 0 1 0 2.286Zm4.572-4.571a1.143 1.143 0 1 1-2.286 0 1.143 1.143 0 0 1 2.286 0ZM8 13.106a1.143 1.143 0 1 1 0-2.286 1.143 1.143 0 0 1 0 2.286Zm4.571-4.571a1.143 1.143 0 1 1-2.285 0 1.143 1.143 0 0 1 2.285 0Z"/></svg>