<svg xmlns="http://www.w3.org/2000/svg" width="20" height="22" fill="none"><path fill="#640CA8" d="M10 0C7.349.003 4.807.914 2.932 2.534 1.058 4.154.003 6.351 0 8.643c0 7.396 9.09 12.981 9.478 13.215.153.092.335.142.522.142s.369-.05.522-.142C10.909 21.624 20 16.038 20 8.643c-.003-2.292-1.058-4.488-2.932-6.109C15.193.914 12.65.003 10 0Zm0 5.5c.72 0 1.422.184 2.02.53a3.292 3.292 0 0 1 1.34 1.41 2.75 2.75 0 0 1 .207 1.816c-.14.61-.487 1.17-.996 1.61a3.843 3.843 0 0 1-1.862.86 4.169 4.169 0 0 1-2.1-.18 3.574 3.574 0 0 1-1.633-1.157 2.85 2.85 0 0 1-.612-1.746c0-.834.383-1.633 1.065-2.222C8.11 5.83 9.036 5.5 10 5.5Z"/></svg>