<svg xmlns="http://www.w3.org/2000/svg" width="20" height="20" fill="none"><path fill="#640CA8" d="M13.684 1.454C12.75.517 11.442 0 10 0 8.55 0 7.239.513 6.308 1.446c-.942.942-1.4 2.223-1.292 3.606C5.229 7.78 7.465 10 10 10s4.767-2.22 4.984-4.947c.11-1.37-.352-2.649-1.3-3.599ZM18.462 20H1.54c-.222.003-.441-.04-.642-.127a1.484 1.484 0 0 1-.522-.37 1.494 1.494 0 0 1-.345-1.3c.406-2.09 1.672-3.845 3.662-5.078C5.461 12.03 7.701 11.428 10 11.428c2.3 0 4.54.603 6.308 1.697 1.99 1.232 3.256 2.988 3.662 5.078.093.479-.033.953-.345 1.3-.142.158-.32.284-.521.37a1.59 1.59 0 0 1-.643.127Z"/></svg>