<svg xmlns="http://www.w3.org/2000/svg" width="20" height="20" fill="none"><path fill="#640CA8" d="m19.633 15.666-4.564-4.149a1.124 1.124 0 0 0-1.562.048l-2.686 2.763c-.647-.123-1.947-.528-3.285-1.863-1.338-1.34-1.744-2.643-1.864-3.285l2.76-2.688a1.123 1.123 0 0 0 .049-1.562L4.333.368A1.123 1.123 0 0 0 2.77.27L.335 2.36c-.194.194-.31.454-.326.728-.017.28-.338 6.93 4.818 12.087C9.324 19.67 14.957 20 16.509 20c.227 0 .366-.007.403-.009.275-.015.534-.132.728-.327l2.088-2.437a1.12 1.12 0 0 0-.095-1.56Z"/></svg>