<svg xmlns="http://www.w3.org/2000/svg" width="166" height="35" fill="none"><path fill="#0BD25B" d="M3.466 20.26C-.5 16.29-1.139 10.014 1.946 5.335l.525-.794 8.355 8.356 9.44-9.44A11.787 11.787 0 0 1 28.638 0c2.32 0 4.566.668 6.496 1.932l.8.523-25.137 25.136-7.33-7.33Z"/><mask id="a" width="29" height="31" x="12" y="4" maskUnits="userSpaceOnUse" style="mask-type:luminance"><path fill="#fff" d="M20.246 34.954c-1.2-.005-2.398-.402-3.263-1.183l-.062-.056-4.004-4.004L38.053 4.575l.523.8c3.06 4.671 2.41 10.931-1.544 14.885L23.639 33.658c-.872.872-2.133 1.3-3.393 1.296Z"/></mask><g fill="#640CA8" fill-rule="evenodd" clip-rule="evenodd" mask="url(#a)"><path d="M26.707 19.764h-.056c0 .032.025.057.056.057a.057.057 0 0 0 .057-.057.057.057 0 0 0-.057-.056.057.057 0 0 0-.056.056"/><path d="M26.65 19.764c0-.031.026-.057.057-.057.031 0 .057.026.057.057a.057.057 0 0 1-.057.057.057.057 0 0 1-.056-.057h-.057a.113.113 0 1 0 .226 0 .113.113 0 0 0-.226 0"/><path d="M26.594 19.764a.113.113 0 1 1 .226 0 .113.113 0 0 1-.226 0h-.057a.17.17 0 1 0 .34 0 .17.17 0 0 0-.34 0"/><path d="M26.537 19.764a.17.17 0 1 1 .34 0 .17.17 0 0 1-.34 0h-.056a.227.227 0 1 0 .453 0 .227.227 0 0 0-.454 0"/><path d="M26.48 19.764a.227.227 0 1 1 .455 0 .227.227 0 0 1-.454 0h-.057a.283.283 0 1 0 .566 0 .283.283 0 0 0-.566 0"/><path d="M26.424 19.764a.283.283 0 1 1 .566 0 .283.283 0 0 1-.566 0h-.057a.34.34 0 1 0 .68 0 .34.34 0 0 0-.68 0"/><path d="M26.367 19.764a.34.34 0 1 1 .68 0 .34.34 0 0 1-.68 0h-.056a.397.397 0 1 0 .793 0 .397.397 0 0 0-.793 0"/><path d="M26.31 19.764a.397.397 0 1 1 .795.001.397.397 0 0 1-.794 0h-.057a.453.453 0 1 0 .907 0 .453.453 0 0 0-.907 0"/><path d="M26.254 19.764a.453.453 0 1 1 .907 0 .453.453 0 0 1-.907 0h-.057a.51.51 0 1 0 1.02 0 .51.51 0 0 0-1.02 0"/><path d="M26.197 19.764a.51.51 0 1 1 1.02 0 .51.51 0 0 1-1.02 0h-.056a.567.567 0 1 0 1.133 0 .567.567 0 0 0-1.133 0"/><path d="M26.14 19.764a.567.567 0 1 1 1.134 0 .567.567 0 0 1-1.133 0h-.057a.623.623 0 1 0 1.247 0 .623.623 0 0 0-1.247 0"/><path d="M26.084 19.764a.623.623 0 1 1 1.247 0 .623.623 0 0 1-1.247 0h-.057a.68.68 0 1 0 1.36 0 .68.68 0 0 0-1.36 0"/><path d="M26.027 19.764a.68.68 0 1 1 1.36 0 .68.68 0 0 1-1.36 0h-.056a.737.737 0 1 0 1.473 0 .737.737 0 0 0-1.473 0"/><path d="M25.97 19.764a.737.737 0 1 1 1.474 0 .737.737 0 0 1-1.473 0h-.057a.793.793 0 1 0 1.587 0 .793.793 0 0 0-1.587 0"/><path d="M25.914 19.764a.793.793 0 1 1 1.587 0 .793.793 0 0 1-1.587 0h-.057a.85.85 0 1 0 1.7 0 .85.85 0 0 0-1.7 0"/><path d="M25.857 19.764a.85.85 0 1 1 1.701.001.85.85 0 0 1-1.7 0H25.8a.907.907 0 1 0 1.814 0 .907.907 0 0 0-1.814 0"/><path d="M25.8 19.764a.907.907 0 1 1 1.814 0 .907.907 0 0 1-1.813 0h-.057a.963.963 0 1 0 1.927 0 .963.963 0 0 0-1.927 0"/><path d="M25.744 19.764a.963.963 0 1 1 1.927 0 .963.963 0 0 1-1.927 0h-.057a1.02 1.02 0 1 0 2.04 0 1.02 1.02 0 0 0-2.04 0"/><path d="M25.687 19.764a1.02 1.02 0 1 1 2.04 0 1.02 1.02 0 0 1-2.04 0h-.056a1.077 1.077 0 1 0 2.153 0 1.077 1.077 0 0 0-2.153 0"/><path d="M25.63 19.764a1.077 1.077 0 1 1 2.154 0 1.077 1.077 0 0 1-2.153 0h-.057a1.133 1.133 0 1 0 2.266 0 1.133 1.133 0 0 0-2.266 0"/><path d="M25.574 19.764a1.133 1.133 0 1 1 2.266 0 1.133 1.133 0 0 1-2.266 0h-.057a1.19 1.19 0 1 0 2.38 0 1.19 1.19 0 0 0-2.38 0"/><path d="M25.517 19.764a1.19 1.19 0 1 1 2.38 0 1.19 1.19 0 0 1-2.38 0h-.056a1.247 1.247 0 1 0 2.493 0 1.247 1.247 0 0 0-2.493 0"/><path d="M25.46 19.764a1.247 1.247 0 1 1 2.494 0 1.247 1.247 0 0 1-2.493 0h-.057a1.303 1.303 0 1 0 2.607 0 1.303 1.303 0 0 0-2.607 0"/><path d="M25.404 19.764a1.303 1.303 0 1 1 2.607 0 1.303 1.303 0 0 1-2.607 0h-.057a1.36 1.36 0 1 0 2.72 0 1.36 1.36 0 0 0-2.72 0"/><path d="M25.347 19.764a1.36 1.36 0 1 1 2.72 0 1.36 1.36 0 0 1-2.72 0h-.056a1.417 1.417 0 1 0 2.833 0 1.417 1.417 0 0 0-2.833 0"/><path d="M25.29 19.764a1.417 1.417 0 1 1 2.834 0 1.417 1.417 0 0 1-2.833 0h-.057a1.473 1.473 0 1 0 2.946 0 1.473 1.473 0 0 0-2.946 0"/><path d="M25.234 19.765a1.473 1.473 0 1 1 2.946 0 1.473 1.473 0 0 1-2.946 0h-.057a1.53 1.53 0 1 0 3.06 0 1.53 1.53 0 0 0-3.06 0"/><path d="M25.177 19.764a1.53 1.53 0 1 1 3.06 0 1.53 1.53 0 0 1-3.06 0h-.056a1.586 1.586 0 1 0 3.172 0 1.586 1.586 0 0 0-3.172 0"/><path d="M25.12 19.764a1.586 1.586 0 1 1 3.173 0 1.586 1.586 0 0 1-3.172 0h-.057a1.643 1.643 0 1 0 3.286 0 1.643 1.643 0 0 0-3.286 0"/><path d="M25.064 19.764a1.643 1.643 0 1 1 3.286 0 1.643 1.643 0 0 1-3.286 0h-.057a1.7 1.7 0 1 0 3.4 0 1.7 1.7 0 0 0-3.4 0"/><path d="M25.007 19.764a1.7 1.7 0 1 1 3.4 0 1.7 1.7 0 0 1-3.4 0h-.056a1.756 1.756 0 1 0 3.512 0 1.756 1.756 0 0 0-3.512 0"/><path d="M24.95 19.764a1.756 1.756 0 1 1 3.514 0 1.756 1.756 0 0 1-3.513 0h-.057a1.813 1.813 0 1 0 3.627 0 1.813 1.813 0 0 0-3.627 0"/><path d="M24.894 19.764a1.813 1.813 0 1 1 3.627 0 1.813 1.813 0 0 1-3.627 0h-.057a1.87 1.87 0 1 0 3.74 0 1.87 1.87 0 0 0-3.74 0"/><path d="M24.837 19.764a1.87 1.87 0 1 1 3.74.001 1.87 1.87 0 0 1-3.74 0h-.056a1.926 1.926 0 1 0 3.853 0 1.926 1.926 0 0 0-3.853 0"/><path d="M24.78 19.764a1.926 1.926 0 1 1 3.854 0 1.926 1.926 0 0 1-3.853 0h-.057a1.983 1.983 0 1 0 3.967 0 1.983 1.983 0 0 0-3.967 0"/><path d="M24.724 19.764a1.983 1.983 0 1 1 3.967 0 1.983 1.983 0 0 1-3.967 0h-.057a2.04 2.04 0 1 0 4.08 0 2.04 2.04 0 0 0-4.08 0"/><path d="M24.667 19.764a2.04 2.04 0 1 1 4.08 0 2.04 2.04 0 0 1-4.08 0h-.056a2.097 2.097 0 1 0 4.193 0 2.097 2.097 0 0 0-4.193 0"/><path d="M24.61 19.764a2.097 2.097 0 1 1 4.194 0 2.097 2.097 0 0 1-4.193 0h-.057a2.153 2.153 0 1 0 4.306 0 2.153 2.153 0 0 0-4.306 0"/><path d="M24.554 19.764a2.153 2.153 0 1 1 4.307 0 2.153 2.153 0 0 1-4.307 0h-.057a2.21 2.21 0 1 0 4.42 0 2.21 2.21 0 0 0-4.42 0"/><path d="M24.497 19.765a2.21 2.21 0 1 1 4.42 0 2.21 2.21 0 0 1-4.42 0h-.056a2.267 2.267 0 1 0 4.534 0 2.267 2.267 0 0 0-4.534 0"/><path d="M24.44 19.764a2.267 2.267 0 1 1 4.534 0 2.267 2.267 0 0 1-4.533 0h-.057a2.323 2.323 0 1 0 4.646 0 2.323 2.323 0 0 0-4.646 0"/><path d="M24.384 19.764a2.324 2.324 0 1 1 4.647.001 2.324 2.324 0 0 1-4.647 0h-.057a2.38 2.38 0 1 0 4.76 0 2.38 2.38 0 0 0-4.76 0"/><path d="M24.327 19.764a2.38 2.38 0 1 1 4.76 0 2.38 2.38 0 0 1-4.76 0h-.056a2.437 2.437 0 1 0 4.874 0 2.437 2.437 0 0 0-4.874 0"/><path d="M24.27 19.764a2.437 2.437 0 1 1 4.874 0 2.437 2.437 0 0 1-4.873 0h-.057a2.493 2.493 0 1 0 4.986 0 2.493 2.493 0 0 0-4.986 0"/><path d="M24.214 19.764a2.493 2.493 0 1 1 4.986 0 2.493 2.493 0 0 1-4.986 0h-.057a2.55 2.55 0 1 0 5.1 0 2.55 2.55 0 0 0-5.1 0"/><path d="M24.157 19.764a2.55 2.55 0 1 1 5.1.001 2.55 2.55 0 0 1-5.1 0H24.1a2.607 2.607 0 1 0 5.213 0 2.607 2.607 0 0 0-5.213 0"/><path d="M24.1 19.764a2.606 2.606 0 1 1 5.214 0 2.606 2.606 0 0 1-5.213 0h-.057a2.663 2.663 0 1 0 5.326 0 2.663 2.663 0 0 0-5.326 0"/><path d="M24.044 19.764a2.663 2.663 0 1 1 5.326 0 2.663 2.663 0 0 1-5.326 0h-.057a2.72 2.72 0 1 0 5.44-.001 2.72 2.72 0 0 0-5.44.001"/><path d="M23.987 19.764a2.72 2.72 0 1 1 5.44.001 2.72 2.72 0 0 1-5.44-.001h-.056a2.777 2.777 0 1 0 5.553 0 2.777 2.777 0 0 0-5.553 0"/><path d="M23.93 19.764a2.777 2.777 0 1 1 5.554 0 2.777 2.777 0 0 1-5.553 0h-.057a2.833 2.833 0 1 0 5.666 0 2.833 2.833 0 0 0-5.666 0"/><path d="M23.874 19.765a2.833 2.833 0 1 1 5.666 0 2.833 2.833 0 0 1-5.666 0h-.057a2.89 2.89 0 1 0 5.78-.002 2.89 2.89 0 0 0-5.78.002"/><path d="M23.817 19.764a2.89 2.89 0 1 1 5.781.001 2.89 2.89 0 0 1-5.781 0h-.056a2.947 2.947 0 1 0 5.893 0 2.947 2.947 0 0 0-5.893 0"/><path d="M23.76 19.764a2.946 2.946 0 1 1 5.893 0 2.946 2.946 0 0 1-5.892 0h-.057a3.003 3.003 0 1 0 6.006 0 3.003 3.003 0 0 0-6.006 0"/><path d="M23.704 19.764a3.003 3.003 0 1 1 6.006 0 3.003 3.003 0 0 1-6.006 0h-.057a3.06 3.06 0 1 0 6.12 0 3.06 3.06 0 0 0-6.12 0"/><path d="M23.647 19.764a3.06 3.06 0 1 1 6.12 0 3.06 3.06 0 0 1-6.12 0h-.056a3.117 3.117 0 1 0 6.233 0 3.117 3.117 0 0 0-6.233 0"/><path d="M23.59 19.764a3.116 3.116 0 1 1 6.234 0 3.116 3.116 0 0 1-6.233 0h-.057a3.173 3.173 0 1 0 6.347 0 3.173 3.173 0 0 0-6.347 0"/><path d="M23.534 19.764a3.173 3.173 0 1 1 6.347 0 3.173 3.173 0 0 1-6.347 0h-.057a3.23 3.23 0 1 0 6.46 0 3.23 3.23 0 0 0-6.46 0"/><path d="M23.477 19.764a3.23 3.23 0 1 1 6.46 0 3.23 3.23 0 0 1-6.46 0h-.056a3.287 3.287 0 1 0 6.574 0 3.287 3.287 0 0 0-6.574 0"/><path d="M23.42 19.765a3.287 3.287 0 1 1 6.574 0 3.287 3.287 0 0 1-6.573 0h-.057a3.343 3.343 0 1 0 6.687 0 3.343 3.343 0 0 0-6.687 0"/><path d="M23.364 19.764a3.343 3.343 0 1 1 6.687 0 3.343 3.343 0 0 1-6.687 0h-.057a3.4 3.4 0 1 0 6.8 0 3.4 3.4 0 0 0-6.8 0"/><path d="M23.307 19.764a3.4 3.4 0 1 1 6.8 0 3.4 3.4 0 0 1-6.8 0h-.056a3.457 3.457 0 1 0 6.914 0 3.457 3.457 0 0 0-6.914 0"/><path d="M23.25 19.765a3.457 3.457 0 1 1 6.915 0 3.457 3.457 0 0 1-6.914 0h-.057a3.513 3.513 0 1 0 7.027 0 3.513 3.513 0 0 0-7.027 0"/><path d="M23.194 19.764a3.513 3.513 0 1 1 7.026 0 3.513 3.513 0 0 1-7.026 0h-.057a3.57 3.57 0 1 0 7.14 0 3.57 3.57 0 0 0-7.14 0"/><path d="M23.137 19.764a3.57 3.57 0 1 1 7.141 0 3.57 3.57 0 0 1-7.141 0h-.056a3.627 3.627 0 1 0 7.253 0 3.627 3.627 0 0 0-7.253 0"/><path d="M23.08 19.764a3.627 3.627 0 1 1 7.255 0 3.627 3.627 0 0 1-7.254 0h-.057a3.683 3.683 0 1 0 7.367 0 3.683 3.683 0 0 0-7.367 0"/><path d="M23.024 19.764a3.683 3.683 0 1 1 7.366 0 3.683 3.683 0 0 1-7.366 0h-.057a3.74 3.74 0 1 0 7.48 0 3.74 3.74 0 0 0-7.48 0"/><path d="M22.967 19.764a3.74 3.74 0 1 1 7.481 0 3.74 3.74 0 0 1-7.481 0h-.056a3.797 3.797 0 1 0 7.593 0 3.797 3.797 0 0 0-7.593 0"/><path d="M22.91 19.764a3.797 3.797 0 1 1 7.595 0 3.797 3.797 0 0 1-7.594 0h-.057a3.853 3.853 0 1 0 7.707 0 3.853 3.853 0 0 0-7.707 0"/><path d="M22.854 19.764a3.853 3.853 0 1 1 7.706 0 3.853 3.853 0 0 1-7.706 0h-.057a3.91 3.91 0 1 0 7.82 0 3.91 3.91 0 0 0-7.82 0"/><path d="M22.797 19.764a3.91 3.91 0 1 1 7.821 0 3.91 3.91 0 0 1-7.821 0h-.057a3.967 3.967 0 1 0 7.934 0 3.967 3.967 0 0 0-7.934 0"/><path d="M22.74 19.764a3.967 3.967 0 1 1 7.934 0 3.967 3.967 0 0 1-7.934 0h-.056a4.023 4.023 0 1 0 8.047 0 4.023 4.023 0 0 0-8.047 0"/><path d="M22.684 19.764a4.023 4.023 0 1 1 8.046 0 4.023 4.023 0 0 1-8.046 0h-.057a4.08 4.08 0 1 0 8.16 0 4.08 4.08 0 0 0-8.16 0"/><path d="M22.627 19.764a4.08 4.08 0 1 1 8.16 0 4.08 4.08 0 0 1-8.16 0h-.057a4.137 4.137 0 1 0 8.274 0 4.137 4.137 0 0 0-8.274 0"/><path d="M22.57 19.764a4.137 4.137 0 1 1 8.274 0 4.137 4.137 0 0 1-8.274 0h-.056a4.194 4.194 0 1 0 8.387 0 4.194 4.194 0 0 0-8.387 0"/><path d="M22.514 19.764a4.193 4.193 0 1 1 8.386 0 4.193 4.193 0 0 1-8.386 0h-.057a4.25 4.25 0 1 0 8.5 0 4.25 4.25 0 0 0-8.5 0"/><path d="M22.457 19.764a4.25 4.25 0 1 1 8.502.001 4.25 4.25 0 0 1-8.502 0H22.4a4.307 4.307 0 1 0 8.614-.001 4.307 4.307 0 0 0-8.614 0"/><path d="M22.4 19.764a4.307 4.307 0 1 1 8.615 0 4.307 4.307 0 0 1-8.615 0h-.056a4.364 4.364 0 1 0 8.727 0 4.364 4.364 0 0 0-8.727 0"/><path d="M22.344 19.764a4.363 4.363 0 1 1 8.726 0 4.363 4.363 0 0 1-8.726 0h-.057a4.42 4.42 0 1 0 8.84 0 4.42 4.42 0 0 0-8.84 0"/><path d="M22.287 19.764a4.42 4.42 0 1 1 8.84 0 4.42 4.42 0 0 1-8.84 0h-.057a4.477 4.477 0 1 0 8.955 0 4.477 4.477 0 0 0-8.955 0"/><path d="M22.23 19.764a4.477 4.477 0 1 1 8.955 0 4.477 4.477 0 0 1-8.955 0h-.056a4.533 4.533 0 1 0 9.066.001 4.533 4.533 0 0 0-9.066 0"/><path d="M22.174 19.764a4.533 4.533 0 1 1 9.067 0 4.533 4.533 0 1 1-9.067 0h-.057a4.59 4.59 0 1 0 9.18 0 4.59 4.59 0 0 0-9.18 0"/><path d="M22.117 19.764a4.59 4.59 0 1 1 9.18 0 4.59 4.59 0 0 1-9.18 0h-.057a4.647 4.647 0 1 0 9.295 0 4.647 4.647 0 0 0-9.295 0"/><path d="M22.06 19.764a4.647 4.647 0 1 1 9.295 0 4.647 4.647 0 0 1-9.295 0h-.056a4.703 4.703 0 1 0 9.407 0 4.703 4.703 0 0 0-9.407 0"/><path d="M22.004 19.764a4.703 4.703 0 1 1 9.407 0 4.703 4.703 0 0 1-9.407 0h-.057a4.76 4.76 0 1 0 9.52 0 4.76 4.76 0 0 0-9.52 0"/><path d="M21.947 19.764a4.76 4.76 0 1 1 9.52 0 4.76 4.76 0 0 1-9.52 0h-.057a4.817 4.817 0 1 0 9.635 0 4.817 4.817 0 0 0-9.635 0"/><path d="M21.89 19.764a4.817 4.817 0 1 1 9.635.001 4.817 4.817 0 0 1-9.635 0h-.056a4.874 4.874 0 1 0 9.747 0 4.874 4.874 0 0 0-9.747 0"/><path d="M21.834 19.764a4.874 4.874 0 1 1 9.747 0 4.874 4.874 0 0 1-9.747 0h-.057a4.93 4.93 0 1 0 9.861 0 4.93 4.93 0 0 0-9.861 0"/><path d="M21.777 19.764a4.93 4.93 0 1 1 9.861.001 4.93 4.93 0 0 1-9.861 0h-.057a4.987 4.987 0 1 0 9.974 0 4.987 4.987 0 0 0-9.974 0"/><path d="M21.72 19.764a4.987 4.987 0 1 1 9.974 0 4.987 4.987 0 0 1-9.974 0h-.056a5.044 5.044 0 1 0 10.087 0 5.044 5.044 0 0 0-10.087 0"/><path d="M21.664 19.764a5.044 5.044 0 1 1 10.087 0 5.044 5.044 0 0 1-10.087 0h-.057a5.1 5.1 0 1 0 10.2 0 5.1 5.1 0 0 0-10.2 0"/><path d="M21.607 19.764a5.1 5.1 0 1 1 10.201.001 5.1 5.1 0 0 1-10.201 0h-.057a5.157 5.157 0 1 0 10.314 0 5.157 5.157 0 0 0-10.314 0"/><path d="M21.55 19.764a5.157 5.157 0 1 1 10.314 0 5.157 5.157 0 0 1-10.314 0h-.056a5.214 5.214 0 1 0 10.427 0 5.214 5.214 0 0 0-10.427 0"/><path d="M21.494 19.764a5.214 5.214 0 1 1 10.427 0 5.214 5.214 0 0 1-10.427 0h-.057a5.27 5.27 0 1 0 10.541 0 5.27 5.27 0 0 0-10.541 0"/><path d="M21.437 19.764a5.27 5.27 0 1 1 10.541.001 5.27 5.27 0 0 1-10.541 0h-.057a5.327 5.327 0 1 0 10.654 0 5.327 5.327 0 0 0-10.654 0"/><path d="M21.38 19.764a5.327 5.327 0 1 1 10.654 0 5.327 5.327 0 0 1-10.654 0h-.056a5.384 5.384 0 1 0 10.767 0 5.384 5.384 0 0 0-10.767 0"/><path d="M21.324 19.764a5.384 5.384 0 1 1 10.767 0 5.384 5.384 0 0 1-10.767 0h-.057a5.44 5.44 0 1 0 10.88 0 5.44 5.44 0 0 0-10.88 0"/><path d="M21.267 19.764a5.44 5.44 0 1 1 10.88 0 5.44 5.44 0 0 1-10.88 0h-.057a5.497 5.497 0 1 0 10.994 0 5.497 5.497 0 0 0-10.994 0"/><path d="M21.21 19.764a5.497 5.497 0 1 1 10.994 0 5.497 5.497 0 0 1-10.994 0h-.056a5.554 5.554 0 1 0 11.107 0 5.554 5.554 0 0 0-11.107 0"/><path d="M21.154 19.764a5.554 5.554 0 1 1 11.108.001 5.554 5.554 0 0 1-11.108 0h-.057a5.61 5.61 0 1 0 11.22 0 5.61 5.61 0 0 0-11.22 0"/><path d="M21.097 19.764a5.61 5.61 0 1 1 11.22 0 5.61 5.61 0 0 1-11.22 0h-.057a5.667 5.667 0 1 0 11.335 0 5.667 5.667 0 0 0-11.335 0"/><path d="M21.04 19.764a5.667 5.667 0 1 1 11.334 0 5.667 5.667 0 0 1-11.334 0h-.056a5.724 5.724 0 1 0 11.447 0 5.724 5.724 0 0 0-11.447 0"/><path d="M20.984 19.764a5.724 5.724 0 1 1 11.448.001 5.724 5.724 0 0 1-11.448-.001h-.057a5.78 5.78 0 1 0 11.56 0 5.78 5.78 0 0 0-11.56 0"/><path d="M20.927 19.764a5.78 5.78 0 1 1 11.56 0 5.78 5.78 0 0 1-11.56 0h-.057a5.837 5.837 0 1 0 11.675 0 5.837 5.837 0 0 0-11.675 0"/><path d="M20.87 19.764a5.837 5.837 0 1 1 11.675 0 5.837 5.837 0 0 1-11.675 0h-.056a5.893 5.893 0 1 0 11.787 0 5.893 5.893 0 0 0-11.787 0"/><path d="M20.814 19.764a5.893 5.893 0 1 1 11.787 0 5.893 5.893 0 0 1-11.787 0h-.057a5.95 5.95 0 1 0 11.9 0 5.95 5.95 0 0 0-11.9 0"/><path d="M20.757 19.764a5.95 5.95 0 1 1 11.9 0 5.95 5.95 0 0 1-11.9 0H20.7a6.007 6.007 0 1 0 12.014 0 6.007 6.007 0 0 0-12.014 0"/><path d="M20.7 19.764a6.007 6.007 0 1 1 12.014 0 6.007 6.007 0 0 1-12.014 0h-.056a6.064 6.064 0 1 0 12.127 0 6.064 6.064 0 0 0-12.127 0"/><path d="M20.644 19.764a6.064 6.064 0 1 1 12.127 0 6.064 6.064 0 0 1-12.127 0h-.057a6.12 6.12 0 1 0 12.241 0 6.12 6.12 0 0 0-12.24 0"/><path d="M20.587 19.764a6.12 6.12 0 1 1 12.24 0 6.12 6.12 0 0 1-12.24 0h-.057a6.177 6.177 0 1 0 12.354 0 6.177 6.177 0 0 0-12.354 0"/><path d="M20.53 19.764a6.177 6.177 0 1 1 12.355.001 6.177 6.177 0 0 1-12.355 0h-.056a6.234 6.234 0 1 0 12.467-.001 6.234 6.234 0 0 0-12.467 0"/><path d="M20.474 19.764a6.234 6.234 0 1 1 12.467 0 6.234 6.234 0 0 1-12.467 0h-.057a6.29 6.29 0 1 0 12.581 0 6.29 6.29 0 0 0-12.58 0"/><path d="M20.417 19.764a6.29 6.29 0 1 1 12.58 0 6.29 6.29 0 0 1-12.58 0h-.057a6.347 6.347 0 1 0 12.694 0 6.347 6.347 0 0 0-12.694 0"/><path d="M20.36 19.764a6.347 6.347 0 1 1 12.694 0 6.347 6.347 0 0 1-12.694 0h-.056a6.404 6.404 0 1 0 12.807 0 6.404 6.404 0 0 0-12.807 0"/><path d="M20.304 19.765a6.404 6.404 0 1 1 12.807 0 6.404 6.404 0 0 1-12.807 0h-.057a6.46 6.46 0 1 0 12.92 0 6.46 6.46 0 0 0-12.92 0"/><path d="M20.247 19.764a6.46 6.46 0 1 1 12.92 0 6.46 6.46 0 0 1-12.92 0h-.057a6.517 6.517 0 1 0 13.034 0 6.517 6.517 0 0 0-13.034 0"/><path d="M20.19 19.764a6.517 6.517 0 1 1 13.034 0 6.517 6.517 0 0 1-13.033 0h-.057a6.574 6.574 0 1 0 13.147 0 6.574 6.574 0 0 0-13.147 0"/><path d="M20.134 19.764a6.574 6.574 0 1 1 13.147.001 6.574 6.574 0 0 1-13.147 0h-.057a6.63 6.63 0 1 0 13.26-.001 6.63 6.63 0 0 0-13.26 0"/><path d="M20.077 19.764a6.63 6.63 0 1 1 13.26 0 6.63 6.63 0 0 1-13.26 0h-.057a6.687 6.687 0 1 0 13.374 0 6.687 6.687 0 0 0-13.374 0"/><path d="M20.02 19.764a6.687 6.687 0 1 1 13.374 0 6.687 6.687 0 0 1-13.373 0h-.057a6.744 6.744 0 1 0 13.487 0 6.744 6.744 0 0 0-13.487 0"/><path d="M19.964 19.764a6.744 6.744 0 1 1 13.487 0 6.744 6.744 0 0 1-13.487 0h-.057a6.8 6.8 0 1 0 13.6 0 6.8 6.8 0 0 0-13.6 0"/><path d="M19.907 19.764a6.8 6.8 0 1 1 13.6 0 6.8 6.8 0 0 1-13.6 0h-.056a6.857 6.857 0 1 0 13.713 0 6.857 6.857 0 0 0-13.713 0"/><path d="M19.85 19.764a6.857 6.857 0 1 1 13.714 0 6.857 6.857 0 0 1-13.714 0h-.056a6.913 6.913 0 1 0 13.826 0 6.913 6.913 0 0 0-13.826 0"/><path d="M19.794 19.764a6.913 6.913 0 1 1 13.826 0 6.913 6.913 0 0 1-13.826 0h-.057a6.97 6.97 0 1 0 13.94 0 6.97 6.97 0 0 0-13.94 0"/><path d="M19.737 19.764a6.97 6.97 0 1 1 13.94 0 6.97 6.97 0 0 1-13.94 0h-.057a7.027 7.027 0 1 0 14.054 0 7.027 7.027 0 0 0-14.054 0"/><path d="M19.68 19.764a7.027 7.027 0 1 1 14.055 0 7.027 7.027 0 0 1-14.055 0h-.056a7.083 7.083 0 1 0 14.167 0 7.083 7.083 0 0 0-14.167 0"/><path d="M19.624 19.764a7.083 7.083 0 1 1 14.166 0 7.083 7.083 0 0 1-14.166 0h-.057a7.14 7.14 0 1 0 14.28 0 7.14 7.14 0 0 0-14.28 0"/><path d="M19.567 19.764a7.14 7.14 0 1 1 14.28 0 7.14 7.14 0 0 1-14.28 0h-.057a7.197 7.197 0 1 0 14.395 0 7.197 7.197 0 0 0-14.395 0"/><path d="M19.51 19.764a7.197 7.197 0 1 1 14.395.001 7.197 7.197 0 0 1-14.395 0h-.056a7.253 7.253 0 1 0 14.507 0 7.253 7.253 0 0 0-14.507 0"/><path d="M19.454 19.764a7.253 7.253 0 1 1 14.507 0 7.253 7.253 0 0 1-14.507 0h-.057a7.31 7.31 0 1 0 14.62 0 7.31 7.31 0 0 0-14.62 0"/><path d="M19.397 19.764a7.31 7.31 0 1 1 14.62 0 7.31 7.31 0 0 1-14.62 0h-.056a7.367 7.367 0 1 0 14.733 0 7.367 7.367 0 0 0-14.733 0"/><path d="M19.34 19.764a7.367 7.367 0 1 1 14.734 0 7.367 7.367 0 0 1-14.733 0h-.057a7.423 7.423 0 1 0 14.847 0 7.423 7.423 0 0 0-14.847 0"/><path d="M19.284 19.764a7.424 7.424 0 1 1 14.847 0 7.424 7.424 0 0 1-14.847 0h-.057a7.48 7.48 0 1 0 14.96 0 7.48 7.48 0 0 0-14.96 0"/><path d="M19.227 19.764a7.48 7.48 0 1 1 14.961 0 7.48 7.48 0 0 1-14.96 0h-.058a7.537 7.537 0 1 0 15.074 0 7.537 7.537 0 0 0-15.073 0"/><path d="M19.17 19.764a7.537 7.537 0 1 1 15.074 0 7.537 7.537 0 0 1-15.073 0h-.057a7.594 7.594 0 1 0 15.187 0 7.594 7.594 0 0 0-15.187 0"/><path d="M19.114 19.765a7.594 7.594 0 1 1 15.187 0 7.594 7.594 0 0 1-15.187 0h-.057a7.65 7.65 0 1 0 15.3 0 7.65 7.65 0 0 0-15.3 0"/><path d="M19.057 19.764a7.65 7.65 0 1 1 15.301.001 7.65 7.65 0 0 1-15.3 0H19a7.707 7.707 0 1 0 15.414 0 7.707 7.707 0 0 0-15.414 0"/><path d="M19 19.764a7.707 7.707 0 1 1 15.414 0 7.707 7.707 0 0 1-15.414 0h-.056a7.764 7.764 0 1 0 15.527 0 7.764 7.764 0 0 0-15.527 0"/><path d="M18.944 19.764a7.764 7.764 0 1 1 15.527.001 7.764 7.764 0 0 1-15.527 0h-.057a7.82 7.82 0 1 0 15.64 0 7.82 7.82 0 0 0-15.64 0"/><path d="M18.887 19.764a7.82 7.82 0 1 1 15.64 0 7.82 7.82 0 0 1-15.64 0h-.056a7.877 7.877 0 1 0 15.753 0 7.877 7.877 0 0 0-15.754 0"/><path d="M18.83 19.764a7.877 7.877 0 1 1 15.754 0 7.877 7.877 0 0 1-15.754 0h-.056a7.933 7.933 0 1 0 15.867 0 7.933 7.933 0 0 0-15.867 0"/><path d="M18.774 19.764a7.933 7.933 0 1 1 15.867 0 7.933 7.933 0 0 1-15.867 0h-.057a7.99 7.99 0 1 0 15.98 0 7.99 7.99 0 0 0-15.98 0"/><path d="M18.717 19.764a7.99 7.99 0 1 1 15.98 0 7.99 7.99 0 0 1-15.98 0h-.056a8.047 8.047 0 1 0 16.093 0 8.047 8.047 0 0 0-16.093 0"/><path d="M18.66 19.764a8.047 8.047 0 1 1 16.094 0 8.047 8.047 0 0 1-16.093 0h-.057a8.103 8.103 0 1 0 16.207 0 8.103 8.103 0 0 0-16.207 0"/><path d="M18.604 19.764a8.104 8.104 0 1 1 16.208.001 8.104 8.104 0 0 1-16.208 0h-.057a8.16 8.16 0 1 0 16.32 0 8.16 8.16 0 0 0-16.32 0"/><path d="M18.547 19.764a8.16 8.16 0 1 1 16.32 0 8.16 8.16 0 0 1-16.32 0h-.056a8.217 8.217 0 1 0 16.433 0 8.217 8.217 0 0 0-16.433 0"/><path d="M18.49 19.764a8.217 8.217 0 1 1 16.434 0 8.217 8.217 0 0 1-16.433 0h-.057a8.273 8.273 0 1 0 16.547 0 8.273 8.273 0 1 0-16.547 0"/><path d="M18.434 19.764a8.273 8.273 0 1 1 16.546 0 8.273 8.273 0 0 1-16.546 0h-.057a8.33 8.33 0 1 0 16.66 0 8.33 8.33 0 0 0-16.66 0"/><path d="M18.377 19.764a8.33 8.33 0 1 1 16.66 0 8.33 8.33 0 0 1-16.66 0h-.056a8.387 8.387 0 1 0 16.773 0 8.387 8.387 0 1 0-16.773 0"/><path d="M18.32 19.764a8.386 8.386 0 0 1 8.387-8.386 8.387 8.387 0 1 1 0 16.773 8.387 8.387 0 0 1-8.387-8.387h-.056a8.443 8.443 0 1 0 16.887 0 8.443 8.443 0 0 0-16.887 0"/><path d="M18.264 19.764a8.443 8.443 0 1 1 16.887 0 8.443 8.443 0 0 1-16.887 0h-.057a8.5 8.5 0 1 0 17 0 8.5 8.5 0 0 0-17 0"/><path d="M18.207 19.764a8.5 8.5 0 1 1 17 0 8.5 8.5 0 0 1-17 0h-.056a8.557 8.557 0 1 0 17.113 0 8.557 8.557 0 0 0-17.114 0"/><path d="M18.15 19.765a8.557 8.557 0 1 1 17.114 0 8.557 8.557 0 0 1-17.114 0h-.056a8.613 8.613 0 1 0 17.227 0 8.613 8.613 0 0 0-17.227 0"/><path d="M18.094 19.764a8.613 8.613 0 1 1 17.227 0 8.613 8.613 0 0 1-17.227 0h-.057a8.67 8.67 0 1 0 17.34 0 8.67 8.67 0 0 0-17.34 0"/><path d="M18.037 19.764a8.67 8.67 0 1 1 17.34 0 8.67 8.67 0 0 1-17.34 0h-.056a8.727 8.727 0 1 0 17.453 0 8.727 8.727 0 0 0-17.453 0"/><path d="M17.98 19.764a8.727 8.727 0 1 1 17.454 0 8.727 8.727 0 0 1-17.453 0h-.057a8.783 8.783 0 1 0 17.567 0 8.783 8.783 0 0 0-17.567 0"/><path d="M17.924 19.764a8.784 8.784 0 1 1 17.567 0 8.784 8.784 0 0 1-17.567 0h-.057a8.84 8.84 0 0 0 8.84 8.84 8.84 8.84 0 0 0 8.84-8.84 8.84 8.84 0 0 0-8.84-8.84 8.84 8.84 0 0 0-8.84 8.84"/><path d="M17.867 19.764a8.84 8.84 0 0 1 8.84-8.84 8.84 8.84 0 0 1 8.84 8.84 8.84 8.84 0 0 1-8.84 8.84 8.84 8.84 0 0 1-8.84-8.84h-.056a8.897 8.897 0 1 0 17.793 0 8.897 8.897 0 0 0-17.793 0"/><path d="M17.81 19.765a8.897 8.897 0 1 1 17.794 0 8.897 8.897 0 0 1-17.793 0h-.057a8.953 8.953 0 1 0 17.906 0 8.953 8.953 0 0 0-17.906 0"/><path d="M17.754 19.764a8.954 8.954 0 1 1 17.907 0 8.954 8.954 0 0 1-17.907 0h-.057a9.01 9.01 0 0 0 9.01 9.01 9.01 9.01 0 0 0 9.01-9.01 9.01 9.01 0 0 0-9.01-9.01 9.01 9.01 0 0 0-9.01 9.01"/><path d="M17.697 19.764a9.01 9.01 0 0 1 9.01-9.01 9.01 9.01 0 0 1 9.01 9.01 9.01 9.01 0 0 1-9.01 9.01 9.01 9.01 0 0 1-9.01-9.01h-.056a9.067 9.067 0 1 0 18.133 0 9.067 9.067 0 0 0-18.133 0"/><path d="M17.64 19.764a9.067 9.067 0 1 1 18.134 0 9.067 9.067 0 0 1-18.133 0h-.057a9.124 9.124 0 1 0 18.247 0 9.124 9.124 0 0 0-18.247 0"/><path d="M17.584 19.764a9.124 9.124 0 1 1 18.247 0 9.124 9.124 0 0 1-18.247 0h-.057a9.18 9.18 0 1 0 18.36 0 9.18 9.18 0 0 0-18.36 0"/><path d="M17.527 19.764a9.18 9.18 0 1 1 18.36 0 9.18 9.18 0 1 1-18.36 0h-.056a9.237 9.237 0 1 0 18.473 0 9.237 9.237 0 0 0-18.473 0"/><path d="M17.47 19.764a9.237 9.237 0 1 1 18.474 0 9.237 9.237 0 0 1-18.473 0h-.057a9.293 9.293 0 0 0 9.293 9.294 9.293 9.293 0 0 0 9.294-9.294 9.293 9.293 0 0 0-9.294-9.293 9.293 9.293 0 0 0-9.293 9.293"/><path d="M17.414 19.764a9.293 9.293 0 0 1 9.293-9.293 9.293 9.293 0 0 1 9.294 9.293 9.293 9.293 0 0 1-9.294 9.294 9.293 9.293 0 0 1-9.293-9.294h-.057a9.35 9.35 0 1 0 18.7 0 9.35 9.35 0 0 0-18.7 0"/><path d="M17.357 19.764a9.35 9.35 0 1 1 18.7 0 9.35 9.35 0 0 1-18.7 0h-.056a9.407 9.407 0 0 0 9.406 9.407 9.406 9.406 0 0 0 9.407-9.407 9.407 9.407 0 0 0-18.813 0"/><path d="M17.3 19.764a9.407 9.407 0 1 1 18.814 0 9.407 9.407 0 0 1-18.813 0h-.057a9.463 9.463 0 0 0 9.463 9.463 9.463 9.463 0 1 0-9.463-9.463"/><path d="M17.244 19.764a9.463 9.463 0 0 1 9.463-9.463 9.463 9.463 0 1 1-9.463 9.463h-.057a9.52 9.52 0 1 0 19.04 0 9.52 9.52 0 0 0-19.04 0"/><path d="M17.187 19.764a9.52 9.52 0 1 1 19.04 0 9.52 9.52 0 0 1-19.04 0h-.056c0 5.29 4.288 9.577 9.576 9.577 5.29 0 9.577-4.288 9.577-9.577a9.577 9.577 0 0 0-19.153 0"/><path d="M17.13 19.764a9.577 9.577 0 1 1 19.154 0 9.577 9.577 0 0 1-19.153 0h-.057a9.633 9.633 0 0 0 9.633 9.634c5.32 0 9.634-4.314 9.634-9.634s-4.313-9.633-9.634-9.633a9.633 9.633 0 0 0-9.633 9.633"/><path d="M17.074 19.764a9.633 9.633 0 0 1 9.633-9.633c5.32 0 9.634 4.313 9.634 9.633 0 5.32-4.313 9.633-9.634 9.633-5.32 0-9.633-4.313-9.633-9.633h-.057c0 5.352 4.339 9.69 9.69 9.69 5.352 0 9.69-4.338 9.69-9.69 0-5.351-4.338-9.69-9.69-9.69-5.351 0-9.69 4.339-9.69 9.69"/><path d="M17.017 19.764c0-5.351 4.339-9.69 9.69-9.69 5.352 0 9.69 4.339 9.69 9.69 0 5.352-4.338 9.69-9.69 9.69-5.351 0-9.69-4.338-9.69-9.69h-.056c0 5.383 4.363 9.747 9.746 9.747s9.747-4.364 9.747-9.747-4.364-9.746-9.747-9.746-9.746 4.363-9.746 9.746"/><path d="M16.96 19.764c0-5.383 4.364-9.746 9.747-9.746s9.747 4.363 9.747 9.746-4.364 9.747-9.747 9.747-9.747-4.364-9.747-9.747h-.056c0 5.414 4.389 9.803 9.803 9.803 5.414 0 9.804-4.389 9.804-9.803 0-5.414-4.39-9.803-9.804-9.803-5.414 0-9.803 4.389-9.803 9.803"/><path d="M16.904 19.764c0-5.414 4.389-9.803 9.803-9.803 5.414 0 9.804 4.389 9.804 9.803 0 5.414-4.39 9.803-9.804 9.803-5.414 0-9.803-4.389-9.803-9.803h-.057c0 5.446 4.415 9.86 9.86 9.86 5.446 0 9.86-4.414 9.86-9.86s-4.414-9.86-9.86-9.86c-5.445 0-9.86 4.414-9.86 9.86"/><path d="M16.847 19.764c0-5.445 4.415-9.86 9.86-9.86 5.446 0 9.86 4.415 9.86 9.86 0 5.446-4.414 9.86-9.86 9.86-5.445 0-9.86-4.414-9.86-9.86h-.056c0 5.477 4.44 9.917 9.916 9.917 5.477 0 9.917-4.44 9.917-9.917 0-5.476-4.44-9.917-9.917-9.917-5.477 0-9.916 4.44-9.916 9.917"/><path d="M16.79 19.764c0-5.477 4.44-9.917 9.917-9.917 5.477 0 9.917 4.44 9.917 9.917 0 5.477-4.44 9.917-9.917 9.917-5.477 0-9.916-4.44-9.916-9.917h-.057c0 5.508 4.465 9.974 9.973 9.974 5.508 0 9.974-4.466 9.974-9.974s-4.466-9.973-9.974-9.973-9.973 4.465-9.973 9.973"/><path d="M16.734 19.764c0-5.508 4.465-9.973 9.973-9.973 5.508 0 9.974 4.465 9.974 9.973 0 5.508-4.466 9.974-9.974 9.974s-9.973-4.466-9.973-9.974h-.057c0 5.54 4.491 10.03 10.03 10.03 5.54 0 10.03-4.49 10.03-10.03 0-5.54-4.49-10.03-10.03-10.03-5.539 0-10.03 4.49-10.03 10.03"/><path d="M16.677 19.764c0-5.54 4.491-10.03 10.03-10.03 5.54 0 10.03 4.49 10.03 10.03 0 5.54-4.49 10.03-10.03 10.03-5.539 0-10.03-4.49-10.03-10.03h-.056c0 5.571 4.516 10.087 10.086 10.087s10.087-4.516 10.087-10.087c0-5.57-4.516-10.087-10.087-10.087-5.57 0-10.086 4.517-10.086 10.087"/><path d="M16.62 19.764c0-5.57 4.517-10.087 10.087-10.087 5.57 0 10.087 4.517 10.087 10.087 0 5.57-4.516 10.087-10.087 10.087-5.57 0-10.086-4.516-10.086-10.087h-.057c0 5.602 4.541 10.144 10.143 10.144s10.144-4.542 10.144-10.144c0-5.601-4.542-10.143-10.144-10.143s-10.143 4.541-10.143 10.143"/><path d="M16.564 19.764c0-5.602 4.541-10.143 10.143-10.143s10.144 4.541 10.144 10.143-4.542 10.144-10.144 10.144-10.143-4.542-10.143-10.144h-.057c0 5.634 4.567 10.2 10.2 10.2 5.634 0 10.2-4.566 10.2-10.2 0-5.633-4.566-10.2-10.2-10.2-5.633 0-10.2 4.567-10.2 10.2"/><path d="M16.507 19.765c0-5.634 4.567-10.2 10.2-10.2 5.634 0 10.2 4.566 10.2 10.2 0 5.633-4.566 10.2-10.2 10.2-5.633 0-10.2-4.567-10.2-10.2h-.056c0 5.664 4.592 10.256 10.256 10.256 5.665 0 10.257-4.592 10.257-10.256 0-5.665-4.592-10.258-10.257-10.258-5.664 0-10.256 4.593-10.256 10.258"/><path d="M16.45 19.764c0-5.664 4.593-10.257 10.257-10.257 5.665 0 10.257 4.593 10.257 10.257 0 5.665-4.592 10.258-10.257 10.258-5.664 0-10.256-4.593-10.256-10.258h-.057c0 5.697 4.617 10.314 10.313 10.314 5.696 0 10.314-4.617 10.314-10.314 0-5.696-4.618-10.313-10.314-10.313s-10.313 4.617-10.313 10.313"/><path d="M16.394 19.764c0-5.696 4.617-10.313 10.313-10.313 5.696 0 10.314 4.617 10.314 10.313 0 5.697-4.618 10.314-10.314 10.314s-10.313-4.617-10.313-10.314h-.057c0 5.728 4.643 10.37 10.37 10.37 5.727 0 10.37-4.642 10.37-10.37 0-5.727-4.643-10.37-10.37-10.37-5.727 0-10.37 4.643-10.37 10.37"/><path d="M16.337 19.764c0-5.727 4.643-10.37 10.37-10.37 5.727 0 10.37 4.643 10.37 10.37 0 5.727-4.643 10.37-10.37 10.37-5.727 0-10.37-4.643-10.37-10.37h-.056c0 5.759 4.668 10.427 10.426 10.427 5.759 0 10.427-4.668 10.427-10.427 0-5.758-4.668-10.427-10.427-10.427-5.758 0-10.426 4.669-10.426 10.427"/><path d="M16.28 19.764c0-5.758 4.669-10.427 10.427-10.427 5.759 0 10.427 4.669 10.427 10.427s-4.668 10.427-10.427 10.427c-5.758 0-10.426-4.669-10.426-10.427h-.057c0 5.79 4.693 10.484 10.483 10.484 5.79 0 10.484-4.694 10.484-10.484S32.497 9.281 26.707 9.281s-10.483 4.693-10.483 10.483"/><path d="M16.224 19.764c0-5.79 4.693-10.483 10.483-10.483 5.79 0 10.484 4.693 10.484 10.483 0 5.79-4.694 10.484-10.484 10.484s-10.483-4.694-10.483-10.484h-.057c0 5.821 4.72 10.54 10.54 10.54 5.821 0 10.54-4.719 10.54-10.54 0-5.82-4.719-10.54-10.54-10.54-5.82 0-10.54 4.72-10.54 10.54"/><path d="M16.167 19.764c0-5.82 4.72-10.54 10.54-10.54 5.821 0 10.54 4.72 10.54 10.54 0 5.821-4.719 10.54-10.54 10.54-5.82 0-10.54-4.719-10.54-10.54h-.057c0 5.852 4.745 10.597 10.597 10.597 5.853 0 10.597-4.745 10.597-10.597 0-5.852-4.744-10.597-10.597-10.597-5.852 0-10.597 4.745-10.597 10.597"/><path d="M16.11 19.764c0-5.852 4.745-10.597 10.597-10.597 5.853 0 10.597 4.745 10.597 10.597 0 5.852-4.744 10.597-10.597 10.597-5.852 0-10.597-4.745-10.597-10.597h-.056c0 5.884 4.77 10.654 10.653 10.654 5.884 0 10.654-4.77 10.654-10.654S32.59 9.111 26.707 9.111s-10.653 4.77-10.653 10.653"/><path d="M16.054 19.764c0-5.883 4.77-10.653 10.653-10.653 5.884 0 10.654 4.77 10.654 10.653 0 5.884-4.77 10.654-10.654 10.654s-10.653-4.77-10.653-10.654h-.057c0 5.915 4.795 10.71 10.71 10.71 5.915 0 10.71-4.795 10.71-10.71 0-5.915-4.795-10.71-10.71-10.71-5.915 0-10.71 4.795-10.71 10.71"/><path d="M15.997 19.764c0-5.915 4.795-10.71 10.71-10.71 5.915 0 10.71 4.795 10.71 10.71 0 5.915-4.795 10.71-10.71 10.71-5.915 0-10.71-4.795-10.71-10.71h-.057c0 5.946 4.82 10.767 10.767 10.767 5.947 0 10.767-4.82 10.767-10.767 0-5.946-4.82-10.767-10.767-10.767-5.946 0-10.767 4.82-10.767 10.767"/><path d="M15.94 19.764c0-5.946 4.82-10.767 10.767-10.767 5.947 0 10.767 4.82 10.767 10.767 0 5.947-4.82 10.767-10.767 10.767-5.946 0-10.767-4.82-10.767-10.767h-.056c0 5.978 4.846 10.824 10.823 10.824 5.978 0 10.824-4.846 10.824-10.824 0-5.977-4.846-10.823-10.824-10.823-5.977 0-10.823 4.846-10.823 10.823"/><path d="M15.884 19.764c0-5.977 4.846-10.823 10.823-10.823 5.978 0 10.824 4.846 10.824 10.823 0 5.978-4.846 10.824-10.824 10.824-5.977 0-10.823-4.846-10.823-10.824h-.057c0 6.01 4.871 10.88 10.88 10.88 6.01 0 10.88-4.87 10.88-10.88 0-6.008-4.87-10.88-10.88-10.88-6.009 0-10.88 4.871-10.88 10.88"/><path d="M15.827 19.764c0-6.008 4.872-10.88 10.88-10.88 6.01 0 10.88 4.871 10.88 10.88 0 6.01-4.87 10.88-10.88 10.88-6.008 0-10.88-4.87-10.88-10.88h-.057c0 6.04 4.897 10.937 10.937 10.937 6.04 0 10.937-4.897 10.937-10.937 0-6.04-4.896-10.937-10.937-10.937-6.04 0-10.937 4.897-10.937 10.937"/><path d="M15.77 19.764c0-6.04 4.897-10.937 10.937-10.937 6.04 0 10.937 4.897 10.937 10.937 0 6.04-4.897 10.937-10.937 10.937-6.04 0-10.937-4.896-10.937-10.937h-.056c0 6.072 4.922 10.994 10.993 10.994 6.072 0 10.994-4.922 10.994-10.994 0-6.071-4.922-10.993-10.994-10.993-6.071 0-10.993 4.922-10.993 10.993"/><path d="M15.714 19.764c0-6.071 4.922-10.993 10.993-10.993 6.072 0 10.994 4.922 10.994 10.993 0 6.072-4.922 10.994-10.994 10.994-6.071 0-10.993-4.922-10.993-10.994h-.057c0 6.103 4.948 11.05 11.05 11.05 6.103 0 11.05-4.947 11.05-11.05 0-6.102-4.947-11.05-11.05-11.05-6.102 0-11.05 4.948-11.05 11.05"/><path d="M15.657 19.764c0-6.102 4.948-11.05 11.05-11.05 6.103 0 11.05 4.948 11.05 11.05 0 6.103-4.947 11.05-11.05 11.05-6.102 0-11.05-4.947-11.05-11.05H15.6c0 6.134 4.973 11.107 11.107 11.107 6.134 0 11.107-4.973 11.107-11.107 0-6.134-4.973-11.107-11.107-11.107-6.134 0-11.107 4.973-11.107 11.107"/><path d="M15.6 19.764c0-6.134 4.973-11.107 11.107-11.107 6.134 0 11.107 4.973 11.107 11.107 0 6.134-4.973 11.107-11.107 11.107-6.134 0-11.107-4.973-11.107-11.107h-.056c0 6.166 4.998 11.164 11.163 11.164s11.164-4.998 11.164-11.164c0-6.165-4.999-11.163-11.164-11.163S15.544 13.6 15.544 19.764"/><path d="M15.544 19.764c0-6.165 4.998-11.163 11.163-11.163S37.871 13.6 37.871 19.764c0 6.166-4.999 11.164-11.164 11.164S15.544 25.93 15.544 19.764h-.057c0 6.197 5.024 11.22 11.22 11.22 6.197 0 11.22-5.023 11.22-11.22 0-6.196-5.023-11.22-11.22-11.22-6.197 0-11.22 5.024-11.22 11.22"/><path d="M15.487 19.764c0-6.197 5.023-11.22 11.22-11.22 6.197 0 11.22 5.023 11.22 11.22 0 6.197-5.023 11.22-11.22 11.22-6.197 0-11.22-5.023-11.22-11.22h-.057c0 6.228 5.05 11.277 11.277 11.277 6.228 0 11.277-5.05 11.277-11.277 0-6.228-5.049-11.277-11.277-11.277-6.228 0-11.277 5.05-11.277 11.277"/><path d="M15.43 19.764c0-6.228 5.05-11.277 11.277-11.277 6.228 0 11.277 5.05 11.277 11.277 0 6.228-5.049 11.277-11.277 11.277-6.228 0-11.277-5.049-11.277-11.277h-.056c0 6.26 5.074 11.334 11.333 11.334 6.26 0 11.334-5.074 11.334-11.334S32.967 8.431 26.707 8.431c-6.259 0-11.333 5.074-11.333 11.333"/><path d="M15.374 19.764c0-6.26 5.074-11.333 11.333-11.333 6.26 0 11.334 5.074 11.334 11.333 0 6.26-5.074 11.334-11.334 11.334-6.259 0-11.333-5.074-11.333-11.334h-.057c0 6.29 5.1 11.39 11.39 11.39 6.29 0 11.39-5.1 11.39-11.39 0-6.29-5.1-11.39-11.39-11.39-6.29 0-11.39 5.1-11.39 11.39"/><path d="M15.317 19.764c0-6.29 5.1-11.39 11.39-11.39 6.29 0 11.39 5.1 11.39 11.39 0 6.29-5.1 11.39-11.39 11.39-6.29 0-11.39-5.1-11.39-11.39h-.057c0 6.322 5.126 11.447 11.447 11.447 6.322 0 11.447-5.125 11.447-11.447 0-6.321-5.125-11.447-11.447-11.447-6.322 0-11.447 5.126-11.447 11.447"/><path d="M15.26 19.764c0-6.321 5.126-11.447 11.447-11.447 6.322 0 11.447 5.126 11.447 11.447 0 6.322-5.125 11.447-11.447 11.447-6.322 0-11.447-5.125-11.447-11.447h-.056c0 6.354 5.15 11.504 11.503 11.504s11.504-5.15 11.504-11.504c0-6.353-5.15-11.503-11.504-11.503-6.353 0-11.503 5.15-11.503 11.503"/><path d="M15.204 19.764c0-6.353 5.15-11.503 11.503-11.503s11.504 5.15 11.504 11.503c0 6.354-5.15 11.504-11.504 11.504-6.353 0-11.503-5.15-11.503-11.504h-.057c0 6.385 5.176 11.56 11.56 11.56 6.385 0 11.56-5.175 11.56-11.56 0-6.384-5.175-11.56-11.56-11.56-6.384 0-11.56 5.176-11.56 11.56"/><path d="M15.147 19.764c0-6.384 5.176-11.56 11.56-11.56 6.385 0 11.56 5.176 11.56 11.56 0 6.385-5.175 11.56-11.56 11.56-6.384 0-11.56-5.175-11.56-11.56h-.057c0 6.416 5.202 11.617 11.617 11.617 6.416 0 11.617-5.201 11.617-11.617 0-6.415-5.201-11.617-11.617-11.617-6.415 0-11.617 5.202-11.617 11.617"/><path d="M15.09 19.764c0-6.415 5.202-11.617 11.617-11.617 6.416 0 11.617 5.202 11.617 11.617 0 6.416-5.201 11.617-11.617 11.617-6.415 0-11.617-5.201-11.617-11.617h-.056c0 6.448 5.226 11.674 11.673 11.674s11.674-5.226 11.674-11.674c0-6.447-5.227-11.673-11.674-11.673-6.447 0-11.673 5.226-11.673 11.673"/><path d="M15.034 19.764c0-6.447 5.226-11.674 11.673-11.674s11.674 5.227 11.674 11.674c0 6.447-5.227 11.674-11.674 11.674-6.447 0-11.673-5.227-11.673-11.674h-.057c0 6.478 5.252 11.73 11.73 11.73 6.478 0 11.73-5.252 11.73-11.73 0-6.478-5.252-11.73-11.73-11.73-6.478 0-11.73 5.252-11.73 11.73"/><path d="M14.977 19.765c0-6.479 5.252-11.73 11.73-11.73 6.478 0 11.73 5.251 11.73 11.73 0 6.478-5.252 11.73-11.73 11.73-6.478 0-11.73-5.252-11.73-11.73h-.057c0 6.51 5.277 11.787 11.787 11.787 6.51 0 11.787-5.278 11.787-11.787 0-6.51-5.277-11.787-11.787-11.787-6.51 0-11.787 5.277-11.787 11.787"/><path d="M14.92 19.764c0-6.51 5.277-11.787 11.787-11.787 6.51 0 11.787 5.277 11.787 11.787 0 6.51-5.277 11.787-11.787 11.787-6.51 0-11.787-5.277-11.787-11.787h-.056c0 6.541 5.302 11.844 11.843 11.844s11.844-5.303 11.844-11.844c0-6.54-5.303-11.843-11.844-11.843-6.54 0-11.843 5.302-11.843 11.843"/><path d="M14.864 19.764c0-6.54 5.302-11.843 11.843-11.843s11.844 5.302 11.844 11.843-5.303 11.844-11.844 11.844c-6.54 0-11.843-5.303-11.843-11.844h-.057c0 6.572 5.328 11.9 11.9 11.9 6.573 0 11.9-5.328 11.9-11.9s-5.327-11.9-11.9-11.9c-6.572 0-11.9 5.328-11.9 11.9"/><path d="M14.807 19.764c0-6.572 5.328-11.9 11.9-11.9 6.573 0 11.9 5.328 11.9 11.9s-5.327 11.9-11.9 11.9c-6.572 0-11.9-5.328-11.9-11.9h-.057c0 6.604 5.354 11.957 11.957 11.957 6.604 0 11.957-5.353 11.957-11.957 0-6.603-5.353-11.957-11.957-11.957-6.603 0-11.957 5.354-11.957 11.957"/><path d="M14.75 19.764c0-6.603 5.354-11.957 11.957-11.957 6.604 0 11.957 5.354 11.957 11.957 0 6.604-5.353 11.957-11.957 11.957-6.603 0-11.957-5.353-11.957-11.957h-.056c0 6.635 5.379 12.014 12.013 12.014 6.635 0 12.014-5.379 12.014-12.014 0-6.634-5.379-12.013-12.014-12.013-6.634 0-12.013 5.378-12.013 12.013"/><path d="M14.694 19.764c0-6.634 5.379-12.013 12.013-12.013 6.635 0 12.014 5.378 12.014 12.013s-5.379 12.014-12.014 12.014c-6.634 0-12.013-5.379-12.013-12.014h-.057c0 6.666 5.404 12.07 12.07 12.07s12.07-5.404 12.07-12.07-5.404-12.07-12.07-12.07-12.07 5.404-12.07 12.07"/><path d="M14.637 19.764c0-6.666 5.404-12.07 12.07-12.07s12.07 5.404 12.07 12.07-5.404 12.07-12.07 12.07-12.07-5.404-12.07-12.07h-.057c0 6.698 5.43 12.127 12.127 12.127 6.698 0 12.127-5.43 12.127-12.127 0-6.697-5.43-12.127-12.127-12.127-6.697 0-12.127 5.43-12.127 12.127"/><path d="M14.58 19.764c0-6.697 5.43-12.127 12.127-12.127 6.698 0 12.127 5.43 12.127 12.127 0 6.698-5.43 12.127-12.127 12.127-6.697 0-12.127-5.43-12.127-12.127h-.056c0 6.729 5.455 12.184 12.183 12.184 6.729 0 12.184-5.455 12.184-12.184 0-6.728-5.455-12.183-12.184-12.183-6.728 0-12.183 5.455-12.183 12.183"/><path d="M14.524 19.764c0-6.728 5.455-12.183 12.183-12.183 6.729 0 12.184 5.455 12.184 12.183 0 6.729-5.455 12.184-12.184 12.184-6.728 0-12.183-5.455-12.183-12.184h-.057c0 6.76 5.48 12.24 12.24 12.24s12.24-5.48 12.24-12.24-5.48-12.24-12.24-12.24-12.24 5.48-12.24 12.24"/><path d="M14.467 19.764c0-6.76 5.48-12.24 12.24-12.24s12.24 5.48 12.24 12.24-5.48 12.24-12.24 12.24-12.24-5.48-12.24-12.24h-.057c0 6.791 5.506 12.297 12.297 12.297s12.297-5.506 12.297-12.297S33.498 7.467 26.707 7.467 14.41 12.973 14.41 19.764"/><path d="M14.41 19.764c0-6.791 5.506-12.297 12.297-12.297s12.297 5.506 12.297 12.297-5.506 12.297-12.297 12.297S14.41 26.555 14.41 19.764h-.056c0 6.823 5.53 12.354 12.353 12.354 6.823 0 12.354-5.531 12.354-12.354 0-6.822-5.531-12.353-12.354-12.353-6.822 0-12.353 5.53-12.353 12.353"/><path d="M14.354 19.764c0-6.822 5.53-12.353 12.353-12.353 6.823 0 12.354 5.53 12.354 12.353 0 6.823-5.53 12.354-12.354 12.354-6.822 0-12.353-5.53-12.353-12.354h-.057c0 6.854 5.556 12.41 12.41 12.41s12.41-5.556 12.41-12.41-5.556-12.41-12.41-12.41-12.41 5.556-12.41 12.41"/><path d="M14.297 19.764c0-6.854 5.556-12.41 12.41-12.41s12.41 5.556 12.41 12.41-5.556 12.41-12.41 12.41-12.41-5.556-12.41-12.41h-.057c0 6.885 5.582 12.467 12.467 12.467 6.885 0 12.467-5.582 12.467-12.467 0-6.885-5.582-12.467-12.467-12.467-6.885 0-12.467 5.582-12.467 12.467"/><path d="M14.24 19.764c0-6.885 5.582-12.467 12.467-12.467 6.885 0 12.467 5.582 12.467 12.467 0 6.885-5.582 12.467-12.467 12.467-6.885 0-12.467-5.582-12.467-12.467h-.056c0 6.916 5.607 12.524 12.523 12.524 6.917 0 12.524-5.607 12.524-12.524 0-6.916-5.607-12.523-12.524-12.523-6.916 0-12.523 5.607-12.523 12.523"/><path d="M14.184 19.764c0-6.916 5.607-12.523 12.523-12.523 6.917 0 12.524 5.607 12.524 12.523 0 6.916-5.607 12.524-12.524 12.524-6.916 0-12.523-5.608-12.523-12.524h-.057c0 6.948 5.632 12.58 12.58 12.58s12.58-5.632 12.58-12.58c0-6.947-5.632-12.58-12.58-12.58s-12.58 5.632-12.58 12.58"/><path d="M14.127 19.765c0-6.948 5.632-12.58 12.58-12.58s12.58 5.632 12.58 12.58c0 6.947-5.632 12.58-12.58 12.58s-12.58-5.633-12.58-12.58h-.057c0 6.978 5.658 12.636 12.637 12.636 6.98 0 12.637-5.658 12.637-12.637 0-6.978-5.658-12.636-12.637-12.636S14.07 12.786 14.07 19.765"/><path d="M14.07 19.764c0-6.978 5.658-12.636 12.637-12.636 6.98 0 12.637 5.658 12.637 12.636 0 6.98-5.658 12.637-12.637 12.637S14.07 26.743 14.07 19.764h-.056c0 7.01 5.683 12.694 12.693 12.694s12.694-5.683 12.694-12.694c0-7.01-5.683-12.693-12.694-12.693-7.01 0-12.693 5.683-12.693 12.693"/><path d="M14.014 19.764c0-7.01 5.683-12.693 12.693-12.693s12.694 5.683 12.694 12.693-5.683 12.694-12.694 12.694c-7.01 0-12.693-5.683-12.693-12.694h-.057c0 7.042 5.709 12.75 12.75 12.75 7.042 0 12.75-5.708 12.75-12.75 0-7.041-5.708-12.75-12.75-12.75-7.041 0-12.75 5.709-12.75 12.75"/><path d="M13.957 19.764c0-7.041 5.709-12.75 12.75-12.75 7.042 0 12.75 5.708 12.75 12.75s-5.708 12.75-12.75 12.75c-7.041 0-12.75-5.708-12.75-12.75H13.9c0 7.073 5.734 12.807 12.807 12.807s12.807-5.734 12.807-12.807S33.78 6.957 26.707 6.957 13.9 12.691 13.9 19.764"/><path d="M13.9 19.764c0-7.073 5.734-12.807 12.807-12.807s12.807 5.734 12.807 12.807-5.734 12.807-12.807 12.807S13.9 26.837 13.9 19.764h-.056c0 7.104 5.759 12.864 12.863 12.864 7.105 0 12.864-5.76 12.864-12.864 0-7.104-5.76-12.863-12.864-12.863-7.104 0-12.863 5.759-12.863 12.863"/><path d="M13.844 19.764c0-7.104 5.759-12.863 12.863-12.863 7.105 0 12.864 5.759 12.864 12.863 0 7.104-5.76 12.864-12.864 12.864-7.104 0-12.863-5.76-12.863-12.864h-.057c0 7.136 5.785 12.92 12.92 12.92 7.136 0 12.92-5.784 12.92-12.92 0-7.135-5.784-12.92-12.92-12.92-7.135 0-12.92 5.785-12.92 12.92"/><path d="M13.787 19.764c0-7.135 5.785-12.92 12.92-12.92 7.136 0 12.92 5.785 12.92 12.92 0 7.136-5.784 12.92-12.92 12.92-7.135 0-12.92-5.784-12.92-12.92h-.057c0 7.167 5.81 12.977 12.977 12.977 7.167 0 12.977-5.81 12.977-12.977 0-7.166-5.81-12.977-12.977-12.977-7.166 0-12.977 5.81-12.977 12.977"/><path d="M13.73 19.764c0-7.166 5.81-12.977 12.977-12.977 7.167 0 12.977 5.81 12.977 12.977 0 7.167-5.81 12.977-12.977 12.977-7.166 0-12.977-5.81-12.977-12.977h-.056c0 7.198 5.835 13.034 13.033 13.034 7.198 0 13.034-5.836 13.034-13.034S33.905 6.731 26.707 6.731s-13.033 5.835-13.033 13.033"/><path d="M13.674 19.764c0-7.198 5.835-13.033 13.033-13.033 7.198 0 13.034 5.835 13.034 13.033 0 7.198-5.836 13.034-13.034 13.034s-13.033-5.836-13.033-13.034h-.057c0 7.23 5.861 13.09 13.09 13.09 7.23 0 13.09-5.86 13.09-13.09 0-7.229-5.86-13.09-13.09-13.09-7.229 0-13.09 5.861-13.09 13.09"/><path d="M13.617 19.764c0-7.229 5.86-13.09 13.09-13.09 7.23 0 13.09 5.861 13.09 13.09 0 7.23-5.86 13.09-13.09 13.09-7.23 0-13.09-5.86-13.09-13.09h-.057c0 7.261 5.886 13.147 13.147 13.147s13.147-5.886 13.147-13.147c0-7.26-5.886-13.147-13.147-13.147-7.26 0-13.147 5.887-13.147 13.147"/><path d="M13.56 19.765c0-7.261 5.886-13.147 13.147-13.147s13.147 5.886 13.147 13.147c0 7.26-5.886 13.146-13.147 13.146-7.26 0-13.147-5.886-13.147-13.146h-.056c0 7.291 5.911 13.203 13.203 13.203s13.204-5.912 13.204-13.203c0-7.292-5.912-13.204-13.204-13.204-7.292 0-13.203 5.912-13.203 13.204"/><path d="M13.504 19.764c0-7.292 5.911-13.203 13.203-13.203s13.204 5.911 13.204 13.203-5.912 13.204-13.204 13.204c-7.292 0-13.203-5.912-13.203-13.204h-.057c0 7.324 5.937 13.26 13.26 13.26 7.324 0 13.26-5.936 13.26-13.26 0-7.323-5.936-13.26-13.26-13.26-7.323 0-13.26 5.937-13.26 13.26"/><path d="M13.447 19.764c0-7.323 5.937-13.26 13.26-13.26 7.324 0 13.26 5.937 13.26 13.26 0 7.323-5.936 13.26-13.26 13.26-7.323 0-13.26-5.937-13.26-13.26h-.057c0 7.355 5.962 13.317 13.317 13.317s13.317-5.962 13.317-13.317S34.062 6.447 26.707 6.447 13.39 12.41 13.39 19.764"/><path d="M13.39 19.764c0-7.354 5.963-13.317 13.317-13.317 7.355 0 13.317 5.963 13.317 13.317 0 7.355-5.962 13.317-13.317 13.317-7.354 0-13.317-5.962-13.317-13.317h-.056c0 7.386 5.987 13.374 13.373 13.374 7.386 0 13.374-5.988 13.374-13.374 0-7.385-5.988-13.373-13.374-13.373s-13.373 5.988-13.373 13.373"/><path d="M13.334 19.764c0-7.385 5.987-13.373 13.373-13.373 7.386 0 13.374 5.988 13.374 13.373 0 7.386-5.988 13.374-13.374 13.374S13.334 27.15 13.334 19.764h-.057c0 7.418 6.013 13.43 13.43 13.43s13.43-6.012 13.43-13.43c0-7.416-6.013-13.43-13.43-13.43s-13.43 6.014-13.43 13.43"/><path d="M13.277 19.764c0-7.417 6.013-13.43 13.43-13.43s13.43 6.013 13.43 13.43c0 7.418-6.013 13.43-13.43 13.43s-13.43-6.013-13.43-13.43h-.057c0 7.449 6.039 13.487 13.487 13.487 7.449 0 13.487-6.038 13.487-13.487 0-7.448-6.038-13.487-13.487-13.487-7.448 0-13.487 6.039-13.487 13.487"/><path d="M13.22 19.764c0-7.448 6.039-13.486 13.487-13.486 7.449 0 13.487 6.038 13.487 13.486 0 7.449-6.038 13.487-13.487 13.487-7.448 0-13.487-6.038-13.487-13.487h-.056c0 7.48 6.064 13.544 13.543 13.544 7.48 0 13.544-6.064 13.544-13.544S34.187 6.221 26.707 6.221s-13.543 6.064-13.543 13.543"/><path d="M13.164 19.765c0-7.48 6.064-13.544 13.543-13.544 7.48 0 13.544 6.064 13.544 13.544s-6.064 13.543-13.544 13.543-13.543-6.064-13.543-13.543h-.057c0 7.51 6.089 13.6 13.6 13.6 7.511 0 13.6-6.09 13.6-13.6 0-7.512-6.089-13.6-13.6-13.6-7.511 0-13.6 6.088-13.6 13.6"/><path d="M13.107 19.764c0-7.51 6.089-13.6 13.6-13.6 7.511 0 13.6 6.09 13.6 13.6 0 7.512-6.089 13.6-13.6 13.6-7.511 0-13.6-6.088-13.6-13.6h-.057c0 7.543 6.115 13.657 13.657 13.657s13.657-6.114 13.657-13.657c0-7.542-6.114-13.657-13.657-13.657-7.542 0-13.657 6.115-13.657 13.657"/><path d="M13.05 19.764c0-7.542 6.115-13.656 13.657-13.656s13.657 6.114 13.657 13.656c0 7.543-6.114 13.657-13.657 13.657-7.542 0-13.657-6.114-13.657-13.657h-.056c0 7.574 6.14 13.714 13.713 13.714 7.574 0 13.714-6.14 13.714-13.714 0-7.573-6.14-13.713-13.714-13.713-7.574 0-13.713 6.14-13.713 13.713"/><path d="M12.994 19.764c0-7.574 6.14-13.713 13.713-13.713 7.574 0 13.714 6.14 13.714 13.713 0 7.574-6.14 13.714-13.714 13.714-7.574 0-13.713-6.14-13.713-13.714h-.057c0 7.605 6.165 13.77 13.77 13.77 7.605 0 13.77-6.165 13.77-13.77 0-7.605-6.165-13.77-13.77-13.77-7.605 0-13.77 6.165-13.77 13.77"/><path d="M12.937 19.764c0-7.605 6.165-13.77 13.77-13.77 7.605 0 13.77 6.165 13.77 13.77 0 7.605-6.165 13.77-13.77 13.77-7.605 0-13.77-6.165-13.77-13.77h-.057c0 7.636 6.191 13.827 13.827 13.827 7.637 0 13.827-6.19 13.827-13.827 0-7.636-6.19-13.827-13.827-13.827-7.636 0-13.827 6.191-13.827 13.827"/><path d="M12.88 19.765c0-7.637 6.191-13.827 13.827-13.827 7.637 0 13.827 6.19 13.827 13.827 0 7.636-6.19 13.826-13.827 13.826-7.636 0-13.827-6.19-13.827-13.826h-.056c0 7.667 6.216 13.883 13.883 13.883 7.668 0 13.884-6.216 13.884-13.884 0-7.667-6.216-13.883-13.884-13.883-7.667 0-13.883 6.216-13.883 13.884"/><path d="M12.824 19.764c0-7.667 6.216-13.883 13.883-13.883 7.668 0 13.884 6.216 13.884 13.883 0 7.668-6.216 13.884-13.884 13.884-7.667 0-13.883-6.216-13.883-13.884h-.057c0 7.7 6.241 13.94 13.94 13.94s13.94-6.24 13.94-13.94c0-7.698-6.241-13.94-13.94-13.94s-13.94 6.242-13.94 13.94"/><path d="M12.767 19.764c0-7.698 6.241-13.94 13.94-13.94s13.94 6.242 13.94 13.94c0 7.7-6.241 13.94-13.94 13.94s-13.94-6.24-13.94-13.94h-.057c0 7.73 6.267 13.997 13.997 13.997 7.73 0 13.997-6.267 13.997-13.997 0-7.73-6.267-13.996-13.997-13.996-7.73 0-13.997 6.266-13.997 13.996"/><path d="M12.71 19.764c0-7.73 6.267-13.996 13.997-13.996 7.73 0 13.997 6.266 13.997 13.996s-6.267 13.997-13.997 13.997c-7.73 0-13.997-6.267-13.997-13.997h-.056c0 7.762 6.292 14.054 14.053 14.054 7.762 0 14.054-6.292 14.054-14.054 0-7.761-6.292-14.053-14.054-14.053-7.761 0-14.053 6.292-14.053 14.053"/><path d="M12.654 19.764c0-7.761 6.292-14.053 14.053-14.053 7.762 0 14.054 6.292 14.054 14.053 0 7.762-6.292 14.054-14.054 14.054-7.761 0-14.053-6.292-14.053-14.054h-.057c0 7.793 6.318 14.11 14.11 14.11 7.793 0 14.11-6.317 14.11-14.11 0-7.792-6.317-14.11-14.11-14.11-7.792 0-14.11 6.318-14.11 14.11"/><path d="M12.597 19.764c0-7.792 6.318-14.11 14.11-14.11 7.793 0 14.11 6.318 14.11 14.11 0 7.793-6.317 14.11-14.11 14.11-7.793 0-14.11-6.317-14.11-14.11h-.057c0 7.824 6.343 14.167 14.167 14.167s14.167-6.343 14.167-14.167S34.531 5.597 26.707 5.597 12.54 11.94 12.54 19.764"/><path d="M12.54 19.764c0-7.824 6.343-14.167 14.167-14.167s14.167 6.343 14.167 14.167-6.343 14.167-14.167 14.167S12.54 27.588 12.54 19.764h-.056c0 7.855 6.368 14.223 14.223 14.223s14.224-6.368 14.224-14.223S34.563 5.541 26.707 5.541c-7.855 0-14.223 6.368-14.223 14.223"/><path d="M12.484 19.764c0-7.855 6.368-14.223 14.223-14.223 7.856 0 14.224 6.368 14.224 14.223s-6.368 14.224-14.224 14.224c-7.855 0-14.223-6.369-14.223-14.224h-.057c0 7.887 6.394 14.28 14.28 14.28 7.887 0 14.28-6.393 14.28-14.28 0-7.886-6.393-14.28-14.28-14.28-7.886 0-14.28 6.394-14.28 14.28"/><path d="M12.427 19.764c0-7.886 6.394-14.28 14.28-14.28 7.887 0 14.28 6.394 14.28 14.28 0 7.887-6.393 14.28-14.28 14.28-7.886 0-14.28-6.393-14.28-14.28h-.057c0 7.918 6.42 14.337 14.337 14.337 7.918 0 14.337-6.419 14.337-14.337S34.625 5.427 26.707 5.427 12.37 11.847 12.37 19.764"/><path d="M12.37 19.765c0-7.918 6.42-14.337 14.337-14.337 7.918 0 14.337 6.419 14.337 14.337S34.625 34.1 26.707 34.1 12.37 27.683 12.37 19.765h-.056c0 7.949 6.444 14.393 14.393 14.393 7.95 0 14.394-6.444 14.394-14.393 0-7.95-6.445-14.394-14.394-14.394s-14.393 6.444-14.393 14.394"/><path d="M12.314 19.764c0-7.949 6.444-14.393 14.393-14.393 7.95 0 14.394 6.444 14.394 14.393 0 7.95-6.445 14.394-14.394 14.394s-14.393-6.445-14.393-14.394h-.057c0 7.98 6.47 14.45 14.45 14.45 7.981 0 14.45-6.47 14.45-14.45 0-7.98-6.469-14.45-14.45-14.45-7.98 0-14.45 6.47-14.45 14.45"/><path d="M12.257 19.764c0-7.98 6.47-14.45 14.45-14.45 7.98 0 14.45 6.47 14.45 14.45 0 7.98-6.47 14.45-14.45 14.45-7.98 0-14.45-6.47-14.45-14.45H12.2c0 8.012 6.495 14.507 14.507 14.507s14.507-6.495 14.507-14.507S34.719 5.257 26.707 5.257 12.2 11.752 12.2 19.764"/><path d="M12.2 19.764c0 8.012 6.495 14.507 14.507 14.507s14.507-6.495 14.507-14.507S34.719 5.257 26.707 5.257 12.2 11.752 12.2 19.764ZM41.635 34.96H12.2V4.575h29.435V34.96Z"/></g><path fill="#1B1B1B" d="M49.414 22.99h-1.86l4.181-11.622h2.026l4.182 11.621h-1.861l-3.286-9.51h-.09l-3.292 9.51Zm.312-4.551h6.038v1.475h-6.038v-1.476Zm16.734-3.4a3.549 3.549 0 0 0-.442-.924 2.83 2.83 0 0 0-.653-.704 2.74 2.74 0 0 0-.868-.448 3.488 3.488 0 0 0-1.061-.153c-.655 0-1.245.168-1.77.505-.527.336-.943.83-1.25 1.48-.302.647-.453 1.44-.453 2.378 0 .942.153 1.738.46 2.389.306.65.726 1.144 1.26 1.481.533.337 1.14.505 1.82.505.632 0 1.183-.129 1.652-.386.473-.257.838-.62 1.095-1.09.261-.472.392-1.028.392-1.668l.454.085H63.77v-1.446h4.568v1.322c0 .976-.208 1.823-.624 2.542A4.251 4.251 0 0 1 66 22.564c-.726.39-1.558.584-2.496.584-1.052 0-1.975-.242-2.77-.726-.79-.484-1.407-1.171-1.85-2.06-.442-.893-.663-1.952-.663-3.178 0-.926.129-1.759.386-2.496.257-.738.618-1.364 1.084-1.879a4.733 4.733 0 0 1 1.65-1.185 5.17 5.17 0 0 1 2.083-.415c.628 0 1.213.093 1.754.278a4.729 4.729 0 0 1 1.452.79 4.465 4.465 0 0 1 1.629 2.763H66.46Zm3.625 7.95V11.37h7.285v1.509h-5.532v3.54h5.152v1.504h-5.152v3.558h5.6v1.51h-7.353Zm18.528-11.62v11.62H87l-5.907-8.523h-.107v8.523h-1.754V11.37h1.623l5.913 8.533h.107v-8.534h1.737Zm5.84 11.62h-3.762V11.37h3.881c1.139 0 2.117.232 2.934.697a4.6 4.6 0 0 1 1.878 1.992c.439.862.658 1.897.658 3.104 0 1.21-.22 2.25-.663 3.12a4.66 4.66 0 0 1-1.907 2.01c-.832.465-1.839.697-3.019.697Zm-2.008-1.532h1.912c.885 0 1.62-.166 2.207-.5a3.147 3.147 0 0 0 1.317-1.457c.29-.64.436-1.419.436-2.338 0-.912-.145-1.685-.436-2.321-.288-.636-.717-1.118-1.289-1.447-.57-.33-1.28-.494-2.127-.494h-2.02v8.557Zm9.703 1.532h-1.862l4.182-11.62h2.026l4.182 11.62h-1.861l-3.285-9.51h-.091l-3.291 9.51Zm.312-4.55h6.037v1.475h-6.037v-1.476ZM118.718 14.71c-.045-.457-.24-.813-.584-1.066-.344-.254-.811-.38-1.402-.38-.401 0-.739.056-1.015.17-.276.11-.488.263-.636.46-.144.196-.215.42-.215.669a.957.957 0 0 0 .13.545c.098.155.233.289.403.402.17.11.367.207.59.29.223.08.462.147.715.204l1.044.25c.507.113.972.265 1.396.454.424.189.791.422 1.101.698.31.276.55.601.72.976.174.374.263.804.267 1.288-.004.711-.185 1.328-.545 1.85-.355.518-.87.92-1.543 1.208-.67.284-1.477.426-2.423.426-.938 0-1.755-.144-2.451-.431-.693-.288-1.233-.713-1.623-1.277-.386-.568-.588-1.27-.607-2.105h2.377c.027.39.138.715.335.976.201.257.467.452.8.584a3.18 3.18 0 0 0 1.141.193c.416 0 .777-.06 1.083-.181.311-.122.551-.29.721-.506.17-.215.255-.463.255-.743a.966.966 0 0 0-.232-.658c-.151-.178-.375-.33-.67-.454a6.816 6.816 0 0 0-1.072-.34l-1.266-.318c-.979-.239-1.753-.611-2.32-1.118-.568-.507-.85-1.19-.846-2.049-.004-.703.184-1.318.562-1.844.382-.525.906-.936 1.572-1.231.665-.295 1.422-.443 2.269-.443.863 0 1.616.148 2.259.443.647.295 1.15.706 1.509 1.231.36.526.545 1.135.556 1.827h-2.355Zm5.425 8.28h-2.633l4.012-11.622h3.166l4.006 11.621h-2.633l-2.91-8.965h-.091l-2.917 8.965Zm-.164-4.569h6.219v1.918h-6.219v-1.918Zm16.813-7.053h2.457v7.547c0 .848-.203 1.589-.607 2.224-.401.636-.963 1.131-1.686 1.487-.722.352-1.564.528-2.525.528-.964 0-1.808-.176-2.531-.528-.722-.356-1.284-.851-1.685-1.487-.401-.635-.601-1.377-.601-2.224v-7.547h2.457v7.337c0 .443.096.836.289 1.18.197.345.473.615.829.812.355.197.769.295 1.242.295.477 0 .891-.099 1.243-.295.355-.197.63-.467.823-.812.196-.344.295-.737.295-1.18v-7.337Zm-3.229-1.123 1.203-2.582h2.236l-1.731 2.582h-1.708Zm11.347 12.744h-4.119V11.37h4.153c1.169 0 2.176.232 3.019.697a4.705 4.705 0 0 1 1.946 1.992c.458.866.687 1.903.687 3.11 0 1.21-.229 2.25-.687 3.12a4.718 4.718 0 0 1-1.957 2.003c-.848.466-1.861.698-3.042.698Zm-1.662-2.105h1.56c.727 0 1.337-.128 1.833-.386.499-.26.874-.664 1.124-1.208.253-.549.38-1.256.38-2.123 0-.858-.127-1.56-.38-2.105-.25-.544-.623-.945-1.118-1.203-.496-.257-1.107-.386-1.833-.386h-1.566v7.411Zm8.689 2.105V11.37h7.83v2.025h-5.373v2.77h4.97v2.025h-4.97v2.774h5.396v2.026h-7.853Z"/></svg>