<svg xmlns="http://www.w3.org/2000/svg" width="274" height="180" fill="none"><path fill="#0BD25B" d="M153.596 65.346c-12.793-12.806-14.854-33.052-4.903-48.138l1.693-2.563 26.947 26.95 30.446-30.445C215.001 3.958 224.588 0 234.782 0a38.156 38.156 0 0 1 20.953 6.23l2.578 1.689-81.074 81.069-23.643-23.642Z"/><mask id="a" width="90" height="99" x="184" y="14" maskUnits="userSpaceOnUse" style="mask-type:luminance"><path fill="#fff" d="M207.715 112.736c-3.868-.015-7.735-1.296-10.524-3.812l-.201-.181-12.914-12.915 81.072-81.07 1.687 2.578c9.867 15.067 7.773 35.258-4.981 48.01l-43.197 43.212c-2.811 2.813-6.877 4.195-10.942 4.178Z"/></mask><g fill="#640CA8" fill-rule="evenodd" clip-rule="evenodd" mask="url(#a)"><path d="M228.555 63.746h-.183a.183.183 0 0 0 .366 0 .183.183 0 0 0-.366 0"/><path d="M228.372 63.746c0-.1.083-.183.183-.183.1 0 .183.082.183.183 0 .1-.083.182-.183.182a.184.184 0 0 1-.183-.182h-.183a.366.366 0 1 0 .731 0 .366.366 0 0 0-.731 0"/><path d="M228.189 63.746a.366.366 0 1 1 .731 0 .366.366 0 0 1-.731 0h-.182a.548.548 0 1 0 1.096 0 .548.548 0 0 0-1.096 0"/><path d="M228.007 63.746a.548.548 0 1 1 1.096-.001.548.548 0 0 1-1.096 0h-.183a.731.731 0 1 0 1.462.001.731.731 0 0 0-1.462 0"/><path d="M227.824 63.746a.732.732 0 1 1 1.464.002.732.732 0 0 1-1.464-.002h-.183a.914.914 0 1 0 1.827 0 .914.914 0 0 0-1.827 0"/><path d="M227.641 63.746a.914.914 0 1 1 1.827 0 .914.914 0 0 1-1.827 0h-.183a1.098 1.098 0 0 0 2.193 0 1.097 1.097 0 0 0-2.193 0"/><path d="M227.458 63.747a1.098 1.098 0 0 1 2.193 0 1.097 1.097 0 0 1-2.193 0h-.182a1.28 1.28 0 1 0 2.558 0 1.28 1.28 0 0 0-2.558 0"/><path d="M227.276 63.746a1.28 1.28 0 1 1 2.56.002 1.28 1.28 0 0 1-2.56-.002h-.183a1.462 1.462 0 1 0 2.924 0 1.462 1.462 0 0 0-2.924 0"/><path d="M227.093 63.746a1.462 1.462 0 1 1 2.924 0 1.462 1.462 0 0 1-2.924 0h-.183a1.646 1.646 0 1 0 3.291-.001 1.646 1.646 0 0 0-3.291.001"/><path d="M226.91 63.746a1.646 1.646 0 1 1 3.291.002 1.646 1.646 0 0 1-3.291-.002h-.183a1.827 1.827 0 1 0 3.655 0 1.827 1.827 0 0 0-3.655 0"/><path d="M226.727 63.746a1.827 1.827 0 1 1 3.655 0 1.827 1.827 0 0 1-3.655 0h-.182a2.01 2.01 0 1 0 4.02 0 2.01 2.01 0 0 0-4.02 0"/><path d="M226.544 63.746a2.011 2.011 0 1 1 4.023.002 2.011 2.011 0 0 1-4.023-.002h-.182a2.193 2.193 0 1 0 4.385 0 2.193 2.193 0 0 0-4.385 0"/><path d="M226.362 63.746a2.193 2.193 0 1 1 4.385 0 2.193 2.193 0 0 1-4.385 0h-.183a2.376 2.376 0 1 0 4.752 0 2.376 2.376 0 0 0-4.752 0"/><path d="M226.179 63.746a2.376 2.376 0 1 1 4.752 0 2.376 2.376 0 0 1-4.752 0h-.183a2.56 2.56 0 1 0 5.119-.001 2.56 2.56 0 0 0-5.119.001"/><path d="M225.996 63.746a2.56 2.56 0 1 1 5.119.001 2.56 2.56 0 0 1-5.119-.001h-.183a2.742 2.742 0 1 0 5.485-.002 2.742 2.742 0 0 0-5.485.002"/><path d="M225.813 63.746a2.742 2.742 0 1 1 5.483 0 2.742 2.742 0 0 1-5.483 0h-.182a2.924 2.924 0 1 0 5.848 0 2.924 2.924 0 0 0-5.848 0"/><path d="M225.631 63.746a2.924 2.924 0 1 1 5.848 0 2.924 2.924 0 0 1-5.848 0h-.183a3.108 3.108 0 0 0 6.214 0 3.108 3.108 0 0 0-6.214 0"/><path d="M225.448 63.746a3.108 3.108 0 0 1 6.214 0 3.108 3.108 0 0 1-6.214 0h-.183a3.29 3.29 0 1 0 6.58 0 3.29 3.29 0 0 0-6.58 0"/><path d="M225.265 63.746a3.29 3.29 0 1 1 6.58 0 3.29 3.29 0 0 1-6.58 0h-.182a3.472 3.472 0 1 0 6.944 0 3.472 3.472 0 0 0-6.944 0"/><path d="M225.082 63.747a3.473 3.473 0 1 1 6.946.001 3.473 3.473 0 0 1-6.946-.001h-.182a3.654 3.654 0 1 0 3.655-3.655 3.654 3.654 0 0 0-3.655 3.655"/><path d="M224.9 63.747a3.654 3.654 0 1 1 7.31 0 3.654 3.654 0 1 1-7.31 0h-.183a3.838 3.838 0 1 0 7.675 0 3.838 3.838 0 0 0-7.675 0"/><path d="M224.717 63.746a3.838 3.838 0 1 1 7.675 0 3.838 3.838 0 0 1-7.675 0h-.183a4.022 4.022 0 1 0 8.043-.002 4.022 4.022 0 0 0-8.043.002"/><path d="M224.534 63.746a4.022 4.022 0 1 1 8.043.002 4.022 4.022 0 0 1-8.043-.002h-.183a4.204 4.204 0 1 0 8.408-.001 4.204 4.204 0 0 0-8.408 0"/><path d="M224.351 63.746a4.204 4.204 0 1 1 8.408.001 4.204 4.204 0 0 1-8.408 0h-.182a4.386 4.386 0 1 0 8.773-.001 4.386 4.386 0 0 0-8.773 0"/><path d="M224.169 63.746a4.386 4.386 0 1 1 8.773 0 4.386 4.386 0 0 1-8.773 0h-.183a4.57 4.57 0 1 0 9.14-.001 4.57 4.57 0 0 0-9.14.001"/><path d="M223.986 63.745a4.57 4.57 0 1 1 9.14.002 4.57 4.57 0 0 1-9.14-.002h-.183a4.751 4.751 0 1 0 9.503.001 4.751 4.751 0 0 0-9.503 0"/><path d="M223.803 63.747a4.751 4.751 0 1 1 9.503-.001 4.751 4.751 0 0 1-9.503 0h-.183a4.935 4.935 0 1 0 9.87 0 4.935 4.935 0 0 0-9.87 0"/><path d="M223.62 63.747a4.935 4.935 0 1 1 9.87.001 4.935 4.935 0 0 1-9.87-.001h-.182a5.116 5.116 0 0 0 5.117 5.117 5.116 5.116 0 0 0 5.117-5.117 5.116 5.116 0 0 0-5.117-5.118 5.116 5.116 0 0 0-5.117 5.118"/><path d="M223.438 63.746a5.116 5.116 0 0 1 5.117-5.117 5.116 5.116 0 0 1 5.117 5.117 5.116 5.116 0 0 1-5.117 5.118 5.116 5.116 0 0 1-5.117-5.118h-.183a5.3 5.3 0 1 0 10.6 0 5.3 5.3 0 0 0-10.6 0"/><path d="M223.255 63.746a5.3 5.3 0 1 1 10.6 0 5.3 5.3 0 0 1-10.6 0h-.183a5.482 5.482 0 0 0 5.483 5.483 5.483 5.483 0 1 0-5.483-5.483"/><path d="M223.072 63.746a5.484 5.484 0 1 1 10.968.003 5.484 5.484 0 0 1-10.968-.003h-.183a5.666 5.666 0 1 0 11.331 0 5.666 5.666 0 0 0-11.331 0"/><path d="M222.889 63.746a5.665 5.665 0 1 1 11.331 0 5.665 5.665 0 1 1-11.331 0h-.182a5.848 5.848 0 1 0 11.696 0 5.848 5.848 0 0 0-11.696 0"/><path d="M222.707 63.746a5.848 5.848 0 1 1 11.696 0 5.848 5.848 0 0 1-11.696 0h-.183a6.032 6.032 0 0 0 12.062 0 6.031 6.031 0 0 0-12.062 0"/><path d="M222.524 63.746a6.032 6.032 0 0 1 12.062 0 6.031 6.031 0 0 1-12.062 0h-.183a6.214 6.214 0 1 0 12.427 0 6.214 6.214 0 0 0-12.427 0"/><path d="M222.341 63.746a6.214 6.214 0 1 1 12.427 0 6.214 6.214 0 0 1-12.427 0h-.183a6.398 6.398 0 0 0 12.793 0 6.397 6.397 0 0 0-12.793 0"/><path d="M222.158 63.747a6.398 6.398 0 0 1 12.793 0 6.397 6.397 0 0 1-12.793 0h-.182a6.578 6.578 0 0 0 6.579 6.579 6.578 6.578 0 0 0 6.579-6.58 6.578 6.578 0 0 0-6.579-6.579 6.578 6.578 0 0 0-6.579 6.58"/><path d="M221.976 63.746a6.578 6.578 0 0 1 6.579-6.579 6.578 6.578 0 0 1 6.579 6.58 6.578 6.578 0 0 1-6.579 6.579 6.578 6.578 0 0 1-6.579-6.58h-.183a6.763 6.763 0 1 0 13.526.001 6.763 6.763 0 0 0-13.526 0"/><path d="M221.793 63.746a6.762 6.762 0 1 1 13.524 0 6.763 6.763 0 1 1-13.524 0h-.183a6.945 6.945 0 0 0 6.945 6.945 6.945 6.945 0 1 0-6.945-6.945"/><path d="M221.61 63.746a6.946 6.946 0 1 1 13.891.002 6.946 6.946 0 0 1-13.891-.002h-.183a7.127 7.127 0 1 0 14.255 0 7.127 7.127 0 1 0-14.255 0"/><path d="M221.427 63.747a7.127 7.127 0 1 1 14.255 0 7.127 7.127 0 1 1-14.255 0h-.183a7.312 7.312 0 1 0 14.619 0 7.312 7.312 0 0 0-14.619 0"/><path d="M221.244 63.747a7.311 7.311 0 1 1 14.623.002 7.311 7.311 0 0 1-14.623-.002h-.182a7.493 7.493 0 0 0 7.493 7.493 7.493 7.493 0 1 0-7.493-7.493"/><path d="M221.062 63.747a7.494 7.494 0 1 1 14.987.001 7.494 7.494 0 0 1-14.987-.001h-.183a7.676 7.676 0 1 0 15.352 0 7.676 7.676 0 0 0-15.352 0"/><path d="M220.879 63.746a7.676 7.676 0 1 1 15.352 0 7.676 7.676 0 0 1-15.352 0h-.183a7.86 7.86 0 1 0 15.715 0 7.86 7.86 0 0 0-15.715 0"/><path d="M220.696 63.747a7.86 7.86 0 1 1 15.719.001 7.86 7.86 0 0 1-15.719-.001h-.183c0 4.441 3.6 8.041 8.042 8.041a8.04 8.04 0 0 0 8.041-8.041 8.04 8.04 0 0 0-8.041-8.041 8.041 8.041 0 0 0-8.042 8.04"/><path d="M220.513 63.747c0-4.442 3.6-8.042 8.042-8.042a8.04 8.04 0 0 1 8.041 8.042 8.04 8.04 0 0 1-8.041 8.04 8.041 8.041 0 0 1-8.042-8.04h-.184a8.226 8.226 0 0 0 16.45 0 8.226 8.226 0 0 0-16.45 0"/><path d="M220.329 63.746a8.226 8.226 0 0 1 16.45 0 8.226 8.226 0 0 1-16.45 0h-.181a8.407 8.407 0 1 0 16.814 0 8.407 8.407 0 0 0-16.814 0"/><path d="M220.148 63.745a8.407 8.407 0 0 1 16.814 0 8.407 8.407 0 1 1-16.814 0h-.183a8.59 8.59 0 1 0 17.18 0 8.59 8.59 0 0 0-17.18 0"/><path d="M219.965 63.745a8.59 8.59 0 1 1 17.18 0 8.59 8.59 0 0 1-17.18 0h-.184a8.774 8.774 0 0 0 17.546 0 8.774 8.774 0 0 0-17.546 0"/><path d="M219.781 63.746a8.774 8.774 0 0 1 17.546 0 8.774 8.774 0 0 1-17.546 0h-.181a8.956 8.956 0 1 0 17.913 0 8.956 8.956 0 0 0-17.913 0"/><path d="M219.6 63.746a8.955 8.955 0 0 1 8.955-8.955 8.957 8.957 0 1 1-8.955 8.955h-.183a9.138 9.138 0 0 0 9.138 9.138 9.139 9.139 0 1 0-9.138-9.138"/><path d="M219.417 63.746a9.138 9.138 0 0 1 9.138-9.138 9.139 9.139 0 1 1-9.138 9.138h-.184c0 5.147 4.175 9.32 9.322 9.32 5.147 0 9.32-4.173 9.32-9.32s-4.173-9.322-9.32-9.322-9.322 4.175-9.322 9.322"/><path d="M219.233 63.746c0-5.147 4.175-9.322 9.322-9.322 5.147 0 9.32 4.175 9.32 9.322 0 5.148-4.173 9.321-9.32 9.321s-9.322-4.173-9.322-9.32h-.182c0 5.248 4.255 9.504 9.504 9.504s9.505-4.256 9.505-9.505c0-5.249-4.256-9.503-9.505-9.503a9.503 9.503 0 0 0-9.504 9.503"/><path d="M219.052 63.746a9.502 9.502 0 0 1 9.503-9.504c5.249 0 9.505 4.255 9.505 9.504s-4.256 9.505-9.505 9.505c-5.249 0-9.503-4.256-9.503-9.505h-.183c0 5.35 4.336 9.686 9.686 9.686 5.349 0 9.687-4.337 9.687-9.686 0-5.35-4.338-9.686-9.687-9.686-5.35 0-9.686 4.336-9.686 9.686"/><path d="M218.869 63.746c0-5.35 4.336-9.686 9.686-9.686 5.349 0 9.687 4.337 9.687 9.686 0 5.35-4.338 9.686-9.687 9.686-5.35 0-9.686-4.337-9.686-9.686h-.185c0 5.451 4.42 9.869 9.871 9.869a9.868 9.868 0 0 0 9.869-9.869c0-5.451-4.418-9.87-9.869-9.87s-9.871 4.419-9.871 9.87"/><path d="M218.684 63.746c0-5.451 4.42-9.87 9.871-9.87 5.451 0 9.869 4.419 9.869 9.87s-4.418 9.87-9.869 9.87-9.871-4.419-9.871-9.87h-.181c0 5.552 4.5 10.053 10.052 10.053 5.551 0 10.053-4.501 10.053-10.053 0-5.551-4.502-10.051-10.053-10.051-5.552 0-10.052 4.5-10.052 10.051"/><path d="M218.503 63.746c0-5.551 4.5-10.051 10.052-10.051 5.551 0 10.053 4.5 10.053 10.051 0 5.552-4.502 10.053-10.053 10.053-5.552 0-10.052-4.501-10.052-10.053h-.183c0 5.652 4.583 10.235 10.235 10.235 5.653 0 10.236-4.583 10.236-10.235 0-5.652-4.583-10.234-10.236-10.234-5.652 0-10.235 4.582-10.235 10.234"/><path d="M218.32 63.747c0-5.652 4.583-10.235 10.235-10.235 5.653 0 10.236 4.583 10.236 10.235 0 5.652-4.583 10.234-10.236 10.234-5.652 0-10.235-4.582-10.235-10.234h-.184c0 5.754 4.665 10.417 10.419 10.417 5.754 0 10.417-4.663 10.417-10.417s-4.663-10.419-10.417-10.419-10.419 4.665-10.419 10.419"/><path d="M218.136 63.746c0-5.753 4.665-10.418 10.419-10.418 5.754 0 10.417 4.665 10.417 10.418 0 5.754-4.663 10.418-10.417 10.418s-10.419-4.664-10.419-10.418h-.181c0 5.855 4.746 10.602 10.6 10.602 5.854 0 10.601-4.747 10.601-10.602 0-5.854-4.747-10.6-10.601-10.6-5.854 0-10.6 4.746-10.6 10.6"/><path d="M217.955 63.747c0-5.855 4.746-10.602 10.6-10.602 5.854 0 10.601 4.747 10.601 10.602 0 5.854-4.747 10.601-10.601 10.601-5.854 0-10.6-4.747-10.6-10.601h-.183c0 5.954 4.828 10.782 10.783 10.782 5.956 0 10.784-4.828 10.784-10.782 0-5.955-4.828-10.783-10.784-10.783-5.955 0-10.783 4.828-10.783 10.783"/><path d="M217.772 63.746c0-5.954 4.828-10.782 10.783-10.782 5.956 0 10.784 4.828 10.784 10.782 0 5.955-4.828 10.783-10.784 10.783-5.955 0-10.783-4.828-10.783-10.783h-.184c0 6.057 4.91 10.966 10.967 10.966 6.056 0 10.965-4.91 10.965-10.966 0-6.056-4.909-10.967-10.965-10.967-6.057 0-10.967 4.91-10.967 10.967"/><path d="M217.588 63.747c0-6.057 4.91-10.967 10.967-10.967 6.056 0 10.965 4.91 10.965 10.967 0 6.056-4.909 10.965-10.965 10.965-6.057 0-10.967-4.909-10.967-10.965h-.181c0 6.156 4.991 11.15 11.148 11.15s11.15-4.994 11.15-11.15c0-6.157-4.993-11.15-11.15-11.15s-11.148 4.993-11.148 11.15"/><path d="M217.407 63.746c0-6.156 4.991-11.15 11.148-11.15s11.149 4.994 11.149 11.15c0 6.157-4.992 11.15-11.149 11.15-6.157 0-11.148-4.993-11.148-11.15h-.183c0 6.26 5.072 11.333 11.331 11.333 6.258 0 11.332-5.074 11.332-11.333 0-6.258-5.074-11.33-11.332-11.33-6.259 0-11.331 5.072-11.331 11.33"/><path d="M217.224 63.747c0-6.26 5.072-11.331 11.331-11.331 6.259 0 11.332 5.072 11.332 11.33 0 6.26-5.073 11.333-11.332 11.333s-11.331-5.074-11.331-11.332h-.184c0 6.359 5.156 11.513 11.515 11.513 6.359 0 11.514-5.154 11.514-11.513 0-6.36-5.155-11.516-11.514-11.516-6.359 0-11.515 5.157-11.515 11.516"/><path d="M217.04 63.746c0-6.359 5.156-11.515 11.515-11.515 6.359 0 11.514 5.156 11.514 11.515 0 6.36-5.155 11.514-11.514 11.514-6.359 0-11.515-5.155-11.515-11.514h-.182c0 6.461 5.237 11.698 11.697 11.698 6.461 0 11.698-5.237 11.698-11.698 0-6.46-5.237-11.698-11.698-11.698-6.46 0-11.697 5.239-11.697 11.698"/><path d="M216.858 63.747c0-6.46 5.237-11.698 11.697-11.698 6.461 0 11.698 5.238 11.698 11.698s-5.237 11.698-11.698 11.698c-6.46 0-11.697-5.237-11.697-11.698h-.182c0 6.561 5.318 11.88 11.879 11.88s11.88-5.319 11.88-11.88c0-6.562-5.319-11.88-11.88-11.88-6.561 0-11.879 5.319-11.879 11.88"/><path d="M216.676 63.746c0-6.561 5.317-11.88 11.879-11.88 6.561 0 11.88 5.319 11.88 11.88 0 6.561-5.319 11.88-11.88 11.88-6.562 0-11.879-5.319-11.879-11.88h-.185c0 6.662 5.402 12.062 12.064 12.062 6.661 0 12.062-5.4 12.062-12.062 0-6.662-5.401-12.063-12.062-12.063-6.662 0-12.064 5.401-12.064 12.063"/><path d="M216.491 63.746c0-6.661 5.402-12.063 12.064-12.063s12.062 5.402 12.062 12.063c0 6.662-5.4 12.062-12.062 12.062-6.662 0-12.064-5.4-12.064-12.062h-.181c0 6.764 5.483 12.247 12.245 12.247 6.763 0 12.246-5.483 12.246-12.246 0-6.763-5.483-12.247-12.246-12.247-6.762 0-12.245 5.484-12.245 12.246"/><path d="M216.31 63.746c0-6.762 5.483-12.246 12.245-12.246 6.763 0 12.246 5.484 12.246 12.246 0 6.764-5.483 12.247-12.246 12.247-6.762 0-12.245-5.483-12.245-12.247h-.183c0 6.864 5.564 12.43 12.428 12.43 6.864 0 12.429-5.566 12.429-12.43s-5.565-12.427-12.429-12.427-12.428 5.563-12.428 12.427"/><path d="M216.127 63.746c0-6.864 5.564-12.428 12.428-12.428 6.864 0 12.429 5.564 12.429 12.428 0 6.864-5.565 12.429-12.429 12.429s-12.428-5.565-12.428-12.43h-.184c0 6.965 5.648 12.611 12.612 12.611s12.61-5.646 12.61-12.61c0-6.965-5.646-12.612-12.61-12.612-6.964 0-12.612 5.648-12.612 12.612"/><path d="M215.943 63.746c0-6.964 5.648-12.612 12.612-12.612s12.61 5.648 12.61 12.612-5.646 12.61-12.61 12.61c-6.964 0-12.612-5.646-12.612-12.61h-.183c0 7.066 5.729 12.794 12.795 12.794s12.794-5.728 12.794-12.794c0-7.066-5.728-12.794-12.794-12.794-7.066 0-12.795 5.728-12.795 12.794"/><path d="M215.76 63.746c0-7.066 5.729-12.795 12.795-12.795s12.794 5.729 12.794 12.795-5.728 12.794-12.794 12.794c-7.066 0-12.795-5.728-12.795-12.794h-.181c0 7.166 5.809 12.977 12.976 12.977 7.166 0 12.977-5.81 12.977-12.977 0-7.167-5.811-12.976-12.977-12.976-7.167 0-12.976 5.81-12.976 12.976"/><path d="M215.579 63.746c0-7.166 5.809-12.976 12.976-12.976 7.166 0 12.977 5.81 12.977 12.976 0 7.167-5.811 12.977-12.977 12.977-7.167 0-12.976-5.81-12.976-12.977h-.184c0 7.269 5.893 13.159 13.16 13.159 7.268 0 13.158-5.89 13.158-13.159 0-7.268-5.89-13.16-13.158-13.16-7.267 0-13.16 5.892-13.16 13.16"/><path d="M215.395 63.746c0-7.268 5.893-13.16 13.16-13.16 7.268 0 13.158 5.892 13.158 13.16 0 7.269-5.89 13.159-13.158 13.159-7.267 0-13.16-5.89-13.16-13.159h-.183c0 7.37 5.974 13.343 13.343 13.343s13.343-5.974 13.343-13.343c0-7.368-5.974-13.342-13.343-13.342s-13.343 5.974-13.343 13.342"/><path d="M215.212 63.746c0-7.369 5.974-13.343 13.343-13.343s13.343 5.974 13.343 13.343-5.974 13.343-13.343 13.343-13.343-5.974-13.343-13.343h-.181c0 7.47 6.055 13.526 13.524 13.526 7.469 0 13.526-6.057 13.526-13.526 0-7.469-6.057-13.524-13.526-13.524-7.469 0-13.524 6.055-13.524 13.524"/><path d="M215.031 63.746c0-7.469 6.055-13.524 13.524-13.524 7.469 0 13.525 6.055 13.525 13.524 0 7.47-6.056 13.526-13.525 13.526s-13.524-6.057-13.524-13.526h-.184c0 7.571 6.138 13.707 13.708 13.707 7.571 0 13.708-6.136 13.708-13.707 0-7.57-6.137-13.708-13.708-13.708-7.57 0-13.708 6.139-13.708 13.708"/><path d="M214.846 63.746c0-7.569 6.139-13.708 13.709-13.708 7.571 0 13.708 6.139 13.708 13.708 0 7.571-6.137 13.707-13.708 13.707-7.57 0-13.709-6.136-13.709-13.707h-.182c0 7.672 6.219 13.892 13.891 13.892 7.671 0 13.891-6.22 13.891-13.892 0-7.67-6.22-13.89-13.891-13.89-7.672 0-13.891 6.22-13.891 13.89"/><path d="M214.664 63.746c0-7.671 6.22-13.89 13.891-13.89s13.891 6.219 13.891 13.89c0 7.672-6.22 13.891-13.891 13.891s-13.891-6.22-13.891-13.89h-.181c0 7.771 6.3 14.073 14.072 14.073 7.771 0 14.074-6.302 14.074-14.074 0-7.771-6.303-14.072-14.074-14.072-7.772 0-14.072 6.3-14.072 14.072"/><path d="M214.483 63.747c0-7.772 6.3-14.073 14.072-14.073 7.772 0 14.074 6.301 14.074 14.073 0 7.771-6.302 14.073-14.074 14.073s-14.072-6.302-14.072-14.073h-.185c0 7.873 6.383 14.255 14.257 14.255 7.873 0 14.256-6.382 14.256-14.255 0-7.874-6.383-14.257-14.256-14.257-7.874 0-14.257 6.383-14.257 14.257"/><path d="M214.298 63.746c0-7.873 6.383-14.257 14.257-14.257 7.873 0 14.256 6.384 14.256 14.257 0 7.873-6.383 14.255-14.256 14.255-7.874 0-14.257-6.382-14.257-14.255h-.182c0 7.974 6.465 14.44 14.439 14.44s14.439-6.466 14.439-14.44c0-7.974-6.465-14.44-14.439-14.44s-14.439 6.466-14.439 14.44"/><path d="M214.116 63.746c0-7.974 6.465-14.439 14.439-14.439s14.439 6.465 14.439 14.44c0 7.973-6.465 14.439-14.439 14.439s-14.439-6.466-14.439-14.44h-.182c0 8.076 6.545 14.622 14.621 14.622s14.622-6.546 14.622-14.622c0-8.075-6.546-14.62-14.622-14.62s-14.621 6.545-14.621 14.62"/><path d="M213.934 63.746c0-8.075 6.545-14.62 14.621-14.62s14.622 6.545 14.622 14.62c0 8.076-6.546 14.622-14.622 14.622s-14.621-6.546-14.621-14.621h-.184c0 8.176 6.629 14.804 14.805 14.804s14.805-6.628 14.805-14.805c0-8.176-6.629-14.804-14.805-14.804S213.75 55.57 213.75 63.746"/><path d="M213.75 63.747c0-8.177 6.629-14.805 14.805-14.805s14.805 6.628 14.805 14.805c0 8.176-6.629 14.804-14.805 14.804s-14.805-6.628-14.805-14.804h-.183c0 8.276 6.711 14.987 14.988 14.987 8.278 0 14.987-6.71 14.987-14.987 0-8.277-6.709-14.988-14.987-14.988-8.277 0-14.988 6.711-14.988 14.988"/><path d="M213.567 63.746c0-8.277 6.711-14.988 14.988-14.988 8.278 0 14.987 6.711 14.987 14.988 0 8.276-6.709 14.988-14.987 14.988-8.277 0-14.988-6.712-14.988-14.988h-.181c0 8.378 6.792 15.17 15.169 15.17 8.378 0 15.17-6.792 15.17-15.17s-6.792-15.17-15.17-15.17c-8.377 0-15.169 6.792-15.169 15.17"/><path d="M213.386 63.746c0-8.378 6.792-15.17 15.169-15.17 8.378 0 15.17 6.792 15.17 15.17 0 8.379-6.792 15.17-15.17 15.17-8.377 0-15.169-6.791-15.169-15.17h-.184c0 8.479 6.874 15.353 15.353 15.353s15.353-6.874 15.353-15.353c0-8.478-6.874-15.353-15.353-15.353s-15.353 6.875-15.353 15.353"/><path d="M213.202 63.746c0-8.479 6.874-15.353 15.353-15.353s15.353 6.874 15.353 15.353S237.034 79.1 228.555 79.1s-15.353-6.874-15.353-15.353h-.183c0 8.58 6.957 15.536 15.536 15.536s15.536-6.957 15.536-15.536-6.957-15.536-15.536-15.536-15.536 6.957-15.536 15.536"/><path d="M213.019 63.746c0-8.579 6.957-15.535 15.536-15.535s15.536 6.956 15.536 15.535c0 8.58-6.957 15.536-15.536 15.536s-15.536-6.956-15.536-15.535h-.183c0 8.68 7.038 15.718 15.719 15.718s15.718-7.038 15.718-15.719c0-8.68-7.037-15.718-15.718-15.718-8.681 0-15.719 7.038-15.719 15.718"/><path d="M212.836 63.747c0-8.681 7.038-15.719 15.719-15.719s15.718 7.038 15.718 15.719c0 8.68-7.037 15.718-15.718 15.718-8.681 0-15.719-7.038-15.719-15.718h-.182c0 8.78 7.12 15.9 15.901 15.9 8.781 0 15.901-7.12 15.901-15.9 0-8.782-7.12-15.902-15.901-15.902-8.781 0-15.901 7.12-15.901 15.902"/><path d="M212.653 63.746c0-8.78 7.12-15.9 15.902-15.9 8.781 0 15.901 7.12 15.901 15.9 0 8.782-7.12 15.902-15.901 15.902-8.782 0-15.902-7.12-15.902-15.901h-.182c0 8.883 7.201 16.084 16.084 16.084s16.084-7.201 16.084-16.085c0-8.883-7.201-16.084-16.084-16.084s-16.084 7.201-16.084 16.084"/><path d="M212.471 63.746c0-8.883 7.201-16.084 16.084-16.084s16.084 7.2 16.084 16.084c0 8.883-7.201 16.084-16.084 16.084s-16.084-7.2-16.084-16.084h-.183c0 8.984 7.283 16.267 16.267 16.267 8.983 0 16.267-7.283 16.267-16.267 0-8.983-7.284-16.267-16.267-16.267-8.984 0-16.267 7.284-16.267 16.267"/><path d="M212.288 63.746c0-8.984 7.283-16.267 16.267-16.267 8.983 0 16.267 7.283 16.267 16.267 0 8.983-7.284 16.267-16.267 16.267-8.984 0-16.267-7.284-16.267-16.267h-.183c0 9.085 7.366 16.45 16.45 16.45 9.085 0 16.449-7.365 16.449-16.45 0-9.084-7.364-16.45-16.449-16.45-9.084 0-16.45 7.366-16.45 16.45"/><path d="M212.105 63.746c0-9.084 7.366-16.45 16.45-16.45 9.085 0 16.449 7.366 16.449 16.45 0 9.086-7.364 16.45-16.449 16.45-9.084 0-16.45-7.364-16.45-16.45h-.183c0 9.186 7.447 16.632 16.633 16.632s16.632-7.446 16.632-16.632c0-9.186-7.446-16.632-16.632-16.632-9.186 0-16.633 7.446-16.633 16.632"/><path d="M211.922 63.746c0-9.186 7.447-16.632 16.633-16.632s16.632 7.446 16.632 16.632c0 9.186-7.446 16.633-16.632 16.633-9.186 0-16.633-7.447-16.633-16.633h-.182c0 9.286 7.529 16.815 16.815 16.815 9.286 0 16.815-7.529 16.815-16.815 0-9.286-7.529-16.815-16.815-16.815-9.286 0-16.815 7.529-16.815 16.815"/><path d="M211.74 63.746c0-9.286 7.529-16.815 16.815-16.815 9.286 0 16.815 7.53 16.815 16.815 0 9.286-7.529 16.815-16.815 16.815-9.286 0-16.815-7.529-16.815-16.815h-.183c0 9.387 7.611 16.998 16.998 16.998 9.388 0 16.998-7.611 16.998-16.998 0-9.386-7.61-16.998-16.998-16.998-9.387 0-16.998 7.612-16.998 16.998"/><path d="M211.557 63.746c0-9.387 7.611-16.998 16.998-16.998 9.388 0 16.998 7.611 16.998 16.998 0 9.386-7.61 16.998-16.998 16.998-9.387 0-16.998-7.612-16.998-16.998h-.183c0 9.488 7.692 17.18 17.181 17.18 9.488 0 17.18-7.692 17.18-17.18 0-9.489-7.692-17.18-17.18-17.18-9.489 0-17.181 7.691-17.181 17.18"/><path d="M211.374 63.746c0-9.488 7.692-17.18 17.181-17.18 9.488 0 17.18 7.692 17.18 17.18 0 9.489-7.692 17.18-17.18 17.18-9.489 0-17.181-7.691-17.181-17.18h-.183c0 9.589 7.775 17.364 17.364 17.364s17.363-7.775 17.363-17.364-7.774-17.363-17.363-17.363c-9.589 0-17.364 7.774-17.364 17.363"/><path d="M211.191 63.746c0-9.589 7.775-17.364 17.364-17.364s17.363 7.775 17.363 17.364-7.774 17.363-17.363 17.363c-9.589 0-17.364-7.774-17.364-17.363h-.182c0 9.69 7.855 17.546 17.546 17.546 9.69 0 17.546-7.856 17.546-17.546S238.245 46.2 228.555 46.2c-9.691 0-17.546 7.855-17.546 17.546"/><path d="M211.009 63.746c0-9.69 7.855-17.546 17.546-17.546 9.69 0 17.546 7.856 17.546 17.546s-7.856 17.546-17.546 17.546c-9.691 0-17.546-7.855-17.546-17.546h-.183c0 9.791 7.938 17.73 17.729 17.73s17.729-7.939 17.729-17.73c0-9.79-7.938-17.729-17.729-17.729s-17.729 7.938-17.729 17.73"/><path d="M210.826 63.746c0-9.79 7.938-17.728 17.729-17.728s17.729 7.938 17.729 17.728c0 9.791-7.938 17.73-17.729 17.73s-17.729-7.939-17.729-17.73h-.183c0 9.893 8.021 17.912 17.912 17.912 9.893 0 17.912-8.019 17.912-17.912 0-9.89-8.019-17.911-17.912-17.911-9.891 0-17.912 8.02-17.912 17.911"/><path d="M210.643 63.747c0-9.892 8.02-17.912 17.912-17.912 9.893 0 17.911 8.02 17.911 17.912s-8.018 17.911-17.911 17.911c-9.892 0-17.912-8.019-17.912-17.911h-.183c0 9.993 8.102 18.094 18.095 18.094 9.993 0 18.094-8.101 18.094-18.094 0-9.994-8.101-18.095-18.094-18.095s-18.095 8.101-18.095 18.095"/><path d="M210.46 63.746c0-9.993 8.102-18.094 18.095-18.094 9.993 0 18.094 8.101 18.094 18.094 0 9.994-8.101 18.095-18.094 18.095S210.46 73.74 210.46 63.746h-.182c0 10.094 8.183 18.277 18.277 18.277 10.093 0 18.277-8.183 18.277-18.277 0-10.093-8.184-18.277-18.277-18.277-10.094 0-18.277 8.184-18.277 18.277"/><path d="M210.278 63.746c0-10.093 8.183-18.277 18.277-18.277 10.093 0 18.277 8.184 18.277 18.277 0 10.094-8.184 18.277-18.277 18.277-10.094 0-18.277-8.183-18.277-18.277h-.183c0 10.196 8.266 18.46 18.46 18.46 10.195 0 18.46-8.264 18.46-18.46 0-10.194-8.265-18.46-18.46-18.46-10.194 0-18.46 8.266-18.46 18.46"/><path d="M210.095 63.746c0-10.194 8.266-18.46 18.46-18.46 10.195 0 18.46 8.266 18.46 18.46 0 10.196-8.265 18.46-18.46 18.46-10.194 0-18.46-8.264-18.46-18.46h-.183c0 10.296 8.347 18.643 18.643 18.643 10.296 0 18.643-8.347 18.643-18.643 0-10.296-8.347-18.643-18.643-18.643-10.296 0-18.643 8.347-18.643 18.643"/><path d="M209.912 63.747c0-10.296 8.347-18.643 18.643-18.643 10.296 0 18.642 8.347 18.642 18.643 0 10.295-8.346 18.642-18.642 18.642s-18.643-8.347-18.643-18.642h-.183c0 10.396 8.43 18.825 18.826 18.825s18.825-8.43 18.825-18.825c0-10.397-8.429-18.826-18.825-18.826-10.396 0-18.826 8.43-18.826 18.826"/><path d="M209.729 63.746c0-10.396 8.43-18.826 18.826-18.826s18.825 8.43 18.825 18.826-8.429 18.825-18.825 18.825c-10.396 0-18.826-8.429-18.826-18.825h-.182c0 10.498 8.51 19.008 19.008 19.008s19.008-8.51 19.008-19.008-8.51-19.008-19.008-19.008-19.008 8.51-19.008 19.008"/><path d="M209.547 63.746c0-10.498 8.51-19.008 19.008-19.008s19.008 8.51 19.008 19.008-8.51 19.008-19.008 19.008-19.008-8.51-19.008-19.008h-.183c0 10.598 8.592 19.191 19.191 19.191 10.598 0 19.191-8.593 19.191-19.191 0-10.598-8.593-19.19-19.191-19.19-10.599 0-19.191 8.592-19.191 19.19"/><path d="M209.364 63.746c0-10.598 8.592-19.19 19.191-19.19 10.598 0 19.191 8.592 19.191 19.19s-8.593 19.191-19.191 19.191c-10.599 0-19.191-8.593-19.191-19.19h-.183c0 10.7 8.675 19.373 19.374 19.373 10.7 0 19.374-8.674 19.374-19.374s-8.674-19.374-19.374-19.374c-10.699 0-19.374 8.674-19.374 19.374"/><path d="M209.181 63.747c0-10.7 8.675-19.374 19.374-19.374 10.7 0 19.373 8.674 19.373 19.374s-8.673 19.374-19.373 19.374c-10.699 0-19.374-8.674-19.374-19.374h-.183c0 10.8 8.756 19.556 19.557 19.556 10.8 0 19.556-8.756 19.556-19.556s-8.756-19.557-19.556-19.557c-10.801 0-19.557 8.756-19.557 19.557"/><path d="M208.998 63.746c0-10.8 8.756-19.557 19.557-19.557 10.801 0 19.556 8.756 19.556 19.557 0 10.8-8.755 19.556-19.556 19.556s-19.557-8.756-19.557-19.556h-.182c0 10.9 8.838 19.74 19.739 19.74 10.901 0 19.739-8.84 19.739-19.74 0-10.901-8.838-19.74-19.739-19.74-10.901 0-19.739 8.839-19.739 19.74"/><path d="M208.816 63.746c0-10.9 8.838-19.739 19.739-19.739 10.901 0 19.739 8.838 19.739 19.74 0 10.9-8.838 19.739-19.739 19.739-10.901 0-19.739-8.839-19.739-19.74h-.183c0 11.003 8.921 19.922 19.922 19.922 11.003 0 19.922-8.919 19.922-19.922 0-11.001-8.919-19.922-19.922-19.922-11.001 0-19.922 8.92-19.922 19.922"/><path d="M208.633 63.746c0-11.001 8.921-19.922 19.922-19.922 11.003 0 19.922 8.92 19.922 19.922 0 11.003-8.919 19.922-19.922 19.922-11.001 0-19.922-8.919-19.922-19.922h-.183c0 11.104 9.002 20.105 20.105 20.105s20.105-9.001 20.105-20.105c0-11.103-9.002-20.104-20.105-20.104s-20.105 9.001-20.105 20.104"/><path d="M208.45 63.746c0-11.103 9.002-20.105 20.105-20.105s20.105 9.002 20.105 20.105-9.002 20.105-20.105 20.105-20.105-9.002-20.105-20.105h-.183c0 11.203 9.084 20.287 20.288 20.287s20.287-9.084 20.287-20.287c0-11.204-9.083-20.288-20.287-20.288-11.204 0-20.288 9.084-20.288 20.288"/><path d="M208.267 63.746c0-11.204 9.084-20.288 20.288-20.288s20.287 9.084 20.287 20.288-9.083 20.288-20.287 20.288c-11.204 0-20.288-9.084-20.288-20.288h-.182c0 11.306 9.164 20.47 20.47 20.47 11.305 0 20.47-9.164 20.47-20.47 0-11.305-9.165-20.47-20.47-20.47-11.306 0-20.47 9.165-20.47 20.47"/><path d="M208.085 63.746c0-11.305 9.164-20.47 20.47-20.47 11.305 0 20.47 9.165 20.47 20.47 0 11.306-9.165 20.47-20.47 20.47-11.306 0-20.47-9.164-20.47-20.47h-.183c0 11.406 9.247 20.653 20.653 20.653 11.406 0 20.653-9.247 20.653-20.653 0-11.406-9.247-20.653-20.653-20.653-11.406 0-20.653 9.247-20.653 20.653"/><path d="M207.902 63.747c0-11.406 9.247-20.653 20.653-20.653 11.406 0 20.653 9.247 20.653 20.653 0 11.406-9.247 20.653-20.653 20.653-11.406 0-20.653-9.247-20.653-20.653h-.183c0 11.507 9.328 20.835 20.836 20.835 11.507 0 20.836-9.328 20.836-20.835 0-11.508-9.329-20.836-20.836-20.836-11.508 0-20.836 9.328-20.836 20.836"/><path d="M207.719 63.746c0-11.507 9.328-20.835 20.836-20.835s20.836 9.328 20.836 20.835c0 11.508-9.328 20.836-20.836 20.836s-20.836-9.328-20.836-20.836h-.183c0 11.608 9.411 21.019 21.019 21.019 11.608 0 21.019-9.41 21.019-21.019 0-11.608-9.411-21.018-21.019-21.018-11.608 0-21.019 9.41-21.019 21.018"/><path d="M207.536 63.746c0-11.608 9.411-21.018 21.019-21.018 11.608 0 21.018 9.41 21.018 21.018s-9.41 21.019-21.018 21.019-21.019-9.41-21.019-21.019h-.182c0 11.709 9.492 21.202 21.201 21.202 11.71 0 21.201-9.493 21.201-21.202 0-11.708-9.491-21.2-21.201-21.2-11.709 0-21.201 9.492-21.201 21.2"/><path d="M207.353 63.746c0-11.708 9.493-21.201 21.202-21.201 11.71 0 21.201 9.493 21.201 21.201s-9.491 21.201-21.201 21.201c-11.709 0-21.202-9.493-21.202-21.2h-.182c0 11.81 9.575 21.383 21.384 21.383 11.81 0 21.384-9.574 21.384-21.384s-9.574-21.384-21.384-21.384c-11.809 0-21.384 9.574-21.384 21.384"/><path d="M207.171 63.746c0-11.81 9.575-21.384 21.384-21.384 11.81 0 21.384 9.574 21.384 21.384s-9.574 21.384-21.384 21.384c-11.809 0-21.384-9.573-21.384-21.384h-.183c0 11.911 9.656 21.567 21.567 21.567 11.91 0 21.567-9.656 21.567-21.567 0-11.91-9.657-21.566-21.567-21.566-11.911 0-21.567 9.656-21.567 21.566"/><path d="M206.988 63.746c0-11.91 9.656-21.567 21.567-21.567s21.567 9.657 21.567 21.567-9.656 21.567-21.567 21.567-21.567-9.656-21.567-21.567h-.183c0 12.011 9.739 21.75 21.75 21.75s21.75-9.739 21.75-21.75c0-12.01-9.739-21.75-21.75-21.75s-21.75 9.74-21.75 21.75"/><path d="M206.805 63.746c0-12.011 9.739-21.75 21.75-21.75s21.749 9.739 21.749 21.75c0 12.01-9.738 21.75-21.749 21.75s-21.75-9.74-21.75-21.75h-.183c0 12.113 9.82 21.932 21.933 21.932s21.932-9.82 21.932-21.932c0-12.113-9.819-21.933-21.932-21.933-12.113 0-21.933 9.82-21.933 21.933"/><path d="M206.622 63.746c0-12.112 9.82-21.932 21.933-21.932s21.932 9.82 21.932 21.932c0 12.113-9.819 21.933-21.932 21.933-12.113 0-21.933-9.82-21.933-21.933h-.182c0 12.214 9.902 22.116 22.115 22.116s22.115-9.902 22.115-22.115c0-12.214-9.902-22.116-22.115-22.116s-22.115 9.902-22.115 22.115"/><path d="M206.44 63.746c0-12.213 9.902-22.115 22.115-22.115s22.115 9.902 22.115 22.115c0 12.214-9.902 22.115-22.115 22.115S206.44 75.96 206.44 63.746h-.183c0 12.315 9.983 22.298 22.298 22.298 12.315 0 22.298-9.983 22.298-22.298 0-12.315-9.983-22.297-22.298-22.297-12.315 0-22.298 9.982-22.298 22.297"/><path d="M206.257 63.746c0-12.315 9.983-22.298 22.298-22.298 12.315 0 22.298 9.983 22.298 22.298 0 12.315-9.983 22.298-22.298 22.298-12.315 0-22.298-9.983-22.298-22.298h-.183c0 12.416 10.065 22.48 22.481 22.48 12.415 0 22.48-10.064 22.48-22.48 0-12.415-10.065-22.48-22.48-22.48-12.416 0-22.481 10.065-22.481 22.48"/><path d="M206.074 63.746c0-12.415 10.065-22.48 22.481-22.48 12.415 0 22.48 10.065 22.48 22.48 0 12.416-10.065 22.48-22.48 22.48-12.416 0-22.481-10.064-22.481-22.48h-.183c0 12.518 10.148 22.664 22.664 22.664 12.517 0 22.663-10.146 22.663-22.664 0-12.516-10.146-22.663-22.663-22.663-12.516 0-22.664 10.147-22.664 22.663"/><path d="M205.891 63.746c0-12.516 10.148-22.663 22.664-22.663 12.517 0 22.663 10.147 22.663 22.663 0 12.517-10.146 22.663-22.663 22.663-12.516 0-22.664-10.146-22.664-22.663h-.182c0 12.618 10.228 22.846 22.846 22.846s22.846-10.228 22.846-22.846S241.173 40.9 228.555 40.9s-22.846 10.228-22.846 22.846"/><path d="M205.709 63.746c0-12.618 10.228-22.846 22.846-22.846s22.846 10.228 22.846 22.846-10.228 22.846-22.846 22.846-22.846-10.228-22.846-22.846h-.183c0 12.718 10.311 23.029 23.029 23.029s23.029-10.31 23.029-23.029c0-12.718-10.311-23.029-23.029-23.029s-23.029 10.31-23.029 23.029"/><path d="M205.526 63.746c0-12.718 10.311-23.029 23.029-23.029s23.029 10.311 23.029 23.03c0 12.718-10.311 23.028-23.029 23.028s-23.029-10.31-23.029-23.029h-.183c0 12.819 10.393 23.212 23.212 23.212 12.82 0 23.211-10.393 23.211-23.212 0-12.818-10.391-23.211-23.211-23.211-12.819 0-23.212 10.393-23.212 23.211"/><path d="M205.343 63.747c0-12.819 10.393-23.212 23.212-23.212 12.82 0 23.211 10.393 23.211 23.212 0 12.818-10.391 23.211-23.211 23.211-12.819 0-23.212-10.393-23.212-23.211h-.183c0 12.92 10.474 23.394 23.395 23.394 12.92 0 23.394-10.474 23.394-23.394 0-12.92-10.474-23.395-23.394-23.395-12.921 0-23.395 10.474-23.395 23.395"/><path d="M205.161 63.746c0-12.92 10.474-23.395 23.394-23.395 12.92 0 23.394 10.474 23.394 23.395 0 12.92-10.474 23.394-23.394 23.394-12.92 0-23.394-10.474-23.394-23.394h-.183c0 13.02 10.556 23.577 23.577 23.577 13.021 0 23.577-10.556 23.577-23.577 0-13.02-10.556-23.577-23.577-23.577-13.021 0-23.577 10.556-23.577 23.577"/><path d="M204.978 63.746c0-13.02 10.556-23.577 23.577-23.577 13.021 0 23.577 10.557 23.577 23.577 0 13.021-10.556 23.578-23.577 23.578-13.021 0-23.577-10.557-23.577-23.578h-.183c0 13.123 10.637 23.76 23.76 23.76 13.122 0 23.76-10.637 23.76-23.76 0-13.122-10.638-23.76-23.76-23.76-13.123 0-23.76 10.638-23.76 23.76"/><path d="M204.795 63.746c0-13.122 10.637-23.76 23.76-23.76 13.122 0 23.76 10.638 23.76 23.76 0 13.123-10.638 23.76-23.76 23.76-13.123 0-23.76-10.637-23.76-23.76h-.183c0 13.223 10.72 23.943 23.943 23.943s23.943-10.72 23.943-23.943-10.72-23.942-23.943-23.942-23.943 10.72-23.943 23.942"/><path d="M204.612 63.746c0-13.223 10.72-23.943 23.943-23.943s23.943 10.72 23.943 23.943-10.72 23.942-23.943 23.942-23.943-10.72-23.943-23.942h-.182c0 13.324 10.802 24.125 24.125 24.125 13.325 0 24.125-10.8 24.125-24.125 0-13.324-10.8-24.126-24.125-24.126-13.323 0-24.125 10.802-24.125 24.126"/><path d="M204.429 63.746c0-13.323 10.803-24.125 24.126-24.125 13.325 0 24.125 10.802 24.125 24.125 0 13.325-10.8 24.125-24.125 24.125-13.323 0-24.126-10.8-24.126-24.125h-.182c0 13.425 10.883 24.308 24.308 24.308s24.308-10.883 24.308-24.308-10.883-24.308-24.308-24.308-24.308 10.883-24.308 24.308"/><path d="M204.247 63.746c0-13.425 10.883-24.308 24.308-24.308s24.308 10.883 24.308 24.308-10.883 24.308-24.308 24.308-24.308-10.883-24.308-24.308h-.183c0 13.526 10.965 24.491 24.491 24.491 13.525 0 24.491-10.965 24.491-24.49 0-13.526-10.966-24.492-24.491-24.492-13.526 0-24.491 10.966-24.491 24.491"/><path d="M204.064 63.747c0-13.526 10.965-24.491 24.491-24.491 13.525 0 24.491 10.965 24.491 24.491 0 13.525-10.966 24.49-24.491 24.49-13.526 0-24.491-10.965-24.491-24.49h-.183c0 13.627 11.048 24.674 24.674 24.674 13.627 0 24.673-11.047 24.673-24.674 0-13.626-11.046-24.674-24.673-24.674-13.626 0-24.674 11.048-24.674 24.674"/><path d="M203.881 63.747c0-13.626 11.048-24.674 24.674-24.674 13.627 0 24.674 11.048 24.674 24.674 0 13.627-11.047 24.673-24.674 24.673-13.626 0-24.674-11.046-24.674-24.673h-.183c0 13.727 11.129 24.856 24.857 24.856s24.856-11.129 24.856-24.856c0-13.728-11.128-24.857-24.856-24.857-13.728 0-24.857 11.129-24.857 24.857"/><path d="M203.698 63.747c0-13.728 11.129-24.856 24.857-24.856s24.856 11.128 24.856 24.856c0 13.728-11.128 24.856-24.856 24.856-13.728 0-24.857-11.128-24.857-24.856h-.182c0 13.828 11.211 25.04 25.039 25.04 13.828 0 25.039-11.212 25.039-25.04s-11.211-25.04-25.039-25.04c-13.828 0-25.039 11.212-25.039 25.04"/><path d="M203.516 63.746c0-13.828 11.211-25.039 25.039-25.039 13.828 0 25.039 11.211 25.039 25.04 0 13.828-11.211 25.039-25.039 25.039-13.828 0-25.039-11.211-25.039-25.04h-.183c0 13.93 11.292 25.223 25.222 25.223 13.93 0 25.222-11.292 25.222-25.222 0-13.93-11.292-25.222-25.222-25.222-13.93 0-25.222 11.292-25.222 25.221"/><path d="M203.333 63.746c0-13.93 11.292-25.222 25.222-25.222 13.93 0 25.222 11.292 25.222 25.222 0 13.93-11.292 25.222-25.222 25.222-13.93 0-25.222-11.292-25.222-25.222h-.183c0 14.03 11.375 25.405 25.405 25.405 14.03 0 25.405-11.374 25.405-25.405 0-14.03-11.375-25.404-25.405-25.404-14.03 0-25.405 11.374-25.405 25.404"/><path d="M203.15 63.746c0-14.03 11.375-25.405 25.405-25.405 14.03 0 25.405 11.374 25.405 25.405 0 14.03-11.375 25.404-25.405 25.404-14.03 0-25.405-11.374-25.405-25.404h-.183c0 14.132 11.457 25.587 25.588 25.587 14.132 0 25.587-11.455 25.587-25.587s-11.455-25.588-25.587-25.588c-14.131 0-25.588 11.456-25.588 25.588"/><path d="M202.967 63.746c0-14.133 11.457-25.588 25.588-25.588 14.132 0 25.587 11.455 25.587 25.588 0 14.132-11.455 25.587-25.587 25.587-14.131 0-25.588-11.455-25.588-25.587h-.182c0 14.232 11.537 25.77 25.77 25.77 14.232 0 25.77-11.538 25.77-25.77 0-14.233-11.538-25.77-25.77-25.77-14.233 0-25.77 11.537-25.77 25.77"/><path d="M202.785 63.746c0-14.232 11.537-25.77 25.77-25.77 14.232 0 25.77 11.538 25.77 25.77 0 14.233-11.538 25.77-25.77 25.77-14.233 0-25.77-11.537-25.77-25.77h-.183c0 14.333 11.62 25.953 25.953 25.953s25.953-11.62 25.953-25.953-11.62-25.953-25.953-25.953-25.953 11.62-25.953 25.953"/><path d="M202.602 63.746c0-14.333 11.62-25.953 25.953-25.953s25.953 11.62 25.953 25.953S242.888 89.7 228.555 89.7s-25.953-11.62-25.953-25.953h-.183c0 14.435 11.703 26.136 26.136 26.136 14.435 0 26.136-11.7 26.136-26.136 0-14.433-11.701-26.135-26.136-26.135-14.433 0-26.136 11.702-26.136 26.135"/><path d="M202.419 63.746c0-14.433 11.703-26.136 26.136-26.136 14.435 0 26.136 11.703 26.136 26.136 0 14.435-11.701 26.136-26.136 26.136-14.433 0-26.136-11.701-26.136-26.136h-.183c0 14.535 11.784 26.318 26.319 26.318 14.535 0 26.318-11.783 26.318-26.318 0-14.535-11.783-26.319-26.318-26.319-14.535 0-26.319 11.784-26.319 26.319"/><path d="M202.236 63.746c0-14.535 11.784-26.318 26.319-26.318 14.535 0 26.318 11.783 26.318 26.318 0 14.535-11.783 26.319-26.318 26.319-14.535 0-26.319-11.784-26.319-26.319h-.182c0 14.636 11.865 26.502 26.501 26.502 14.635 0 26.501-11.866 26.501-26.502 0-14.635-11.866-26.501-26.501-26.501-14.636 0-26.501 11.866-26.501 26.501"/><path d="M202.054 63.746c0-14.636 11.865-26.501 26.501-26.501 14.635 0 26.501 11.865 26.501 26.5 0 14.637-11.866 26.502-26.501 26.502-14.636 0-26.501-11.865-26.501-26.501h-.183c0 14.737 11.947 26.684 26.684 26.684 14.737 0 26.684-11.947 26.684-26.684 0-14.738-11.947-26.684-26.684-26.684-14.737 0-26.684 11.947-26.684 26.684"/><path d="M201.871 63.746c0-14.737 11.946-26.684 26.684-26.684 14.737 0 26.684 11.947 26.684 26.684 0 14.737-11.947 26.684-26.684 26.684-14.738 0-26.684-11.947-26.684-26.684h-.183c0 14.838 12.029 26.867 26.867 26.867 14.838 0 26.867-12.03 26.867-26.867 0-14.838-12.029-26.867-26.867-26.867-14.838 0-26.867 12.03-26.867 26.867"/><path d="M201.688 63.746c0-14.838 12.029-26.867 26.867-26.867 14.838 0 26.867 12.03 26.867 26.867 0 14.838-12.029 26.867-26.867 26.867-14.838 0-26.867-12.03-26.867-26.867h-.183c0 14.94 12.11 27.05 27.05 27.05 14.939 0 27.049-12.11 27.049-27.05 0-14.94-12.11-27.05-27.049-27.05-14.94 0-27.05 12.11-27.05 27.05"/><path d="M201.505 63.746c0-14.94 12.11-27.05 27.05-27.05 14.94 0 27.049 12.11 27.049 27.05 0 14.94-12.109 27.05-27.049 27.05s-27.05-12.11-27.05-27.05h-.182c0 15.04 12.192 27.232 27.232 27.232s27.232-12.192 27.232-27.232-12.192-27.232-27.232-27.232-27.232 12.192-27.232 27.232"/><path d="M201.323 63.746c0-15.04 12.192-27.232 27.232-27.232s27.232 12.192 27.232 27.232-12.192 27.232-27.232 27.232-27.232-12.192-27.232-27.232h-.183c0 15.14 12.275 27.415 27.415 27.415 15.142 0 27.415-12.275 27.415-27.415 0-15.14-12.273-27.415-27.415-27.415-15.14 0-27.415 12.274-27.415 27.415"/><path d="M201.14 63.747c0-15.14 12.274-27.415 27.415-27.415 15.142 0 27.415 12.274 27.415 27.415 0 15.14-12.273 27.415-27.415 27.415-15.141 0-27.415-12.275-27.415-27.415h-.183c0 15.242 12.357 27.597 27.598 27.597 15.242 0 27.598-12.355 27.598-27.597s-12.356-27.598-27.598-27.598c-15.241 0-27.598 12.355-27.598 27.598"/><path d="M200.957 63.747c0-15.242 12.357-27.598 27.598-27.598 15.242 0 27.598 12.356 27.598 27.598 0 15.242-12.356 27.598-27.598 27.598-15.241 0-27.598-12.356-27.598-27.598h-.183c0 15.342 12.438 27.78 27.781 27.78 15.342 0 27.78-12.438 27.78-27.78 0-15.343-12.438-27.78-27.78-27.78-15.343 0-27.781 12.437-27.781 27.78"/><path d="M200.774 63.747c0-15.343 12.438-27.78 27.781-27.78 15.343 0 27.78 12.437 27.78 27.78 0 15.342-12.437 27.78-27.78 27.78-15.343 0-27.781-12.438-27.781-27.78h-.182c0 15.443 12.52 27.963 27.963 27.963 15.443 0 27.963-12.52 27.963-27.963 0-15.443-12.52-27.964-27.963-27.964-15.443 0-27.963 12.52-27.963 27.964"/><path d="M200.592 63.746c0-15.443 12.52-27.963 27.963-27.963 15.443 0 27.963 12.52 27.963 27.963 0 15.443-12.52 27.963-27.963 27.963-15.443 0-27.963-12.52-27.963-27.963h-.183c0 15.545 12.601 28.146 28.146 28.146s28.146-12.601 28.146-28.146S244.1 35.6 228.555 35.6 200.409 48.2 200.409 63.746"/><path d="M200.409 63.746c0-15.545 12.601-28.146 28.146-28.146s28.146 12.601 28.146 28.146-12.601 28.146-28.146 28.146-28.146-12.601-28.146-28.146h-.183c0 15.645 12.684 28.329 28.329 28.329 15.645 0 28.329-12.684 28.329-28.329 0-15.645-12.684-28.329-28.329-28.329-15.645 0-28.329 12.684-28.329 28.33"/><path d="M200.226 63.745c0-15.645 12.684-28.328 28.329-28.328 15.645 0 28.329 12.683 28.329 28.328 0 15.646-12.684 28.33-28.329 28.33-15.645 0-28.329-12.684-28.329-28.33h-.183c0 15.748 12.765 28.512 28.512 28.512s28.511-12.764 28.511-28.512c0-15.747-12.764-28.511-28.511-28.511s-28.512 12.764-28.512 28.511"/><path d="M200.043 63.747c0-15.748 12.765-28.512 28.512-28.512s28.511 12.764 28.511 28.512c0 15.747-12.764 28.511-28.511 28.511s-28.512-12.764-28.512-28.511h-.183c0 15.847 12.847 28.694 28.695 28.694 15.847 0 28.694-12.847 28.694-28.694 0-15.848-12.847-28.695-28.694-28.695-15.848 0-28.695 12.847-28.695 28.695"/><path d="M199.86 63.746c0-15.847 12.847-28.694 28.695-28.694 15.847 0 28.694 12.847 28.694 28.694 0 15.848-12.847 28.694-28.694 28.694-15.848 0-28.695-12.846-28.695-28.694h-.182c0 15.95 12.929 28.877 28.877 28.877 15.949 0 28.877-12.928 28.877-28.877 0-15.948-12.928-28.877-28.877-28.877-15.948 0-28.877 12.93-28.877 28.877"/><path d="M199.678 63.746c0-15.948 12.929-28.877 28.877-28.877 15.949 0 28.877 12.93 28.877 28.877 0 15.95-12.928 28.877-28.877 28.877-15.948 0-28.877-12.927-28.877-28.877h-.183c0 16.05 13.01 29.06 29.06 29.06 16.049 0 29.06-13.01 29.06-29.06 0-16.05-13.011-29.06-29.06-29.06-16.05 0-29.06 13.01-29.06 29.06"/><path d="M199.495 63.746c0-16.05 13.01-29.06 29.06-29.06 16.049 0 29.06 13.01 29.06 29.06 0 16.05-13.011 29.06-29.06 29.06-16.05 0-29.06-13.01-29.06-29.06h-.183c0 16.15 13.093 29.243 29.243 29.243s29.242-13.093 29.242-29.243-13.092-29.242-29.242-29.242-29.243 13.092-29.243 29.242"/><path d="M199.312 63.746c0-16.15 13.093-29.243 29.243-29.243s29.242 13.093 29.242 29.243-13.092 29.243-29.242 29.243-29.243-13.093-29.243-29.243h-.183c0 16.25 13.175 29.425 29.426 29.425 16.252 0 29.425-13.175 29.425-29.425s-13.173-29.425-29.425-29.425c-16.251 0-29.426 13.175-29.426 29.425"/><path d="M199.129 63.746c0-16.25 13.175-29.425 29.426-29.425 16.252 0 29.425 13.175 29.425 29.425S244.807 93.17 228.555 93.17c-16.251 0-29.426-13.175-29.426-29.425h-.182c0 16.352 13.256 29.608 29.608 29.608s29.608-13.256 29.608-29.608-13.256-29.608-29.608-29.608-29.608 13.256-29.608 29.608"/><path d="M198.947 63.746c0-16.352 13.256-29.608 29.608-29.608s29.608 13.256 29.608 29.608-13.256 29.608-29.608 29.608-29.608-13.256-29.608-29.608h-.183c0 16.452 13.338 29.79 29.791 29.79 16.452 0 29.791-13.338 29.791-29.79 0-16.453-13.339-29.791-29.791-29.791-16.453 0-29.791 13.338-29.791 29.79"/><path d="M198.764 63.746c0-16.452 13.338-29.79 29.791-29.79 16.452 0 29.791 13.338 29.791 29.79 0 16.453-13.339 29.791-29.791 29.791-16.453 0-29.791-13.338-29.791-29.79h-.183c0 16.554 13.419 29.973 29.974 29.973 16.554 0 29.973-13.42 29.973-29.974 0-16.554-13.419-29.973-29.973-29.973-16.555 0-29.974 13.419-29.974 29.973"/><path d="M198.581 63.746c0-16.554 13.419-29.973 29.974-29.973 16.554 0 29.974 13.419 29.974 29.973 0 16.555-13.42 29.974-29.974 29.974-16.555 0-29.974-13.42-29.974-29.974h-.182c0 16.655 13.501 30.157 30.156 30.157s30.156-13.502 30.156-30.157c0-16.654-13.501-30.156-30.156-30.156s-30.156 13.502-30.156 30.156"/><path d="M198.398 63.746c0-16.655 13.502-30.156 30.157-30.156s30.156 13.501 30.156 30.156-13.501 30.157-30.156 30.157-30.157-13.502-30.157-30.157h-.182c0 16.757 13.584 30.34 30.339 30.34 16.757 0 30.339-13.583 30.339-30.34 0-16.755-13.582-30.339-30.339-30.339-16.755 0-30.339 13.584-30.339 30.34"/><path d="M198.216 63.746c0-16.755 13.584-30.34 30.339-30.34 16.757 0 30.339 13.585 30.339 30.34 0 16.757-13.582 30.34-30.339 30.34-16.755 0-30.339-13.583-30.339-30.34h-.183c0 16.857 13.665 30.522 30.522 30.522s30.523-13.665 30.523-30.522-13.666-30.522-30.523-30.522-30.522 13.665-30.522 30.522"/><path d="M198.033 63.746c0-16.857 13.665-30.522 30.522-30.522s30.523 13.665 30.523 30.522-13.666 30.522-30.523 30.522-30.522-13.665-30.522-30.522h-.183c0 16.958 13.747 30.705 30.705 30.705 16.957 0 30.704-13.747 30.704-30.705 0-16.957-13.747-30.704-30.704-30.704-16.958 0-30.705 13.747-30.705 30.704"/><path d="M197.85 63.746c0-16.958 13.747-30.705 30.705-30.705 16.957 0 30.704 13.747 30.704 30.705 0 16.957-13.747 30.704-30.704 30.704-16.958 0-30.705-13.747-30.705-30.704h-.183c0 17.059 13.83 30.889 30.888 30.889 17.059 0 30.887-13.83 30.887-30.89 0-17.057-13.828-30.887-30.887-30.887-17.058 0-30.888 13.83-30.888 30.888"/><path d="M197.667 63.746c0-17.058 13.83-30.888 30.888-30.888 17.059 0 30.887 13.83 30.887 30.888 0 17.06-13.828 30.889-30.887 30.889-17.058 0-30.888-13.83-30.888-30.889h-.182c0 17.16 13.91 31.07 31.07 31.07s31.072-13.91 31.072-31.07-13.912-31.07-31.072-31.07c-17.16 0-31.07 13.91-31.07 31.07"/><path d="M197.485 63.746c0-17.16 13.91-31.07 31.07-31.07s31.072 13.91 31.072 31.07-13.912 31.07-31.072 31.07c-17.16 0-31.07-13.91-31.07-31.07h-.183c0 17.26 13.993 31.253 31.253 31.253 17.26 0 31.253-13.993 31.253-31.253 0-17.26-13.993-31.253-31.253-31.253-17.26 0-31.253 13.993-31.253 31.253"/><path d="M197.302 63.746c0-17.26 13.993-31.253 31.253-31.253 17.26 0 31.253 13.993 31.253 31.253 0 17.26-13.993 31.253-31.253 31.253-17.26 0-31.253-13.993-31.253-31.253h-.183c0 17.362 14.074 31.437 31.436 31.437 17.362 0 31.436-14.075 31.436-31.437 0-17.362-14.074-31.436-31.436-31.436-17.362 0-31.436 14.074-31.436 31.436"/><path d="M197.119 63.746c0-17.362 14.074-31.435 31.436-31.435 17.362 0 31.435 14.073 31.435 31.435s-14.073 31.437-31.435 31.437-31.436-14.075-31.436-31.437h-.183c0 17.463 14.156 31.619 31.619 31.619 17.462 0 31.62-14.156 31.62-31.619 0-17.462-14.158-31.618-31.62-31.618-17.463 0-31.619 14.156-31.619 31.618"/><path d="M196.936 63.746c0-17.462 14.157-31.619 31.619-31.619s31.62 14.157 31.62 31.619-14.158 31.618-31.62 31.618c-17.462 0-31.619-14.156-31.619-31.618h-.184c0 17.564 14.24 31.801 31.803 31.801 17.564 0 31.801-14.237 31.801-31.801s-14.237-31.801-31.801-31.801c-17.563 0-31.803 14.237-31.803 31.8"/><path d="M196.752 63.746c0-17.564 14.24-31.8 31.803-31.8 17.564 0 31.801 14.236 31.801 31.8 0 17.565-14.237 31.802-31.801 31.802-17.563 0-31.803-14.237-31.803-31.802h-.181c0 17.665 14.319 31.986 31.984 31.986 17.664 0 31.984-14.321 31.984-31.986 0-17.664-14.32-31.985-31.984-31.985-17.665 0-31.984 14.321-31.984 31.985"/><path d="M196.571 63.746c0-17.664 14.319-31.985 31.984-31.985 17.664 0 31.984 14.32 31.984 31.985s-14.32 31.986-31.984 31.986c-17.665 0-31.984-14.321-31.984-31.986h-.183c0 17.765 14.402 32.167 32.167 32.167s32.168-14.402 32.168-32.167S246.32 31.58 228.555 31.58s-32.167 14.402-32.167 32.167"/><path d="M196.388 63.746c0-17.765 14.402-32.167 32.167-32.167s32.168 14.402 32.168 32.167-14.403 32.167-32.168 32.167-32.167-14.402-32.167-32.167h-.184c0 17.867 14.486 32.35 32.351 32.35 17.867 0 32.349-14.483 32.349-32.35s-14.482-32.35-32.349-32.35c-17.865 0-32.351 14.483-32.351 32.35"/><path d="M196.204 63.746c0-17.867 14.486-32.35 32.351-32.35 17.867 0 32.349 14.483 32.349 32.35s-14.482 32.35-32.349 32.35c-17.865 0-32.351-14.483-32.351-32.35h-.181c0 17.967 14.565 32.534 32.532 32.534s32.534-14.567 32.534-32.534-14.567-32.534-32.534-32.534-32.532 14.567-32.532 32.534"/><path d="M196.023 63.746c0-17.967 14.565-32.534 32.532-32.534s32.533 14.567 32.533 32.534-14.566 32.534-32.533 32.534-32.532-14.567-32.532-32.534h-.183c0 18.067 14.647 32.716 32.715 32.716 18.067 0 32.716-14.649 32.716-32.716 0-18.068-14.649-32.715-32.716-32.715-18.068 0-32.715 14.647-32.715 32.715"/><path d="M195.84 63.746c0-18.067 14.647-32.715 32.715-32.715 18.067 0 32.716 14.648 32.716 32.715 0 18.068-14.649 32.717-32.716 32.717-18.068 0-32.715-14.65-32.715-32.717h-.184c0 18.17 14.729 32.898 32.899 32.898 18.169 0 32.898-14.729 32.898-32.898 0-18.17-14.729-32.898-32.898-32.898-18.17 0-32.899 14.729-32.899 32.898"/><path d="M195.656 63.747c0-18.17 14.729-32.898 32.899-32.898 18.169 0 32.898 14.729 32.898 32.898 0 18.17-14.729 32.898-32.898 32.898-18.17 0-32.899-14.729-32.899-32.898h-.182c0 18.27 14.811 33.082 33.081 33.082 18.27 0 33.082-14.812 33.082-33.082 0-18.27-14.812-33.082-33.082-33.082-18.27 0-33.081 14.812-33.081 33.082"/><path d="M195.474 63.746c0-18.27 14.811-33.082 33.081-33.082 18.27 0 33.082 14.812 33.082 33.082 0 18.27-14.812 33.082-33.082 33.082-18.27 0-33.081-14.812-33.081-33.082h-.182c0 18.372 14.891 33.265 33.263 33.265 18.371 0 33.265-14.893 33.265-33.265s-14.894-33.263-33.265-33.263c-18.372 0-33.263 14.891-33.263 33.263"/><path d="M195.292 63.746c0-18.371 14.891-33.263 33.263-33.263 18.371 0 33.265 14.892 33.265 33.263 0 18.372-14.894 33.265-33.265 33.265-18.372 0-33.263-14.893-33.263-33.265h-.185c0 18.472 14.976 33.446 33.448 33.446s33.446-14.974 33.446-33.446c0-18.472-14.974-33.447-33.446-33.447-18.472 0-33.448 14.975-33.448 33.447"/><path d="M195.107 63.746c0-18.472 14.976-33.448 33.448-33.448s33.446 14.976 33.446 33.448-14.974 33.446-33.446 33.446c-18.472 0-33.448-14.974-33.448-33.446h-.181c0 18.572 15.056 33.63 33.629 33.63 18.574 0 33.63-15.058 33.63-33.63 0-18.573-15.056-33.63-33.63-33.63-18.573 0-33.629 15.057-33.629 33.63"/><path d="M194.926 63.746c0-18.572 15.057-33.63 33.629-33.63 18.574 0 33.63 15.058 33.63 33.63 0 18.573-15.056 33.63-33.63 33.63-18.572 0-33.629-15.057-33.629-33.63h-.183c0 18.675 15.138 33.813 33.812 33.813s33.813-15.138 33.813-33.813c0-18.674-15.139-33.811-33.813-33.811-18.674 0-33.812 15.137-33.812 33.811"/><path d="M194.743 63.746c0-18.674 15.138-33.811 33.812-33.811s33.813 15.137 33.813 33.811c0 18.675-15.139 33.813-33.813 33.813-18.674 0-33.812-15.138-33.812-33.813h-.184c0 18.775 15.221 33.995 33.996 33.995 18.774 0 33.994-15.22 33.994-33.995 0-18.774-15.22-33.995-33.994-33.995-18.775 0-33.996 15.22-33.996 33.995"/><path d="M194.559 63.746c0-18.774 15.221-33.996 33.996-33.996 18.774 0 33.994 15.222 33.994 33.996 0 18.775-15.22 33.994-33.994 33.994-18.775 0-33.996-15.22-33.996-33.994h-.183c0 18.875 15.304 34.179 34.179 34.179 18.876 0 34.178-15.304 34.178-34.179s-15.302-34.178-34.178-34.178c-18.875 0-34.179 15.303-34.179 34.178"/><path d="M194.376 63.746c0-18.875 15.304-34.179 34.179-34.179 18.876 0 34.178 15.304 34.178 34.179s-15.302 34.178-34.178 34.178c-18.875 0-34.179-15.303-34.179-34.178h-.181c0 18.977 15.383 34.361 34.36 34.361s34.361-15.384 34.361-34.361c0-18.977-15.384-34.36-34.361-34.36-18.977 0-34.36 15.383-34.36 34.36"/><path d="M194.195 63.746c0-18.976 15.383-34.36 34.36-34.36s34.361 15.384 34.361 34.36c0 18.977-15.384 34.362-34.361 34.362-18.977 0-34.36-15.385-34.36-34.362h-.184c0 19.078 15.467 34.543 34.544 34.543 19.077 0 34.542-15.465 34.542-34.543 0-19.077-15.465-34.544-34.542-34.544s-34.544 15.467-34.544 34.544"/><path d="M194.011 63.746c0-19.078 15.467-34.544 34.544-34.544 19.077 0 34.542 15.466 34.542 34.544 0 19.077-15.465 34.542-34.542 34.542s-34.544-15.465-34.544-34.542h-.183c0 19.179 15.548 34.726 34.727 34.726 19.179 0 34.727-15.547 34.727-34.726 0-19.18-15.548-34.727-34.727-34.727-19.179 0-34.727 15.548-34.727 34.727"/><path d="M193.828 63.746c0-19.179 15.548-34.726 34.727-34.726 19.179 0 34.727 15.547 34.727 34.726 0 19.18-15.548 34.727-34.727 34.727-19.179 0-34.727-15.548-34.727-34.727h-.181c0 19.28 15.629 34.91 34.908 34.91 19.279 0 34.909-15.63 34.909-34.91 0-19.279-15.63-34.908-34.909-34.908-19.279 0-34.908 15.63-34.908 34.908"/><path d="M193.647 63.746c0-19.28 15.628-34.908 34.908-34.908 19.279 0 34.909 15.629 34.909 34.908 0 19.28-15.63 34.91-34.909 34.91-19.28 0-34.908-15.63-34.908-34.91h-.185c0 19.381 15.713 35.09 35.093 35.09 19.381 0 35.092-15.709 35.092-35.09 0-19.38-15.711-35.092-35.092-35.092-19.38 0-35.093 15.712-35.093 35.092"/><path d="M193.462 63.746c0-19.38 15.713-35.092 35.093-35.092 19.381 0 35.092 15.713 35.092 35.092 0 19.382-15.711 35.091-35.092 35.091-19.38 0-35.093-15.71-35.093-35.09h-.182c0 19.481 15.793 35.275 35.275 35.275 19.481 0 35.275-15.794 35.275-35.276 0-19.481-15.794-35.275-35.275-35.275-19.482 0-35.275 15.794-35.275 35.275"/><path d="M193.28 63.746c0-19.481 15.793-35.275 35.275-35.275 19.481 0 35.275 15.794 35.275 35.275 0 19.482-15.794 35.276-35.275 35.276-19.482 0-35.275-15.794-35.275-35.276h-.182c0 19.583 15.875 35.458 35.457 35.458s35.458-15.875 35.458-35.457c0-19.583-15.876-35.457-35.458-35.457s-35.457 15.874-35.457 35.456"/><path d="M193.098 63.746c0-19.582 15.875-35.457 35.457-35.457s35.458 15.875 35.458 35.457-15.876 35.458-35.458 35.458-35.457-15.876-35.457-35.458h-.184c0 19.684 15.959 35.639 35.641 35.639 19.684 0 35.64-15.956 35.64-35.64 0-19.682-15.956-35.64-35.64-35.64-19.682 0-35.641 15.958-35.641 35.64"/><path d="M192.914 63.746c0-19.682 15.958-35.64 35.641-35.64 19.684 0 35.64 15.958 35.64 35.64 0 19.684-15.956 35.64-35.64 35.64-19.683 0-35.641-15.956-35.641-35.64h-.183c0 19.785 16.04 35.824 35.824 35.824s35.823-16.04 35.823-35.823c0-19.785-16.039-35.824-35.823-35.824s-35.824 16.04-35.824 35.823"/><path d="M192.731 63.746c0-19.784 16.04-35.823 35.824-35.823s35.823 16.04 35.823 35.823c0 19.785-16.039 35.824-35.823 35.824s-35.824-16.04-35.824-35.824h-.181c0 19.885 16.12 36.006 36.005 36.006 19.884 0 36.006-16.121 36.006-36.006 0-19.884-16.122-36.004-36.006-36.004-19.885 0-36.005 16.12-36.005 36.004"/><path d="M192.55 63.746c0-19.884 16.12-36.004 36.005-36.004 19.884 0 36.006 16.12 36.006 36.004 0 19.885-16.122 36.006-36.006 36.006-19.885 0-36.005-16.121-36.005-36.006h-.184c0 19.987 16.202 36.188 36.189 36.188 19.986 0 36.189-16.201 36.189-36.188 0-19.986-16.203-36.189-36.189-36.189-19.987 0-36.189 16.203-36.189 36.19"/><path d="M192.366 63.746c0-19.987 16.202-36.19 36.189-36.19 19.986 0 36.189 16.203 36.189 36.19 0 19.986-16.203 36.187-36.189 36.187-19.987 0-36.189-16.2-36.189-36.187h-.183c0 20.087 16.285 36.371 36.372 36.371s36.371-16.284 36.371-36.371c0-20.087-16.284-36.372-36.371-36.372-20.087 0-36.372 16.285-36.372 36.372"/><path d="M192.183 63.746c0-20.087 16.285-36.372 36.372-36.372s36.372 16.285 36.372 36.372-16.285 36.372-36.372 36.372-36.372-16.285-36.372-36.372h-.181c0 20.189 16.366 36.554 36.553 36.554 20.189 0 36.554-16.365 36.554-36.554 0-20.189-16.365-36.555-36.554-36.555-20.187 0-36.553 16.366-36.553 36.555"/><path d="M192.002 63.746c0-20.189 16.366-36.554 36.553-36.554 20.189 0 36.554 16.365 36.554 36.554 0 20.189-16.365 36.554-36.554 36.554-20.187 0-36.553-16.365-36.553-36.554h-.184c0 20.29 16.448 36.736 36.737 36.736s36.737-16.447 36.737-36.736c0-20.289-16.448-36.737-36.737-36.737s-36.737 16.448-36.737 36.737"/><path d="M191.818 63.746c0-20.289 16.448-36.737 36.737-36.737s36.737 16.448 36.737 36.737c0 20.29-16.448 36.736-36.737 36.736s-36.737-16.447-36.737-36.736h-.183c0 20.39 16.53 36.92 36.92 36.92 20.389 0 36.92-16.53 36.92-36.92 0-20.389-16.531-36.92-36.92-36.92-20.39 0-36.92 16.531-36.92 36.92"/><path d="M191.635 63.746c0-20.39 16.531-36.92 36.92-36.92 20.389 0 36.92 16.53 36.92 36.92s-16.531 36.92-36.92 36.92c-20.389 0-36.92-16.53-36.92-36.92h-.181c0 20.491 16.611 37.102 37.101 37.102 20.491 0 37.103-16.611 37.103-37.102 0-20.49-16.612-37.103-37.103-37.103-20.49 0-37.101 16.613-37.101 37.103"/><path d="M191.454 63.746c0-20.49 16.611-37.103 37.101-37.103 20.491 0 37.102 16.613 37.102 37.103 0 20.491-16.611 37.103-37.102 37.103-20.49 0-37.101-16.612-37.101-37.103h-.185c0 20.592 16.694 37.285 37.286 37.285 20.591 0 37.285-16.693 37.285-37.285 0-20.592-16.694-37.285-37.285-37.285-20.592 0-37.286 16.693-37.286 37.285"/><path d="M191.269 63.746c0-20.591 16.694-37.285 37.286-37.285 20.591 0 37.285 16.694 37.285 37.285 0 20.592-16.694 37.286-37.285 37.286-20.592 0-37.286-16.694-37.286-37.286h-.182c0 20.692 16.776 37.468 37.468 37.468 20.692 0 37.468-16.776 37.468-37.468 0-20.692-16.776-37.468-37.468-37.468-20.692 0-37.468 16.776-37.468 37.468"/><path d="M191.087 63.746c0-20.692 16.776-37.468 37.468-37.468 20.692 0 37.468 16.776 37.468 37.468 0 20.692-16.776 37.468-37.468 37.468-20.692 0-37.468-16.776-37.468-37.468h-.182c0 20.794 16.856 37.651 37.65 37.651 20.794 0 37.651-16.857 37.651-37.65 0-20.795-16.857-37.652-37.651-37.652-20.794 0-37.65 16.857-37.65 37.651"/><path d="M190.905 63.746c0-20.794 16.856-37.651 37.65-37.651 20.794 0 37.651 16.857 37.651 37.65 0 20.795-16.857 37.652-37.651 37.652-20.794 0-37.65-16.858-37.65-37.651h-.184c0 20.894 16.94 37.833 37.834 37.833 20.894 0 37.834-16.94 37.834-37.833 0-20.895-16.94-37.834-37.834-37.834-20.894 0-37.834 16.94-37.834 37.834"/><path d="M190.721 63.746c0-20.894 16.94-37.833 37.834-37.833 20.894 0 37.833 16.94 37.833 37.834 0 20.894-16.939 37.833-37.833 37.833s-37.834-16.94-37.834-37.834h-.183c0 20.997 17.021 38.017 38.017 38.017 20.996 0 38.016-17.02 38.016-38.017 0-20.996-17.02-38.016-38.016-38.016s-38.017 17.02-38.017 38.016"/><path d="M190.538 63.747c0-20.996 17.021-38.017 38.017-38.017 20.996 0 38.016 17.02 38.016 38.017 0 20.996-17.02 38.016-38.016 38.016s-38.017-17.02-38.017-38.016h-.181c0 21.096 17.101 38.199 38.198 38.199 21.096 0 38.199-17.103 38.199-38.2 0-21.096-17.103-38.199-38.199-38.199-21.097 0-38.198 17.103-38.198 38.2"/><path d="M190.357 63.746c0-21.096 17.101-38.199 38.198-38.199 21.096 0 38.199 17.103 38.199 38.2 0 21.096-17.103 38.198-38.199 38.198-21.097 0-38.198-17.102-38.198-38.199h-.184c0 21.197 17.185 38.382 38.382 38.382 21.198 0 38.382-17.185 38.382-38.382s-17.184-38.382-38.382-38.382c-21.197 0-38.382 17.185-38.382 38.382"/><path d="M190.173 63.746c0-21.197 17.185-38.382 38.382-38.382 21.198 0 38.382 17.185 38.382 38.382 0 21.196-17.184 38.382-38.382 38.382-21.197 0-38.382-17.186-38.382-38.382h-.183c0 21.298 17.268 38.564 38.565 38.564 21.299 0 38.565-17.266 38.565-38.564 0-21.3-17.266-38.565-38.565-38.565-21.297 0-38.565 17.266-38.565 38.565"/><path d="M189.99 63.746c0-21.299 17.268-38.565 38.565-38.565 21.299 0 38.565 17.266 38.565 38.565s-17.266 38.565-38.565 38.565c-21.297 0-38.565-17.266-38.565-38.565h-.183c0 21.4 17.349 38.748 38.748 38.748 21.399 0 38.747-17.349 38.747-38.748 0-21.399-17.348-38.747-38.747-38.747s-38.748 17.348-38.748 38.747"/><path d="M189.807 63.746c0-21.399 17.349-38.747 38.748-38.747 21.399 0 38.747 17.348 38.747 38.747 0 21.4-17.348 38.748-38.747 38.748s-38.748-17.349-38.748-38.748h-.182c0 21.5 17.43 38.93 38.93 38.93 21.499 0 38.93-17.43 38.93-38.93s-17.431-38.93-38.93-38.93c-21.5 0-38.93 17.43-38.93 38.93"/><path d="M189.625 63.745c0-21.499 17.43-38.93 38.93-38.93 21.499 0 38.93 17.431 38.93 38.93 0 21.5-17.431 38.931-38.93 38.931-21.5 0-38.93-17.431-38.93-38.93h-.183c0 21.6 17.512 39.112 39.113 39.112s39.113-17.511 39.113-39.113c0-21.6-17.512-39.113-39.113-39.113s-39.113 17.512-39.113 39.113"/><path d="M189.442 63.746c0-21.6 17.512-39.113 39.113-39.113s39.113 17.512 39.113 39.114c0 21.6-17.512 39.112-39.113 39.112s-39.113-17.511-39.113-39.112h-.183c0 21.701 17.594 39.295 39.296 39.295 21.702 0 39.296-17.594 39.296-39.296 0-21.701-17.594-39.295-39.296-39.295-21.702 0-39.296 17.594-39.296 39.295"/><path d="M189.259 63.746c0-21.701 17.594-39.295 39.296-39.295 21.701 0 39.296 17.594 39.296 39.295 0 21.702-17.595 39.296-39.296 39.296-21.702 0-39.296-17.594-39.296-39.296h-.183c0 21.804 17.675 39.479 39.479 39.479 21.803 0 39.478-17.675 39.478-39.479 0-21.803-17.675-39.478-39.478-39.478-21.804 0-39.479 17.675-39.479 39.478"/><path d="M189.076 63.746c0-21.803 17.675-39.479 39.479-39.479 21.803 0 39.478 17.676 39.478 39.479s-17.675 39.478-39.478 39.478c-21.804 0-39.479-17.675-39.479-39.478h-.182c0 21.904 17.757 39.661 39.661 39.661s39.661-17.757 39.661-39.661-17.757-39.661-39.661-39.661-39.661 17.757-39.661 39.661"/><path d="M188.893 63.746c0-21.904 17.758-39.66 39.662-39.66s39.661 17.756 39.661 39.66c0 21.904-17.757 39.662-39.661 39.662s-39.662-17.758-39.662-39.662h-.182c0 22.006 17.84 39.844 39.844 39.844 22.006 0 39.844-17.838 39.844-39.844 0-22.004-17.838-39.844-39.844-39.844-22.004 0-39.844 17.84-39.844 39.844"/><path d="M188.711 63.746c0-22.004 17.84-39.844 39.844-39.844 22.006 0 39.844 17.84 39.844 39.844 0 22.006-17.838 39.844-39.844 39.844-22.004 0-39.844-17.838-39.844-39.844h-.183c0 22.106 17.921 40.027 40.027 40.027s40.027-17.921 40.027-40.027-17.921-40.027-40.027-40.027-40.027 17.92-40.027 40.027"/><path d="M188.528 63.746c0-22.106 17.921-40.027 40.027-40.027s40.027 17.92 40.027 40.027c0 22.106-17.921 40.027-40.027 40.027s-40.027-17.921-40.027-40.027h-.183c0 22.206 18.003 40.209 40.21 40.209 22.206 0 40.209-18.003 40.209-40.21 0-22.206-18.003-40.209-40.209-40.209-22.207 0-40.21 18.003-40.21 40.21"/><path d="M188.345 63.746c0-22.207 18.003-40.21 40.21-40.21 22.206 0 40.209 18.003 40.209 40.21 0 22.206-18.003 40.209-40.209 40.209-22.207 0-40.21-18.003-40.21-40.21h-.182c0 22.308 18.085 40.393 40.392 40.393 22.308 0 40.392-18.085 40.392-40.392 0-22.307-18.084-40.392-40.392-40.392-22.307 0-40.392 18.085-40.392 40.392"/><path d="M188.163 63.746c0-22.307 18.085-40.392 40.392-40.392 22.308 0 40.392 18.085 40.392 40.392 0 22.307-18.084 40.393-40.392 40.393-22.307 0-40.392-18.086-40.392-40.393h-.183c0 22.409 18.166 40.575 40.575 40.575 22.409 0 40.575-18.166 40.575-40.575 0-22.409-18.166-40.575-40.575-40.575-22.409 0-40.575 18.166-40.575 40.575"/><path d="M187.98 63.747c0-22.409 18.166-40.575 40.575-40.575 22.409 0 40.575 18.166 40.575 40.575 0 22.409-18.166 40.575-40.575 40.575-22.409 0-40.575-18.166-40.575-40.575h-.183c0 22.509 18.249 40.758 40.758 40.758 22.509 0 40.758-18.25 40.758-40.758 0-22.51-18.249-40.758-40.758-40.758-22.509 0-40.758 18.249-40.758 40.758"/><path d="M187.797 63.747c0-22.51 18.249-40.758 40.758-40.758 22.509 0 40.758 18.249 40.758 40.758 0 22.509-18.249 40.757-40.758 40.757-22.509 0-40.758-18.248-40.758-40.757h-.183c0 22.61 18.33 40.94 40.941 40.94 22.611 0 40.94-18.33 40.94-40.94 0-22.611-18.329-40.94-40.94-40.94-22.611 0-40.941 18.329-40.941 40.94"/><path d="M187.614 63.746c0-22.611 18.33-40.94 40.941-40.94 22.611 0 40.94 18.329 40.94 40.94 0 22.61-18.329 40.94-40.94 40.94-22.611 0-40.941-18.33-40.941-40.94h-.182c0 22.711 18.412 41.123 41.123 41.123s41.123-18.412 41.123-41.123c0-22.712-18.412-41.123-41.123-41.123s-41.123 18.412-41.123 41.123"/><path d="M187.432 63.746c0-22.711 18.412-41.123 41.123-41.123s41.123 18.412 41.123 41.123-18.412 41.123-41.123 41.123-41.123-18.412-41.123-41.123h-.183c0 22.813 18.494 41.306 41.306 41.306 22.813 0 41.306-18.493 41.306-41.306 0-22.812-18.493-41.306-41.306-41.306-22.812 0-41.306 18.494-41.306 41.306"/><path d="M187.249 63.746c0-22.811 18.494-41.306 41.306-41.306 22.813 0 41.306 18.495 41.306 41.306 0 22.813-18.493 41.306-41.306 41.306-22.812 0-41.306-18.493-41.306-41.306h-.183c0 22.914 18.575 41.489 41.489 41.489 22.913 0 41.489-18.575 41.489-41.489 0-22.913-18.576-41.489-41.489-41.489-22.914 0-41.489 18.576-41.489 41.49"/><path d="M187.066 63.746c0-22.914 18.575-41.489 41.489-41.489 22.913 0 41.489 18.575 41.489 41.489 0 22.913-18.576 41.489-41.489 41.489-22.914 0-41.489-18.576-41.489-41.49h-.183c0 23.015 18.658 41.672 41.672 41.672 23.014 0 41.671-18.657 41.671-41.671s-18.657-41.672-41.671-41.672-41.672 18.658-41.672 41.672"/><path d="M186.883 63.746c0-23.014 18.658-41.672 41.672-41.672 23.014 0 41.671 18.658 41.671 41.672 0 23.014-18.657 41.671-41.671 41.671s-41.672-18.657-41.672-41.671h-.182c0 23.116 18.74 41.854 41.854 41.854 23.116 0 41.854-18.738 41.854-41.854 0-23.114-18.738-41.854-41.854-41.854-23.114 0-41.854 18.74-41.854 41.854"/><path d="M186.701 63.746c0-23.114 18.74-41.854 41.854-41.854 23.116 0 41.854 18.74 41.854 41.854 0 23.116-18.738 41.854-41.854 41.854-23.114 0-41.854-18.738-41.854-41.854h-.183c0 23.216 18.821 42.037 42.037 42.037 23.216 0 42.037-18.82 42.037-42.037 0-23.216-18.821-42.037-42.037-42.037-23.216 0-42.037 18.821-42.037 42.037"/><path d="M186.518 63.746c0-23.216 18.821-42.037 42.037-42.037 23.216 0 42.037 18.821 42.037 42.037 0 23.216-18.821 42.037-42.037 42.037-23.216 0-42.037-18.82-42.037-42.037h-.183c0 23.317 18.903 42.22 42.22 42.22 23.316 0 42.22-18.903 42.22-42.22 0-23.316-18.904-42.22-42.22-42.22-23.317 0-42.22 18.904-42.22 42.22"/><path d="M186.335 63.747c0-23.317 18.903-42.22 42.22-42.22 23.316 0 42.22 18.903 42.22 42.22 0 23.316-18.904 42.22-42.22 42.22-23.317 0-42.22-18.904-42.22-42.22h-.183c0 23.418 18.984 42.402 42.403 42.402 23.418 0 42.402-18.984 42.402-42.402 0-23.419-18.984-42.403-42.402-42.403-23.419 0-42.403 18.984-42.403 42.403"/><path d="M186.152 63.747c0-23.419 18.984-42.403 42.403-42.403 23.418 0 42.402 18.984 42.402 42.403 0 23.418-18.984 42.402-42.402 42.402-23.419 0-42.403-18.984-42.403-42.402h-.183c0 23.518 19.067 42.585 42.586 42.585s42.585-19.067 42.585-42.585c0-23.519-19.066-42.586-42.585-42.586-23.519 0-42.586 19.067-42.586 42.586"/><path d="M185.97 63.746c0-23.518 19.066-42.585 42.585-42.585 23.519 0 42.585 19.067 42.585 42.585 0 23.52-19.066 42.585-42.585 42.585-23.519 0-42.585-19.066-42.585-42.585h-.183c0 23.621 19.149 42.769 42.768 42.769 23.621 0 42.768-19.148 42.768-42.769 0-23.62-19.147-42.768-42.768-42.768-23.619 0-42.768 19.148-42.768 42.768"/><path d="M185.787 63.746c0-23.621 19.149-42.769 42.768-42.769 23.62 0 42.768 19.148 42.768 42.769 0 23.62-19.148 42.768-42.768 42.768-23.619 0-42.768-19.148-42.768-42.768h-.183c0 23.72 19.23 42.95 42.951 42.95s42.951-19.23 42.951-42.95c0-23.721-19.23-42.951-42.951-42.951s-42.951 19.23-42.951 42.95"/><path d="M185.604 63.746c0-23.72 19.23-42.95 42.951-42.95s42.951 19.23 42.951 42.95c0 23.721-19.23 42.951-42.951 42.951s-42.951-19.23-42.951-42.95h-.183c0 23.82 19.313 43.133 43.134 43.133s43.133-19.312 43.133-43.134c0-23.821-19.312-43.133-43.133-43.133s-43.134 19.312-43.134 43.133"/><path d="M185.421 63.746c0-23.821 19.313-43.133 43.134-43.133s43.133 19.312 43.133 43.133-19.312 43.134-43.133 43.134-43.134-19.313-43.134-43.134h-.183c0 23.923 19.395 43.317 43.317 43.317 23.923 0 43.316-19.394 43.316-43.317 0-23.922-19.393-43.316-43.316-43.316-23.922 0-43.317 19.395-43.317 43.316"/><path d="M185.239 63.746c0-23.922 19.394-43.316 43.316-43.316 23.923 0 43.316 19.394 43.316 43.316 0 23.923-19.393 43.317-43.316 43.317-23.922 0-43.316-19.394-43.316-43.317h-.183c0 24.023 19.475 43.499 43.499 43.499s43.499-19.476 43.499-43.499c0-24.024-19.475-43.5-43.499-43.5s-43.499 19.476-43.499 43.5"/><path d="M185.056 63.746c0-24.023 19.475-43.499 43.499-43.499 24.023 0 43.499 19.476 43.499 43.5 0 24.023-19.476 43.499-43.499 43.499-24.024 0-43.499-19.476-43.499-43.5h-.183c0 24.124 19.558 43.682 43.682 43.682 24.124 0 43.682-19.558 43.682-43.682 0-24.123-19.558-43.681-43.682-43.681-24.124 0-43.682 19.558-43.682 43.681"/><path d="M184.873 63.747c0-24.124 19.558-43.682 43.682-43.682 24.124 0 43.682 19.558 43.682 43.682 0 24.124-19.558 43.681-43.682 43.681-24.124 0-43.682-19.557-43.682-43.681h-.183c0 24.225 19.639 43.865 43.865 43.865 24.226 0 43.864-19.64 43.864-43.865 0-24.226-19.638-43.865-43.864-43.865-24.226 0-43.865 19.639-43.865 43.865"/><path d="M184.69 63.746c0-24.226 19.639-43.865 43.865-43.865 24.226 0 43.864 19.639 43.864 43.865 0 24.226-19.638 43.865-43.864 43.865-24.226 0-43.865-19.64-43.865-43.865h-.183c0 24.326 19.722 44.047 44.048 44.047s44.047-19.721 44.047-44.047c0-24.326-19.721-44.048-44.047-44.048-24.326 0-44.048 19.722-44.048 44.048"/><path d="M184.507 63.746c0-24.326 19.722-44.047 44.048-44.047s44.047 19.721 44.047 44.047c0 24.326-19.721 44.048-44.047 44.048-24.326 0-44.048-19.722-44.048-44.048h-.182c0 24.428 19.802 44.23 44.23 44.23 24.428 0 44.23-19.802 44.23-44.23 0-24.428-19.802-44.23-44.23-44.23-24.428 0-44.23 19.802-44.23 44.23"/><path d="M184.325 63.746c0-24.428 19.802-44.23 44.23-44.23 24.428 0 44.23 19.802 44.23 44.23 0 24.428-19.802 44.23-44.23 44.23-24.428 0-44.23-19.802-44.23-44.23h-.183c0 24.529 19.884 44.413 44.413 44.413 24.528 0 44.413-19.884 44.413-44.413 0-24.528-19.885-44.413-44.413-44.413-24.529 0-44.413 19.885-44.413 44.413"/><path d="M184.142 63.746c0-24.528 19.885-44.413 44.413-44.413 24.528 0 44.413 19.885 44.413 44.413 0 24.529-19.885 44.413-44.413 44.413-24.528 0-44.413-19.884-44.413-44.413h-.183c0 24.63 19.967 44.596 44.596 44.596 24.63 0 44.596-19.967 44.596-44.596 0-24.628-19.966-44.595-44.596-44.595-24.629 0-44.596 19.967-44.596 44.595"/><path d="M183.959 63.747c0-24.629 19.967-44.596 44.596-44.596 24.63 0 44.596 19.967 44.596 44.596 0 24.629-19.966 44.596-44.596 44.596-24.629 0-44.596-19.967-44.596-44.596h-.183c0 24.73 20.05 44.778 44.779 44.778 24.731 0 44.778-20.047 44.778-44.778 0-24.73-20.047-44.779-44.778-44.779-24.729 0-44.779 20.048-44.779 44.779"/><path d="M183.776 63.746c0-24.73 20.05-44.778 44.779-44.778 24.73 0 44.778 20.048 44.778 44.778 0 24.731-20.048 44.779-44.778 44.779-24.729 0-44.779-20.048-44.779-44.779h-.182c0 24.831 20.13 44.962 44.961 44.962s44.961-20.13 44.961-44.962c0-24.83-20.13-44.96-44.961-44.96s-44.961 20.13-44.961 44.96"/><path d="M183.594 63.747c0-24.831 20.13-44.962 44.961-44.962s44.961 20.13 44.961 44.962c0 24.83-20.13 44.961-44.961 44.961s-44.961-20.13-44.961-44.961h-.183c0 24.931 20.213 45.144 45.144 45.144 24.931 0 45.144-20.213 45.144-45.144 0-24.932-20.213-45.144-45.144-45.144-24.931 0-45.144 20.212-45.144 45.144"/><path d="M183.411 63.746c0-24.93 20.213-45.144 45.144-45.144 24.931 0 45.144 20.213 45.144 45.144 0 24.932-20.213 45.144-45.144 45.144-24.931 0-45.144-20.212-45.144-45.144h-.183c0 25.034 20.294 45.327 45.327 45.327 25.033 0 45.327-20.293 45.327-45.327 0-25.033-20.294-45.326-45.327-45.326-25.033 0-45.327 20.293-45.327 45.326"/><path d="M183.228 63.746c0-25.033 20.294-45.327 45.327-45.327 25.033 0 45.327 20.294 45.327 45.327 0 25.033-20.294 45.327-45.327 45.327-25.033 0-45.327-20.294-45.327-45.327h-.183c0 25.134 20.376 45.51 45.51 45.51 25.134 0 45.509-20.376 45.509-45.51 0-25.134-20.375-45.51-45.509-45.51s-45.51 20.376-45.51 45.51"/><path d="M183.045 63.746c0-25.134 20.376-45.51 45.51-45.51 25.133 0 45.509 20.376 45.509 45.51 0 25.133-20.376 45.509-45.509 45.509-25.134 0-45.51-20.376-45.51-45.51h-.182c0 25.236 20.456 45.693 45.692 45.693 25.235 0 45.692-20.457 45.692-45.692 0-25.236-20.457-45.693-45.692-45.693-25.236 0-45.692 20.457-45.692 45.693"/><path d="M182.863 63.746c0-25.236 20.456-45.693 45.692-45.693 25.235 0 45.692 20.457 45.692 45.693 0 25.235-20.457 45.692-45.692 45.692-25.236 0-45.692-20.457-45.692-45.692h-.183c0 25.336 20.539 45.875 45.875 45.875s45.875-20.54 45.875-45.875c0-25.336-20.539-45.875-45.875-45.875S182.68 38.41 182.68 63.746"/><path d="M182.68 63.746c0-25.336 20.539-45.875 45.875-45.875s45.875 20.54 45.875 45.875c0 25.336-20.539 45.875-45.875 45.875S182.68 89.082 182.68 63.746h-.183c0 25.438 20.622 46.058 46.058 46.058 25.438 0 46.058-20.62 46.058-46.058 0-25.436-20.62-46.058-46.058-46.058-25.436 0-46.058 20.622-46.058 46.058"/><path d="M182.497 63.746c0-25.436 20.622-46.058 46.058-46.058 25.437 0 46.058 20.622 46.058 46.058 0 25.438-20.621 46.058-46.058 46.058-25.436 0-46.058-20.62-46.058-46.058h-.183c0 25.538 20.703 46.241 46.241 46.241s46.24-20.703 46.24-46.24c0-25.539-20.702-46.242-46.24-46.242s-46.241 20.703-46.241 46.241"/><path d="M182.314 63.747c0-25.538 20.703-46.24 46.241-46.24s46.24 20.702 46.24 46.24-20.702 46.24-46.24 46.24-46.241-20.702-46.241-46.24h-.182c0 25.638 20.784 46.423 46.423 46.423 25.638 0 46.423-20.785 46.423-46.423 0-25.639-20.785-46.424-46.423-46.424-25.639 0-46.423 20.785-46.423 46.424"/><path d="M182.132 63.746c0-25.638 20.785-46.423 46.423-46.423s46.423 20.785 46.423 46.423c0 25.639-20.785 46.424-46.423 46.424s-46.423-20.785-46.423-46.424h-.183c0 25.739 20.867 46.607 46.606 46.607 25.74 0 46.606-20.868 46.606-46.607S254.295 17.14 228.555 17.14c-25.739 0-46.606 20.867-46.606 46.606"/><path d="M181.949 63.746c0-25.738 20.867-46.606 46.606-46.606 25.74 0 46.606 20.868 46.606 46.606 0 25.74-20.866 46.607-46.606 46.607-25.739 0-46.606-20.868-46.606-46.607h-.183c0 25.841 20.948 46.789 46.789 46.789s46.789-20.948 46.789-46.789c0-25.84-20.948-46.788-46.789-46.788s-46.789 20.948-46.789 46.788"/><path d="M181.766 63.746c0 25.84 20.948 46.789 46.789 46.789s46.789-20.948 46.789-46.789c0-25.84-20.948-46.789-46.789-46.789s-46.789 20.948-46.789 46.789Zm94.936 49.006h-94.936V14.757h94.936v97.995Z"/></g><path fill="#1B1B1B" d="M5.717 113.157H1.005L11.592 83.74h5.128l10.586 29.417h-4.711l-8.317-24.074h-.23l-8.331 24.074Zm.79-11.52h15.284v3.735H6.507v-3.735Zm43.574-8.604a8.979 8.979 0 0 0-1.12-2.341 7.16 7.16 0 0 0-1.653-1.781 6.938 6.938 0 0 0-2.197-1.135c-.814-.259-1.71-.388-2.686-.388-1.657 0-3.15.426-4.482 1.278-1.331.853-2.384 2.103-3.16 3.75-.766 1.637-1.15 3.643-1.15 6.018 0 2.385.389 4.4 1.164 6.048.776 1.647 1.839 2.896 3.19 3.749 1.35.852 2.886 1.278 4.61 1.278 1.6 0 2.992-.326 4.18-.977a6.8 6.8 0 0 0 2.772-2.758c.661-1.197.991-2.604.991-4.223l1.15.216h-8.418v-3.663h11.563v3.347c0 2.47-.526 4.615-1.58 6.435a10.755 10.755 0 0 1-4.338 4.194c-1.838.986-3.945 1.48-6.32 1.48-2.662 0-4.999-.613-7.01-1.839-2.001-1.226-3.562-2.964-4.683-5.214-1.12-2.26-1.68-4.941-1.68-8.044 0-2.346.325-4.453.977-6.32.65-1.868 1.565-3.453 2.743-4.755a11.979 11.979 0 0 1 4.18-3.002c1.609-.699 3.366-1.049 5.272-1.049 1.59 0 3.069.235 4.438.704a11.967 11.967 0 0 1 3.678 1.997 11.305 11.305 0 0 1 2.686 3.074c.708 1.178 1.187 2.485 1.436 3.921h-4.553Zm10.389 20.124V83.74h18.443v3.82H64.908v8.964h13.043v3.806H64.908v9.007h14.178v3.82H60.47Zm48.116-29.417v29.417h-4.079L89.553 91.582h-.272v21.575h-4.439V83.74h4.108l14.968 21.603h.273V83.74h4.395Zm15.998 29.417h-9.523V83.74h9.825c2.882 0 5.358.589 7.426 1.766 2.068 1.169 3.653 2.85 4.755 5.042 1.11 2.184 1.666 4.803 1.666 7.858 0 3.064-.56 5.697-1.681 7.9-1.111 2.202-2.719 3.897-4.826 5.085-2.107 1.178-4.654 1.766-7.642 1.766Zm-5.085-3.878h4.841c2.241 0 4.103-.421 5.588-1.264 1.484-.852 2.595-2.083 3.332-3.691.737-1.619 1.106-3.592 1.106-5.918 0-2.308-.369-4.267-1.106-5.876-.728-1.608-1.815-2.83-3.261-3.662-1.446-.834-3.241-1.25-5.386-1.25h-5.114v21.661Zm25.777 3.878h-4.712l10.587-29.417h5.128l10.586 29.417h-4.711l-8.317-24.074h-.23l-8.331 24.074Zm.79-11.52h15.283v3.735h-15.283v-3.735ZM117.286 139.414c-.148-1.486-.78-2.64-1.898-3.463-1.117-.823-2.634-1.234-4.55-1.234-1.302 0-2.401.184-3.298.552-.896.357-1.584.854-2.063 1.493a3.587 3.587 0 0 0-.7 2.173c-.024.676.117 1.265.424 1.769.319.503.755.939 1.308 1.308a9.908 9.908 0 0 0 1.916.939 19.95 19.95 0 0 0 2.321.664l3.39.81c1.645.369 3.156.86 4.531 1.474 1.376.614 2.567 1.369 3.574 2.266a9.429 9.429 0 0 1 2.34 3.169c.565 1.215.854 2.609.866 4.181-.012 2.309-.602 4.311-1.769 6.006-1.154 1.683-2.824 2.991-5.011 3.924-2.173.921-4.795 1.382-7.866 1.382-3.046 0-5.698-.467-7.958-1.4-2.248-.934-4.004-2.315-5.269-4.145-1.253-1.843-1.91-4.121-1.971-6.835h7.719c.086 1.265.448 2.321 1.087 3.169.651.835 1.516 1.467 2.597 1.897 1.093.418 2.328.626 3.703.626 1.351 0 2.524-.196 3.519-.589 1.007-.393 1.787-.94 2.339-1.64.553-.7.829-1.504.829-2.413 0-.847-.251-1.56-.755-2.137-.491-.577-1.216-1.068-2.174-1.474-.945-.405-2.106-.773-3.482-1.105l-4.108-1.032c-3.181-.773-5.692-1.983-7.534-3.629-1.843-1.646-2.758-3.862-2.745-6.65-.013-2.285.595-4.28 1.823-5.988 1.24-1.707 2.942-3.039 5.103-3.997 2.162-.958 4.618-1.437 7.369-1.437 2.8 0 5.245.479 7.332 1.437 2.1.958 3.734 2.29 4.901 3.997 1.166 1.708 1.768 3.685 1.805 5.932h-7.645Zm19.168 26.878h-8.548l13.025-37.728h10.279l13.007 37.728h-8.548l-9.451-29.107h-.295l-9.469 29.107Zm-.534-14.829h20.191v6.226H135.92v-6.226Zm56.142-22.899h7.977v24.501c0 2.751-.657 5.159-1.972 7.222-1.301 2.063-3.125 3.672-5.471 4.826-2.346 1.143-5.078 1.714-8.198 1.714-3.132 0-5.87-.571-8.216-1.714-2.346-1.154-4.17-2.763-5.472-4.826-1.301-2.063-1.952-4.471-1.952-7.222v-24.501h7.976v23.82c0 1.437.314 2.714.94 3.832a6.857 6.857 0 0 0 2.69 2.634c1.154.639 2.499.958 4.034.958 1.548 0 2.892-.319 4.035-.958 1.154-.639 2.044-1.517 2.671-2.634.638-1.118.958-2.395.958-3.832v-23.82Zm-10.482-3.648 3.905-8.382h7.258l-5.618 8.382h-5.545Zm38.396 41.376h-13.374v-37.728h13.485c3.795 0 7.062.755 9.8 2.266 2.739 1.498 4.845 3.653 6.319 6.466 1.486 2.812 2.229 6.177 2.229 10.095 0 3.93-.743 7.308-2.229 10.132-1.474 2.825-3.592 4.993-6.356 6.504-2.751 1.51-6.042 2.265-9.874 2.265Zm-5.398-6.834h5.067c2.358 0 4.341-.418 5.95-1.253 1.621-.847 2.837-2.155 3.648-3.924.822-1.781 1.234-4.077 1.234-6.89 0-2.788-.412-5.066-1.234-6.834-.811-1.769-2.021-3.071-3.63-3.906s-3.592-1.253-5.95-1.253h-5.085v24.06Zm29.766 6.834v-37.728h25.423v6.576h-17.446v8.99h16.138v6.577h-16.138v9.009h17.52v6.576h-25.497Z"/></svg>